%
M48
M72
T01C0.02756
T02C0.03150
T03C0.11811
%
T01
X61210Y144107
X71210Y144107
X81210Y144107
T02
X121564Y141115
X121564Y151115
X121564Y161115
X87469Y176390
X77469Y176390
X67469Y176390
X57469Y176390
X56446Y202650
X66446Y202650
X76446Y202650
X86446Y202650
X96446Y202650
X106446Y202650
X116446Y202650
X126446Y202650
X136446Y202650
X146446Y202650
X156446Y202650
X166446Y202650
X176446Y202650
X186446Y202650
X196446Y202650
X206446Y202650
X216446Y202650
X226446Y202650
X236446Y202650
X246446Y202650
X246446Y212650
X236446Y212650
X226446Y212650
X216446Y212650
X206446Y212650
X196446Y212650
X186446Y212650
X176446Y212650
X166446Y212650
X156446Y212650
X146446Y212650
X136446Y212650
X126446Y212650
X116446Y212650
X106446Y212650
X96446Y212650
X86446Y212650
X76446Y212650
X66446Y212650
X56446Y212650
X121564Y131115
X121564Y121115
X121564Y111115
X121564Y101115
X234064Y126115
X234064Y136115
T03
X37273Y28792
X265619Y28792
X265619Y207926
X37273Y207926
M30
