G75*
%MOIN*%
%OFA0B0*%
%FSLAX25Y25*%
%IPPOS*%
%LPD*%
%AMOC8*
5,1,8,0,0,1.08239X$1,22.5*
%
%ADD10C,0.00600*%
%ADD11R,0.22252X0.00045*%
%ADD12R,0.22884X0.00045*%
%ADD13R,0.23335X0.00045*%
%ADD14R,0.23696X0.00045*%
%ADD15R,0.23967X0.00045*%
%ADD16R,0.24237X0.00045*%
%ADD17R,0.24508X0.00045*%
%ADD18R,0.24689X0.00045*%
%ADD19R,0.24915X0.00045*%
%ADD20R,0.25141X0.00045*%
%ADD21R,0.25321X0.00045*%
%ADD22R,0.25456X0.00045*%
%ADD23R,0.25637X0.00045*%
%ADD24R,0.25772X0.00045*%
%ADD25R,0.25952X0.00045*%
%ADD26R,0.26088X0.00045*%
%ADD27R,0.26223X0.00045*%
%ADD28R,0.26314X0.00045*%
%ADD29R,0.26449X0.00045*%
%ADD30R,0.26585X0.00045*%
%ADD31R,0.26675X0.00045*%
%ADD32R,0.26810X0.00045*%
%ADD33R,0.26900X0.00045*%
%ADD34R,0.27036X0.00045*%
%ADD35R,0.27126X0.00045*%
%ADD36R,0.27216X0.00045*%
%ADD37R,0.27307X0.00045*%
%ADD38R,0.27397X0.00045*%
%ADD39R,0.27487X0.00045*%
%ADD40R,0.27578X0.00045*%
%ADD41R,0.27668X0.00045*%
%ADD42R,0.27758X0.00045*%
%ADD43R,0.27848X0.00045*%
%ADD44R,0.27894X0.00045*%
%ADD45R,0.27984X0.00045*%
%ADD46R,0.28029X0.00045*%
%ADD47R,0.28119X0.00045*%
%ADD48R,0.28209X0.00045*%
%ADD49R,0.28254X0.00045*%
%ADD50R,0.28300X0.00045*%
%ADD51R,0.28390X0.00045*%
%ADD52R,0.28480X0.00045*%
%ADD53R,0.14127X0.00045*%
%ADD54R,0.13676X0.00045*%
%ADD55R,0.13902X0.00045*%
%ADD56R,0.13405X0.00045*%
%ADD57R,0.13811X0.00045*%
%ADD58R,0.13315X0.00045*%
%ADD59R,0.13721X0.00045*%
%ADD60R,0.13225X0.00045*%
%ADD61R,0.13676X0.00045*%
%ADD62R,0.13179X0.00045*%
%ADD63R,0.13631X0.00045*%
%ADD64R,0.13180X0.00045*%
%ADD65R,0.13586X0.00045*%
%ADD66R,0.13089X0.00045*%
%ADD67R,0.13541X0.00045*%
%ADD68R,0.13089X0.00045*%
%ADD69R,0.13541X0.00045*%
%ADD70R,0.13044X0.00045*%
%ADD71R,0.13496X0.00045*%
%ADD72R,0.13044X0.00045*%
%ADD73R,0.13495X0.00045*%
%ADD74R,0.12999X0.00045*%
%ADD75R,0.13450X0.00045*%
%ADD76R,0.12999X0.00045*%
%ADD77R,0.13450X0.00045*%
%ADD78R,0.12954X0.00045*%
%ADD79R,0.12999X0.00045*%
%ADD80R,0.13450X0.00045*%
%ADD81R,0.12954X0.00045*%
%ADD82R,0.12954X0.00045*%
%ADD83R,0.13405X0.00045*%
%ADD84R,0.12954X0.00045*%
%ADD85R,0.12909X0.00045*%
%ADD86R,0.12909X0.00045*%
%ADD87R,0.13360X0.00045*%
%ADD88R,0.12908X0.00045*%
%ADD89R,0.13360X0.00045*%
%ADD90R,0.12908X0.00045*%
%ADD91R,0.13360X0.00045*%
%ADD92R,0.12863X0.00045*%
%ADD93R,0.13315X0.00045*%
%ADD94R,0.12863X0.00045*%
%ADD95R,0.13315X0.00045*%
%ADD96R,0.12819X0.00045*%
%ADD97R,0.13270X0.00045*%
%ADD98R,0.13270X0.00045*%
%ADD99R,0.12773X0.00045*%
%ADD100R,0.13225X0.00045*%
%ADD101R,0.12728X0.00045*%
%ADD102R,0.13180X0.00045*%
%ADD103R,0.12683X0.00045*%
%ADD104R,0.13134X0.00045*%
%ADD105R,0.12683X0.00045*%
%ADD106R,0.13134X0.00045*%
%ADD107R,0.12683X0.00045*%
%ADD108R,0.13089X0.00045*%
%ADD109R,0.12638X0.00045*%
%ADD110R,0.13044X0.00045*%
%ADD111R,0.12593X0.00045*%
%ADD112R,0.12502X0.00045*%
%ADD113R,0.12954X0.00045*%
%ADD114R,0.12502X0.00045*%
%ADD115R,0.12954X0.00045*%
%ADD116R,0.12457X0.00045*%
%ADD117R,0.12412X0.00045*%
%ADD118R,0.12367X0.00045*%
%ADD119R,0.12773X0.00045*%
%ADD120R,0.12277X0.00045*%
%ADD121R,0.12728X0.00045*%
%ADD122R,0.12231X0.00045*%
%ADD123R,0.12187X0.00045*%
%ADD124R,0.12593X0.00045*%
%ADD125R,0.12141X0.00045*%
%ADD126R,0.12548X0.00045*%
%ADD127R,0.12051X0.00045*%
%ADD128R,0.12457X0.00045*%
%ADD129R,0.11961X0.00045*%
%ADD130R,0.12367X0.00045*%
%ADD131R,0.11870X0.00045*%
%ADD132R,0.12232X0.00045*%
%ADD133R,0.11735X0.00045*%
%ADD134R,0.12141X0.00045*%
%ADD135R,0.11645X0.00045*%
%ADD136R,0.12006X0.00045*%
%ADD137R,0.11509X0.00045*%
%ADD138R,0.11826X0.00045*%
%ADD139R,0.11329X0.00045*%
%ADD140R,0.00677X0.00045*%
%ADD141R,0.00677X0.00045*%
%ADD142R,0.00496X0.00045*%
%ADD143R,0.00722X0.00045*%
%ADD144R,0.11600X0.00045*%
%ADD145R,0.11104X0.00045*%
%ADD146R,0.01173X0.00045*%
%ADD147R,0.01219X0.00045*%
%ADD148R,0.00903X0.00045*%
%ADD149R,0.01264X0.00045*%
%ADD150R,0.04875X0.00045*%
%ADD151R,0.04830X0.00045*%
%ADD152R,0.01444X0.00045*%
%ADD153R,0.01580X0.00045*%
%ADD154R,0.01489X0.00045*%
%ADD155R,0.01173X0.00045*%
%ADD156R,0.01670X0.00045*%
%ADD157R,0.04694X0.00045*%
%ADD158R,0.04649X0.00045*%
%ADD159R,0.01715X0.00045*%
%ADD160R,0.00948X0.00045*%
%ADD161R,0.01806X0.00045*%
%ADD162R,0.01760X0.00045*%
%ADD163R,0.01851X0.00045*%
%ADD164R,0.01038X0.00045*%
%ADD165R,0.00993X0.00045*%
%ADD166R,0.01941X0.00045*%
%ADD167R,0.04604X0.00045*%
%ADD168R,0.04559X0.00045*%
%ADD169R,0.01941X0.00045*%
%ADD170R,0.00948X0.00045*%
%ADD171R,0.02076X0.00045*%
%ADD172R,0.01986X0.00045*%
%ADD173R,0.01264X0.00045*%
%ADD174R,0.01219X0.00045*%
%ADD175R,0.02031X0.00045*%
%ADD176R,0.01038X0.00045*%
%ADD177R,0.00993X0.00045*%
%ADD178R,0.02121X0.00045*%
%ADD179R,0.04514X0.00045*%
%ADD180R,0.02122X0.00045*%
%ADD181R,0.02257X0.00045*%
%ADD182R,0.02167X0.00045*%
%ADD183R,0.01309X0.00045*%
%ADD184R,0.02302X0.00045*%
%ADD185R,0.04469X0.00045*%
%ADD186R,0.02211X0.00045*%
%ADD187R,0.02437X0.00045*%
%ADD188R,0.02347X0.00045*%
%ADD189R,0.01354X0.00045*%
%ADD190R,0.02528X0.00045*%
%ADD191R,0.04423X0.00045*%
%ADD192R,0.02392X0.00045*%
%ADD193R,0.00948X0.00045*%
%ADD194R,0.02618X0.00045*%
%ADD195R,0.02483X0.00045*%
%ADD196R,0.01354X0.00045*%
%ADD197R,0.01309X0.00045*%
%ADD198R,0.02573X0.00045*%
%ADD199R,0.01038X0.00045*%
%ADD200R,0.00993X0.00045*%
%ADD201R,0.02663X0.00045*%
%ADD202R,0.04378X0.00045*%
%ADD203R,0.02482X0.00045*%
%ADD204R,0.02708X0.00045*%
%ADD205R,0.02618X0.00045*%
%ADD206R,0.01399X0.00045*%
%ADD207R,0.01354X0.00045*%
%ADD208R,0.02844X0.00045*%
%ADD209R,0.04378X0.00045*%
%ADD210R,0.04333X0.00045*%
%ADD211R,0.02618X0.00045*%
%ADD212R,0.02889X0.00045*%
%ADD213R,0.02708X0.00045*%
%ADD214R,0.01399X0.00045*%
%ADD215R,0.01354X0.00045*%
%ADD216R,0.02844X0.00045*%
%ADD217R,0.02934X0.00045*%
%ADD218R,0.04333X0.00045*%
%ADD219R,0.02979X0.00045*%
%ADD220R,0.02798X0.00045*%
%ADD221R,0.01444X0.00045*%
%ADD222R,0.02934X0.00045*%
%ADD223R,0.03114X0.00045*%
%ADD224R,0.04288X0.00045*%
%ADD225R,0.02798X0.00045*%
%ADD226R,0.03069X0.00045*%
%ADD227R,0.03205X0.00045*%
%ADD228R,0.04288X0.00045*%
%ADD229R,0.02889X0.00045*%
%ADD230R,0.03159X0.00045*%
%ADD231R,0.04513X0.00045*%
%ADD232R,0.01489X0.00045*%
%ADD233R,0.03205X0.00045*%
%ADD234R,0.03295X0.00045*%
%ADD235R,0.04243X0.00045*%
%ADD236R,0.03250X0.00045*%
%ADD237R,0.04558X0.00045*%
%ADD238R,0.01535X0.00045*%
%ADD239R,0.03295X0.00045*%
%ADD240R,0.03385X0.00045*%
%ADD241R,0.04243X0.00045*%
%ADD242R,0.03024X0.00045*%
%ADD243R,0.03340X0.00045*%
%ADD244R,0.04604X0.00045*%
%ADD245R,0.01535X0.00045*%
%ADD246R,0.03385X0.00045*%
%ADD247R,0.03475X0.00045*%
%ADD248R,0.04243X0.00045*%
%ADD249R,0.03430X0.00045*%
%ADD250R,0.04604X0.00045*%
%ADD251R,0.01580X0.00045*%
%ADD252R,0.03475X0.00045*%
%ADD253R,0.03566X0.00045*%
%ADD254R,0.03159X0.00045*%
%ADD255R,0.03520X0.00045*%
%ADD256R,0.04649X0.00045*%
%ADD257R,0.01625X0.00045*%
%ADD258R,0.03656X0.00045*%
%ADD259R,0.04198X0.00045*%
%ADD260R,0.03611X0.00045*%
%ADD261R,0.04649X0.00045*%
%ADD262R,0.01625X0.00045*%
%ADD263R,0.03746X0.00045*%
%ADD264R,0.01444X0.00045*%
%ADD265R,0.01580X0.00045*%
%ADD266R,0.01986X0.00045*%
%ADD267R,0.01670X0.00045*%
%ADD268R,0.01534X0.00045*%
%ADD269R,0.01850X0.00045*%
%ADD270R,0.01354X0.00045*%
%ADD271R,0.01309X0.00045*%
%ADD272R,0.01399X0.00045*%
%ADD273R,0.01444X0.00045*%
%ADD274R,0.01399X0.00045*%
%ADD275R,0.01760X0.00045*%
%ADD276R,0.01309X0.00045*%
%ADD277R,0.01309X0.00045*%
%ADD278R,0.01715X0.00045*%
%ADD279R,0.01670X0.00045*%
%ADD280R,0.01264X0.00045*%
%ADD281R,0.01219X0.00045*%
%ADD282R,0.01534X0.00045*%
%ADD283R,0.01760X0.00045*%
%ADD284R,0.01219X0.00045*%
%ADD285R,0.01128X0.00045*%
%ADD286R,0.01174X0.00045*%
%ADD287R,0.01129X0.00045*%
%ADD288R,0.01128X0.00045*%
%ADD289R,0.01851X0.00045*%
%ADD290R,0.01535X0.00045*%
%ADD291R,0.01083X0.00045*%
%ADD292R,0.01083X0.00045*%
%ADD293R,0.01896X0.00045*%
%ADD294R,0.01083X0.00045*%
%ADD295R,0.01896X0.00045*%
%ADD296R,0.01219X0.00045*%
%ADD297R,0.01174X0.00045*%
%ADD298R,0.01941X0.00045*%
%ADD299R,0.01219X0.00045*%
%ADD300R,0.01083X0.00045*%
%ADD301R,0.00903X0.00045*%
%ADD302R,0.01173X0.00045*%
%ADD303R,0.01038X0.00045*%
%ADD304R,0.00903X0.00045*%
%ADD305R,0.01083X0.00045*%
%ADD306R,0.01174X0.00045*%
%ADD307R,0.00993X0.00045*%
%ADD308R,0.00993X0.00045*%
%ADD309R,0.01129X0.00045*%
%ADD310R,0.00948X0.00045*%
%ADD311R,0.01038X0.00045*%
%ADD312R,0.00948X0.00045*%
%ADD313R,0.01083X0.00045*%
%ADD314R,0.00993X0.00045*%
%ADD315R,0.01038X0.00045*%
%ADD316R,0.00948X0.00045*%
%ADD317R,0.04559X0.00045*%
%ADD318R,0.02076X0.00045*%
%ADD319R,0.02347X0.00045*%
%ADD320R,0.02482X0.00045*%
%ADD321R,0.02528X0.00045*%
%ADD322R,0.04604X0.00045*%
%ADD323R,0.03656X0.00045*%
%ADD324R,0.03475X0.00045*%
%ADD325R,0.03385X0.00045*%
%ADD326R,0.03204X0.00045*%
%ADD327R,0.03024X0.00045*%
%ADD328R,0.02798X0.00045*%
%ADD329R,0.02166X0.00045*%
%ADD330R,0.01850X0.00045*%
%ADD331R,0.01534X0.00045*%
%ADD332R,0.01580X0.00045*%
%ADD333R,0.02031X0.00045*%
%ADD334R,0.01490X0.00045*%
%ADD335R,0.03701X0.00045*%
%ADD336R,0.04198X0.00045*%
%ADD337R,0.03340X0.00045*%
%ADD338R,0.03250X0.00045*%
%ADD339R,0.03024X0.00045*%
%ADD340R,0.03476X0.00045*%
%ADD341R,0.03069X0.00045*%
%ADD342R,0.03024X0.00045*%
%ADD343R,0.03340X0.00045*%
%ADD344R,0.02979X0.00045*%
%ADD345R,0.02753X0.00045*%
%ADD346R,0.02663X0.00045*%
%ADD347R,0.02754X0.00045*%
%ADD348R,0.02573X0.00045*%
%ADD349R,0.02663X0.00045*%
%ADD350R,0.02437X0.00045*%
%ADD351R,0.02753X0.00045*%
%ADD352R,0.02302X0.00045*%
%ADD353R,0.02392X0.00045*%
%ADD354R,0.02212X0.00045*%
%ADD355R,0.02618X0.00045*%
%ADD356R,0.02437X0.00045*%
%ADD357R,0.01805X0.00045*%
%ADD358R,0.02257X0.00045*%
%ADD359R,0.01670X0.00045*%
%ADD360R,0.01986X0.00045*%
%ADD361R,0.00857X0.00045*%
%ADD362R,0.00722X0.00045*%
%ADD363R,0.00496X0.00045*%
%ADD364R,0.00632X0.00045*%
%ADD365R,0.00452X0.00045*%
%ADD366R,0.00316X0.00045*%
%ADD367R,0.01715X0.00045*%
%ADD368R,0.02347X0.00045*%
%ADD369R,0.02437X0.00045*%
%ADD370R,0.02528X0.00045*%
%ADD371R,0.02708X0.00045*%
%ADD372R,0.02889X0.00045*%
%ADD373R,0.02934X0.00045*%
%ADD374R,0.02979X0.00045*%
%ADD375R,0.03430X0.00045*%
%ADD376R,0.03520X0.00045*%
%ADD377R,0.03566X0.00045*%
%ADD378R,0.03656X0.00045*%
%ADD379R,0.03701X0.00045*%
%ADD380R,0.03791X0.00045*%
%ADD381R,0.03882X0.00045*%
%ADD382R,0.03972X0.00045*%
%ADD383R,0.04062X0.00045*%
%ADD384R,0.04423X0.00045*%
%ADD385R,0.04649X0.00045*%
%ADD386R,0.04784X0.00045*%
%ADD387R,0.04920X0.00045*%
%ADD388R,0.05055X0.00045*%
%ADD389R,0.05191X0.00045*%
%ADD390R,0.05371X0.00045*%
%ADD391R,0.05552X0.00045*%
%ADD392R,0.05732X0.00045*%
%ADD393R,0.04378X0.00045*%
%ADD394R,0.05957X0.00045*%
%ADD395R,0.06228X0.00045*%
%ADD396R,0.04469X0.00045*%
%ADD397R,0.06499X0.00045*%
%ADD398R,0.06861X0.00045*%
%ADD399R,0.07492X0.00045*%
%ADD400R,0.04785X0.00045*%
%ADD401R,0.00722X0.00045*%
%ADD402R,0.00767X0.00045*%
%ADD403R,0.00722X0.00045*%
%ADD404R,0.00542X0.00045*%
%ADD405R,0.00767X0.00045*%
%ADD406R,0.29925X0.00045*%
%ADD407R,0.29925X0.00045*%
%ADD408R,0.01625X0.00045*%
%ADD409R,0.01805X0.00045*%
%ADD410R,0.01490X0.00045*%
%ADD411R,0.01489X0.00045*%
%ADD412R,0.01580X0.00045*%
%ADD413R,0.02076X0.00045*%
%ADD414R,0.01715X0.00045*%
%ADD415R,0.29925X0.00045*%
%ADD416R,0.01806X0.00045*%
%ADD417R,0.01941X0.00045*%
%ADD418R,0.02257X0.00045*%
%ADD419R,0.02076X0.00045*%
%ADD420R,0.02347X0.00045*%
%ADD421R,0.02257X0.00045*%
%ADD422R,0.02212X0.00045*%
%ADD423R,0.02843X0.00045*%
%ADD424R,0.02528X0.00045*%
%ADD425R,0.02437X0.00045*%
%ADD426R,0.01399X0.00045*%
%ADD427R,0.02889X0.00045*%
%ADD428R,0.03114X0.00045*%
%ADD429R,0.02754X0.00045*%
%ADD430R,0.02843X0.00045*%
%ADD431R,0.02843X0.00045*%
%ADD432R,0.03069X0.00045*%
%ADD433R,0.03476X0.00045*%
%ADD434R,0.02889X0.00045*%
%ADD435R,0.04514X0.00045*%
%ADD436R,0.02708X0.00045*%
%ADD437R,0.01490X0.00045*%
%ADD438R,0.03250X0.00045*%
%ADD439R,0.02979X0.00045*%
%ADD440R,0.03611X0.00045*%
%ADD441R,0.04604X0.00045*%
%ADD442R,0.03520X0.00045*%
%ADD443R,0.03746X0.00045*%
%ADD444R,0.03159X0.00045*%
%ADD445R,0.04604X0.00045*%
%ADD446R,0.04198X0.00045*%
%ADD447R,0.03521X0.00045*%
%ADD448R,0.03972X0.00045*%
%ADD449R,0.03836X0.00045*%
%ADD450R,0.04243X0.00045*%
%ADD451R,0.01715X0.00045*%
%ADD452R,0.01805X0.00045*%
%ADD453R,0.01850X0.00045*%
%ADD454R,0.01128X0.00045*%
%ADD455R,0.01354X0.00045*%
%ADD456R,0.00902X0.00045*%
%ADD457R,0.00902X0.00045*%
%ADD458R,0.01309X0.00045*%
%ADD459R,0.02392X0.00045*%
%ADD460R,0.04559X0.00045*%
%ADD461R,0.02618X0.00045*%
%ADD462R,0.02076X0.00045*%
%ADD463R,0.02572X0.00045*%
%ADD464R,0.02933X0.00045*%
%ADD465R,0.02979X0.00045*%
%ADD466R,0.03476X0.00045*%
%ADD467R,0.03340X0.00045*%
%ADD468R,0.02618X0.00045*%
%ADD469R,0.02302X0.00045*%
%ADD470R,0.01806X0.00045*%
%ADD471R,0.02121X0.00045*%
%ADD472R,0.01129X0.00045*%
%ADD473R,0.01264X0.00045*%
%ADD474R,0.01444X0.00045*%
%ADD475R,0.01941X0.00045*%
%ADD476R,0.01580X0.00045*%
%ADD477R,0.03611X0.00045*%
%ADD478R,0.04243X0.00045*%
%ADD479R,0.03069X0.00045*%
%ADD480R,0.03115X0.00045*%
%ADD481R,0.03430X0.00045*%
%ADD482R,0.03115X0.00045*%
%ADD483R,0.03385X0.00045*%
%ADD484R,0.02933X0.00045*%
%ADD485R,0.03340X0.00045*%
%ADD486R,0.02844X0.00045*%
%ADD487R,0.01444X0.00045*%
%ADD488R,0.03204X0.00045*%
%ADD489R,0.02753X0.00045*%
%ADD490R,0.03250X0.00045*%
%ADD491R,0.02167X0.00045*%
%ADD492R,0.01851X0.00045*%
%ADD493R,0.02167X0.00045*%
%ADD494R,0.02211X0.00045*%
%ADD495R,0.00858X0.00045*%
%ADD496R,0.00722X0.00045*%
%ADD497R,0.00406X0.00045*%
%ADD498R,0.00270X0.00045*%
%ADD499R,0.00587X0.00045*%
%ADD500R,0.00587X0.00045*%
%ADD501R,0.00406X0.00045*%
%ADD502R,0.09343X0.00045*%
%ADD503R,0.09614X0.00045*%
%ADD504R,0.09298X0.00045*%
%ADD505R,0.09117X0.00045*%
%ADD506R,0.09163X0.00045*%
%ADD507R,0.09072X0.00045*%
%ADD508R,0.08937X0.00045*%
%ADD509R,0.08846X0.00045*%
%ADD510R,0.08892X0.00045*%
%ADD511R,0.08802X0.00045*%
%ADD512R,0.08621X0.00045*%
%ADD513R,0.08756X0.00045*%
%ADD514R,0.08711X0.00045*%
%ADD515R,0.08350X0.00045*%
%ADD516R,0.08666X0.00045*%
%ADD517R,0.08621X0.00045*%
%ADD518R,0.08170X0.00045*%
%ADD519R,0.08576X0.00045*%
%ADD520R,0.08485X0.00045*%
%ADD521R,0.07989X0.00045*%
%ADD522R,0.08441X0.00045*%
%ADD523R,0.07808X0.00045*%
%ADD524R,0.08395X0.00045*%
%ADD525R,0.07673X0.00045*%
%ADD526R,0.08305X0.00045*%
%ADD527R,0.08260X0.00045*%
%ADD528R,0.07537X0.00045*%
%ADD529R,0.08215X0.00045*%
%ADD530R,0.07402X0.00045*%
%ADD531R,0.08170X0.00045*%
%ADD532R,0.08124X0.00045*%
%ADD533R,0.07267X0.00045*%
%ADD534R,0.08079X0.00045*%
%ADD535R,0.07177X0.00045*%
%ADD536R,0.08034X0.00045*%
%ADD537R,0.07041X0.00045*%
%ADD538R,0.07989X0.00045*%
%ADD539R,0.07944X0.00045*%
%ADD540R,0.06951X0.00045*%
%ADD541R,0.07944X0.00045*%
%ADD542R,0.07899X0.00045*%
%ADD543R,0.06815X0.00045*%
%ADD544R,0.07854X0.00045*%
%ADD545R,0.06725X0.00045*%
%ADD546R,0.07809X0.00045*%
%ADD547R,0.06635X0.00045*%
%ADD548R,0.06544X0.00045*%
%ADD549R,0.07763X0.00045*%
%ADD550R,0.07763X0.00045*%
%ADD551R,0.06499X0.00045*%
%ADD552R,0.07718X0.00045*%
%ADD553R,0.06409X0.00045*%
%ADD554R,0.07673X0.00045*%
%ADD555R,0.06364X0.00045*%
%ADD556R,0.07628X0.00045*%
%ADD557R,0.06274X0.00045*%
%ADD558R,0.07628X0.00045*%
%ADD559R,0.06184X0.00045*%
%ADD560R,0.07583X0.00045*%
%ADD561R,0.07583X0.00045*%
%ADD562R,0.06139X0.00045*%
%ADD563R,0.07538X0.00045*%
%ADD564R,0.06093X0.00045*%
%ADD565R,0.07493X0.00045*%
%ADD566R,0.06003X0.00045*%
%ADD567R,0.07447X0.00045*%
%ADD568R,0.06003X0.00045*%
%ADD569R,0.07447X0.00045*%
%ADD570R,0.05913X0.00045*%
%ADD571R,0.07402X0.00045*%
%ADD572R,0.05822X0.00045*%
%ADD573R,0.07357X0.00045*%
%ADD574R,0.05822X0.00045*%
%ADD575R,0.05732X0.00045*%
%ADD576R,0.07312X0.00045*%
%ADD577R,0.07222X0.00045*%
%ADD578R,0.07222X0.00045*%
%ADD579R,0.05687X0.00045*%
%ADD580R,0.07176X0.00045*%
%ADD581R,0.07176X0.00045*%
%ADD582R,0.05642X0.00045*%
%ADD583R,0.07131X0.00045*%
%ADD584R,0.07131X0.00045*%
%ADD585R,0.05597X0.00045*%
%ADD586R,0.07086X0.00045*%
%ADD587R,0.05552X0.00045*%
%ADD588R,0.07041X0.00045*%
%ADD589R,0.06996X0.00045*%
%ADD590R,0.05461X0.00045*%
%ADD591R,0.06996X0.00045*%
%ADD592R,0.06951X0.00045*%
%ADD593R,0.06906X0.00045*%
%ADD594R,0.06906X0.00045*%
%ADD595R,0.05461X0.00045*%
%ADD596R,0.06860X0.00045*%
%ADD597R,0.06815X0.00045*%
%ADD598R,0.05371X0.00045*%
%ADD599R,0.06770X0.00045*%
%ADD600R,0.06770X0.00045*%
%ADD601R,0.06725X0.00045*%
%ADD602R,0.06680X0.00045*%
%ADD603R,0.06680X0.00045*%
%ADD604R,0.05281X0.00045*%
%ADD605R,0.06544X0.00045*%
%ADD606R,0.05281X0.00045*%
%ADD607R,0.06590X0.00045*%
%ADD608R,0.06500X0.00045*%
%ADD609R,0.06454X0.00045*%
%ADD610R,0.06454X0.00045*%
%ADD611R,0.05235X0.00045*%
%ADD612R,0.06364X0.00045*%
%ADD613R,0.05190X0.00045*%
%ADD614R,0.06409X0.00045*%
%ADD615R,0.06319X0.00045*%
%ADD616R,0.05190X0.00045*%
%ADD617R,0.06229X0.00045*%
%ADD618R,0.06183X0.00045*%
%ADD619R,0.06139X0.00045*%
%ADD620R,0.06048X0.00045*%
%ADD621R,0.05958X0.00045*%
%ADD622R,0.05913X0.00045*%
%ADD623R,0.05868X0.00045*%
%ADD624R,0.05777X0.00045*%
%ADD625R,0.05732X0.00045*%
%ADD626R,0.05687X0.00045*%
%ADD627R,0.05642X0.00045*%
%ADD628R,0.05642X0.00045*%
%ADD629R,0.05145X0.00045*%
%ADD630R,0.05552X0.00045*%
%ADD631R,0.05461X0.00045*%
%ADD632R,0.05145X0.00045*%
%ADD633R,0.05507X0.00045*%
%ADD634R,0.05416X0.00045*%
%ADD635R,0.05145X0.00045*%
%ADD636R,0.05371X0.00045*%
%ADD637R,0.05326X0.00045*%
%ADD638R,0.05236X0.00045*%
%ADD639R,0.05100X0.00045*%
%ADD640R,0.05055X0.00045*%
%ADD641R,0.05010X0.00045*%
%ADD642R,0.05010X0.00045*%
%ADD643R,0.04965X0.00045*%
%ADD644R,0.04920X0.00045*%
%ADD645R,0.05100X0.00045*%
%ADD646R,0.04830X0.00045*%
%ADD647R,0.05100X0.00045*%
%ADD648R,0.04739X0.00045*%
%ADD649R,0.04739X0.00045*%
%ADD650R,0.04694X0.00045*%
%ADD651R,0.04469X0.00045*%
%ADD652R,0.05055X0.00045*%
%ADD653R,0.04513X0.00045*%
%ADD654R,0.04378X0.00045*%
%ADD655R,0.04424X0.00045*%
%ADD656R,0.04333X0.00045*%
%ADD657R,0.04107X0.00045*%
%ADD658R,0.05010X0.00045*%
%ADD659R,0.04017X0.00045*%
%ADD660R,0.03927X0.00045*%
%ADD661R,0.03881X0.00045*%
%ADD662R,0.04965X0.00045*%
%ADD663R,0.03837X0.00045*%
%ADD664R,0.03746X0.00045*%
%ADD665R,0.04965X0.00045*%
%ADD666R,0.03701X0.00045*%
%ADD667R,0.03565X0.00045*%
%ADD668R,0.04874X0.00045*%
%ADD669R,0.04874X0.00045*%
%ADD670R,0.04874X0.00045*%
%ADD671R,0.04829X0.00045*%
%ADD672R,0.04829X0.00045*%
%ADD673R,0.04784X0.00045*%
%ADD674R,0.02572X0.00045*%
%ADD675R,0.04784X0.00045*%
%ADD676R,0.02483X0.00045*%
%ADD677R,0.02393X0.00045*%
%ADD678R,0.04694X0.00045*%
%ADD679R,0.04558X0.00045*%
%ADD680R,0.00813X0.00045*%
%ADD681R,0.00361X0.00045*%
%ADD682R,0.00406X0.00045*%
%ADD683R,0.04513X0.00045*%
%ADD684R,0.04468X0.00045*%
%ADD685R,0.04378X0.00045*%
%ADD686R,0.04333X0.00045*%
%ADD687R,0.04243X0.00045*%
%ADD688R,0.04197X0.00045*%
%ADD689R,0.04152X0.00045*%
%ADD690R,0.04107X0.00045*%
%ADD691R,0.04107X0.00045*%
%ADD692R,0.04062X0.00045*%
%ADD693R,0.03972X0.00045*%
%ADD694R,0.03926X0.00045*%
%ADD695R,0.03881X0.00045*%
%ADD696R,0.03836X0.00045*%
%ADD697R,0.03791X0.00045*%
%ADD698R,0.03701X0.00045*%
%ADD699R,0.03611X0.00045*%
%ADD700R,0.03340X0.00045*%
%ADD701R,0.03294X0.00045*%
%ADD702R,0.02933X0.00045*%
%ADD703R,0.02663X0.00045*%
%ADD704R,0.02302X0.00045*%
%ADD705R,0.02031X0.00045*%
%ADD706R,0.00316X0.00045*%
%ADD707C,0.00400*%
%ADD708C,0.00500*%
D10*
X0129904Y0050448D02*
X0132039Y0050448D01*
X0130971Y0050448D02*
X0130971Y0056853D01*
X0129904Y0056853D02*
X0132039Y0056853D01*
X0134201Y0054718D02*
X0137403Y0054718D01*
X0138471Y0053650D01*
X0138471Y0050448D01*
X0141714Y0051515D02*
X0142781Y0050448D01*
X0141714Y0051515D02*
X0141714Y0055786D01*
X0142781Y0054718D02*
X0140646Y0054718D01*
X0144943Y0053650D02*
X0144943Y0051515D01*
X0146011Y0050448D01*
X0148146Y0050448D01*
X0149213Y0052583D02*
X0144943Y0052583D01*
X0144943Y0053650D02*
X0146011Y0054718D01*
X0148146Y0054718D01*
X0149213Y0053650D01*
X0149213Y0052583D01*
X0151389Y0052583D02*
X0153524Y0054718D01*
X0154591Y0054718D01*
X0156760Y0053650D02*
X0158895Y0053650D01*
X0157827Y0055786D02*
X0157827Y0050448D01*
X0161057Y0051515D02*
X0162124Y0052583D01*
X0165327Y0052583D01*
X0165327Y0053650D02*
X0165327Y0050448D01*
X0162124Y0050448D01*
X0161057Y0051515D01*
X0164260Y0054718D02*
X0165327Y0053650D01*
X0164260Y0054718D02*
X0162124Y0054718D01*
X0158895Y0056853D02*
X0157827Y0055786D01*
X0155672Y0060948D02*
X0153537Y0060948D01*
X0154605Y0060948D02*
X0154605Y0067353D01*
X0155672Y0067353D02*
X0153537Y0067353D01*
X0151362Y0065218D02*
X0151362Y0060948D01*
X0147092Y0060948D02*
X0147092Y0065218D01*
X0149227Y0067353D01*
X0151362Y0065218D01*
X0151362Y0064150D02*
X0147092Y0064150D01*
X0144916Y0067353D02*
X0140646Y0067353D01*
X0140646Y0060948D01*
X0144916Y0060948D01*
X0142781Y0064150D02*
X0140646Y0064150D01*
X0138471Y0060948D02*
X0138471Y0067353D01*
X0136336Y0065218D01*
X0134201Y0067353D01*
X0134201Y0060948D01*
X0134201Y0054718D02*
X0134201Y0050448D01*
X0151389Y0050448D02*
X0151389Y0054718D01*
X0164280Y0064150D02*
X0168550Y0064150D01*
X0177171Y0063083D02*
X0180373Y0063083D01*
X0181441Y0064150D01*
X0181441Y0066286D01*
X0180373Y0067353D01*
X0177171Y0067353D01*
X0177171Y0060948D01*
X0177151Y0054718D02*
X0178218Y0053650D01*
X0178218Y0052583D01*
X0173948Y0052583D01*
X0173948Y0053650D02*
X0175015Y0054718D01*
X0177151Y0054718D01*
X0173948Y0053650D02*
X0173948Y0051515D01*
X0175015Y0050448D01*
X0177151Y0050448D01*
X0171773Y0050448D02*
X0168570Y0050448D01*
X0167502Y0051515D01*
X0167502Y0053650D01*
X0168570Y0054718D01*
X0171773Y0054718D01*
X0183616Y0060948D02*
X0187886Y0060948D01*
X0190062Y0060948D02*
X0190062Y0065218D01*
X0192197Y0067353D01*
X0194332Y0065218D01*
X0194332Y0060948D01*
X0193284Y0056853D02*
X0196487Y0056853D01*
X0197555Y0055786D01*
X0197555Y0054718D01*
X0196487Y0053650D01*
X0193284Y0053650D01*
X0191109Y0051515D02*
X0191109Y0055786D01*
X0190042Y0056853D01*
X0187906Y0056853D01*
X0186839Y0055786D01*
X0186839Y0051515D01*
X0187906Y0050448D01*
X0190042Y0050448D01*
X0191109Y0051515D01*
X0193284Y0050448D02*
X0196487Y0050448D01*
X0197555Y0051515D01*
X0197555Y0052583D01*
X0196487Y0053650D01*
X0193284Y0050448D02*
X0193284Y0056853D01*
X0199730Y0056853D02*
X0202933Y0056853D01*
X0204000Y0055786D01*
X0204000Y0051515D01*
X0202933Y0050448D01*
X0199730Y0050448D01*
X0199730Y0056853D01*
X0205088Y0060948D02*
X0202953Y0063083D01*
X0202953Y0065218D01*
X0205088Y0067353D01*
X0207250Y0066286D02*
X0208317Y0067353D01*
X0210452Y0067353D01*
X0211520Y0066286D01*
X0211520Y0065218D01*
X0207250Y0060948D01*
X0211520Y0060948D01*
X0213695Y0062015D02*
X0217965Y0066286D01*
X0217965Y0062015D01*
X0216898Y0060948D01*
X0214763Y0060948D01*
X0213695Y0062015D01*
X0213695Y0066286D01*
X0214763Y0067353D01*
X0216898Y0067353D01*
X0217965Y0066286D01*
X0220141Y0065218D02*
X0222276Y0067353D01*
X0222276Y0060948D01*
X0220141Y0060948D02*
X0224411Y0060948D01*
X0226586Y0060948D02*
X0226586Y0062015D01*
X0230856Y0066286D01*
X0230856Y0067353D01*
X0226586Y0067353D01*
X0233032Y0060948D02*
X0237302Y0067353D01*
X0239477Y0066286D02*
X0240545Y0067353D01*
X0242680Y0067353D01*
X0243747Y0066286D01*
X0243747Y0065218D01*
X0239477Y0060948D01*
X0243747Y0060948D01*
X0245923Y0062015D02*
X0250193Y0066286D01*
X0250193Y0062015D01*
X0249125Y0060948D01*
X0246990Y0060948D01*
X0245923Y0062015D01*
X0245923Y0066286D01*
X0246990Y0067353D01*
X0249125Y0067353D01*
X0250193Y0066286D01*
X0252368Y0065218D02*
X0254503Y0067353D01*
X0254503Y0060948D01*
X0252368Y0060948D02*
X0256638Y0060948D01*
X0258814Y0062015D02*
X0258814Y0063083D01*
X0259881Y0064150D01*
X0262016Y0064150D01*
X0263084Y0063083D01*
X0263084Y0062015D01*
X0262016Y0060948D01*
X0259881Y0060948D01*
X0258814Y0062015D01*
X0259881Y0064150D02*
X0258814Y0065218D01*
X0258814Y0066286D01*
X0259881Y0067353D01*
X0262016Y0067353D01*
X0263084Y0066286D01*
X0263084Y0065218D01*
X0262016Y0064150D01*
X0265259Y0067353D02*
X0267394Y0065218D01*
X0267394Y0063083D01*
X0265259Y0060948D01*
X0265259Y0056853D02*
X0267394Y0056853D01*
X0266327Y0056853D02*
X0266327Y0050448D01*
X0267394Y0050448D02*
X0265259Y0050448D01*
X0269556Y0050448D02*
X0271691Y0050448D01*
X0270624Y0050448D02*
X0270624Y0056853D01*
X0271691Y0056853D02*
X0269556Y0056853D01*
X0256645Y0054718D02*
X0255577Y0054718D01*
X0253442Y0052583D01*
X0253442Y0050448D02*
X0253442Y0054718D01*
X0251267Y0053650D02*
X0251267Y0050448D01*
X0248064Y0050448D01*
X0246997Y0051515D01*
X0248064Y0052583D01*
X0251267Y0052583D01*
X0251267Y0053650D02*
X0250200Y0054718D01*
X0248064Y0054718D01*
X0244822Y0054718D02*
X0241619Y0054718D01*
X0240551Y0053650D01*
X0240551Y0051515D01*
X0241619Y0050448D01*
X0244822Y0050448D01*
X0238376Y0051515D02*
X0237309Y0052583D01*
X0235173Y0052583D01*
X0234106Y0053650D01*
X0235173Y0054718D01*
X0238376Y0054718D01*
X0238376Y0051515D02*
X0237309Y0050448D01*
X0234106Y0050448D01*
X0231931Y0050448D02*
X0231931Y0053650D01*
X0230863Y0054718D01*
X0228728Y0054718D01*
X0228728Y0052583D02*
X0231931Y0052583D01*
X0231931Y0050448D02*
X0228728Y0050448D01*
X0227660Y0051515D01*
X0228728Y0052583D01*
X0225498Y0050448D02*
X0223363Y0050448D01*
X0224431Y0050448D02*
X0224431Y0056853D01*
X0223363Y0056853D01*
X0221201Y0054718D02*
X0219066Y0054718D01*
X0220134Y0055786D02*
X0220134Y0051515D01*
X0221201Y0050448D01*
X0216891Y0050448D02*
X0216891Y0054718D01*
X0214756Y0056853D01*
X0212621Y0054718D01*
X0212621Y0050448D01*
X0212621Y0053650D02*
X0216891Y0053650D01*
X0194332Y0064150D02*
X0190062Y0064150D01*
X0187886Y0067353D02*
X0183616Y0067353D01*
X0183616Y0060948D01*
X0183616Y0064150D02*
X0185751Y0064150D01*
D11*
X0053885Y0048207D03*
D12*
X0053885Y0048252D03*
D13*
X0053885Y0048297D03*
D14*
X0053885Y0048342D03*
D15*
X0053885Y0048387D03*
D16*
X0053885Y0048433D03*
D17*
X0053885Y0048478D03*
D18*
X0053885Y0048523D03*
D19*
X0053907Y0048568D03*
D20*
X0053885Y0048613D03*
D21*
X0053885Y0048658D03*
D22*
X0053907Y0048703D03*
D23*
X0053907Y0048748D03*
D24*
X0053885Y0048794D03*
D25*
X0053885Y0048839D03*
D26*
X0053908Y0048884D03*
D27*
X0053885Y0048929D03*
D28*
X0053885Y0048974D03*
D29*
X0053907Y0049019D03*
D30*
X0053885Y0049064D03*
D31*
X0053885Y0049110D03*
D32*
X0053908Y0049155D03*
D33*
X0053907Y0049200D03*
D34*
X0053885Y0049245D03*
D35*
X0053885Y0049290D03*
D36*
X0053885Y0049335D03*
D37*
X0053885Y0049380D03*
D38*
X0053885Y0049425D03*
D39*
X0053885Y0049471D03*
D40*
X0053885Y0049516D03*
D41*
X0053885Y0049561D03*
D42*
X0053885Y0049606D03*
D43*
X0053885Y0049651D03*
D44*
X0053908Y0049696D03*
D45*
X0053907Y0049741D03*
D46*
X0053885Y0049787D03*
D47*
X0053885Y0049832D03*
D48*
X0053885Y0049877D03*
D49*
X0053908Y0049922D03*
D50*
X0053885Y0049967D03*
D51*
X0053885Y0050012D03*
D52*
X0053885Y0050057D03*
D53*
X0046708Y0050103D03*
D54*
X0061332Y0050103D03*
D55*
X0046550Y0050148D03*
D56*
X0046031Y0050689D03*
X0045986Y0050780D03*
X0045941Y0050870D03*
X0061468Y0050148D03*
D57*
X0046460Y0050193D03*
D58*
X0045761Y0051231D03*
X0061558Y0050193D03*
D59*
X0046415Y0050238D03*
D60*
X0061603Y0050238D03*
D61*
X0046347Y0050283D03*
D62*
X0061671Y0050283D03*
D63*
X0046325Y0050328D03*
D64*
X0061716Y0050328D03*
D65*
X0046257Y0050373D03*
D66*
X0061761Y0050373D03*
D67*
X0046234Y0050418D03*
D68*
X0061806Y0050418D03*
D69*
X0046189Y0050464D03*
D70*
X0061829Y0050464D03*
D71*
X0046167Y0050509D03*
D72*
X0061874Y0050509D03*
D73*
X0046122Y0050554D03*
D74*
X0045512Y0051637D03*
X0061896Y0050554D03*
D75*
X0046099Y0050599D03*
D76*
X0061942Y0050599D03*
D77*
X0046054Y0050644D03*
D78*
X0061964Y0050644D03*
X0062099Y0050915D03*
D79*
X0061987Y0050689D03*
D80*
X0046009Y0050734D03*
D81*
X0062009Y0050734D03*
D82*
X0062054Y0050780D03*
D83*
X0045941Y0050825D03*
X0045896Y0050915D03*
X0045896Y0050960D03*
D84*
X0062054Y0050825D03*
D85*
X0062077Y0050870D03*
D86*
X0062122Y0050960D03*
X0045422Y0051773D03*
D87*
X0045873Y0051005D03*
D88*
X0062167Y0051005D03*
D89*
X0045828Y0051050D03*
D90*
X0062167Y0051050D03*
D91*
X0045828Y0051095D03*
D92*
X0045399Y0051818D03*
X0062190Y0051095D03*
X0062235Y0051186D03*
D93*
X0045806Y0051141D03*
D94*
X0062235Y0051141D03*
D95*
X0045761Y0051186D03*
D96*
X0062257Y0051231D03*
X0062303Y0051276D03*
D97*
X0045738Y0051276D03*
D98*
X0045693Y0051321D03*
D99*
X0062325Y0051321D03*
D100*
X0045670Y0051366D03*
D101*
X0062348Y0051366D03*
D102*
X0045648Y0051411D03*
D103*
X0062370Y0051411D03*
D104*
X0045625Y0051457D03*
D105*
X0062415Y0051457D03*
D106*
X0045580Y0051502D03*
D107*
X0062415Y0051502D03*
D108*
X0045558Y0051547D03*
D109*
X0045287Y0051953D03*
X0062438Y0051547D03*
D110*
X0045535Y0051592D03*
D111*
X0062460Y0051592D03*
D112*
X0062506Y0051637D03*
D113*
X0045490Y0051682D03*
D114*
X0062551Y0051682D03*
D115*
X0045445Y0051727D03*
D116*
X0062573Y0051727D03*
D117*
X0062596Y0051773D03*
D118*
X0062619Y0051818D03*
D119*
X0045354Y0051863D03*
D120*
X0062664Y0051863D03*
D121*
X0045332Y0051908D03*
D122*
X0062686Y0051908D03*
D123*
X0062754Y0051953D03*
D124*
X0045264Y0051998D03*
D125*
X0062777Y0051998D03*
D126*
X0045196Y0052043D03*
D127*
X0062822Y0052043D03*
D128*
X0045151Y0052088D03*
D129*
X0062867Y0052088D03*
D130*
X0045106Y0052134D03*
D131*
X0062912Y0052134D03*
D132*
X0045038Y0052179D03*
D133*
X0062980Y0052179D03*
D134*
X0044993Y0052224D03*
D135*
X0063025Y0052224D03*
D136*
X0044925Y0052269D03*
D137*
X0063093Y0052269D03*
D138*
X0044835Y0052314D03*
D139*
X0063183Y0052314D03*
D140*
X0075414Y0052314D03*
X0087736Y0052314D03*
X0108228Y0052314D03*
D141*
X0081056Y0052314D03*
D142*
X0090219Y0052314D03*
D143*
X0098140Y0052314D03*
D144*
X0044722Y0052359D03*
D145*
X0063295Y0052359D03*
D146*
X0075392Y0052359D03*
X0079680Y0053307D03*
X0087759Y0052359D03*
X0093220Y0052450D03*
X0103691Y0055609D03*
X0109785Y0056105D03*
X0109017Y0063688D03*
X0109017Y0063778D03*
X0105587Y0065764D03*
X0098772Y0063237D03*
X0091054Y0066171D03*
X0073857Y0063237D03*
X0121791Y0063237D03*
X0121926Y0066171D03*
D147*
X0124476Y0066171D03*
X0112019Y0062199D03*
X0111071Y0064185D03*
X0111251Y0066171D03*
X0108995Y0065674D03*
X0105700Y0065990D03*
X0100194Y0067118D03*
X0098884Y0065448D03*
X0095860Y0065448D03*
X0093604Y0066171D03*
X0099381Y0056331D03*
X0096763Y0053307D03*
X0098117Y0052359D03*
X0103714Y0055699D03*
X0109672Y0056241D03*
X0109672Y0053397D03*
X0090264Y0052450D03*
X0086743Y0053307D03*
X0087014Y0056331D03*
X0081056Y0052359D03*
X0077310Y0053804D03*
X0077310Y0055925D03*
X0074015Y0056105D03*
X0074105Y0053397D03*
X0076768Y0063372D03*
D148*
X0087984Y0063372D03*
X0088120Y0063778D03*
X0088165Y0063869D03*
X0088210Y0064004D03*
X0093987Y0054255D03*
X0093942Y0054120D03*
X0093807Y0053713D03*
X0093762Y0053623D03*
X0090241Y0052359D03*
D149*
X0089745Y0053488D03*
X0089745Y0055383D03*
X0089654Y0056421D03*
X0093220Y0052540D03*
X0096921Y0056421D03*
X0099268Y0056421D03*
X0103737Y0055790D03*
X0106761Y0053397D03*
X0106851Y0053307D03*
X0108205Y0052359D03*
X0109604Y0053307D03*
X0108972Y0063553D03*
X0108972Y0065764D03*
X0105768Y0066080D03*
X0105858Y0063147D03*
X0101706Y0064004D03*
X0101615Y0063056D03*
X0095883Y0065539D03*
X0093626Y0063056D03*
X0092363Y0062199D03*
X0081846Y0066171D03*
X0079815Y0056421D03*
X0077287Y0053713D03*
X0074128Y0056241D03*
X0112673Y0067118D03*
X0116239Y0065990D03*
X0116374Y0063147D03*
X0119489Y0063553D03*
X0119489Y0065764D03*
X0121971Y0063056D03*
X0123235Y0062199D03*
X0124499Y0063056D03*
D150*
X0041360Y0052404D03*
D151*
X0066433Y0052404D03*
D152*
X0075392Y0052404D03*
X0090151Y0052811D03*
X0093220Y0052811D03*
X0103827Y0055970D03*
X0101435Y0062966D03*
X0105993Y0066261D03*
X0108882Y0063327D03*
X0119398Y0063327D03*
X0095973Y0065810D03*
D153*
X0097260Y0066532D03*
X0100194Y0067073D03*
X0106106Y0062966D03*
X0108227Y0057234D03*
X0107144Y0056512D03*
X0105068Y0056692D03*
X0107099Y0053127D03*
X0098117Y0052404D03*
X0081056Y0052404D03*
X0077129Y0053352D03*
X0074466Y0053127D03*
X0079160Y0066216D03*
D154*
X0076633Y0063101D03*
X0074376Y0056467D03*
X0077175Y0053443D03*
X0080018Y0056512D03*
X0087781Y0052404D03*
X0089496Y0056512D03*
X0097079Y0056512D03*
X0099110Y0056512D03*
X0097034Y0053127D03*
X0105113Y0056783D03*
X0109401Y0056467D03*
X0108859Y0063282D03*
X0099020Y0065313D03*
X0119376Y0063282D03*
X0122129Y0062966D03*
D155*
X0109017Y0063733D03*
X0109017Y0065584D03*
X0109017Y0065629D03*
X0105722Y0063327D03*
X0106625Y0056060D03*
X0103691Y0055564D03*
X0099404Y0056286D03*
X0089790Y0055428D03*
X0090286Y0052404D03*
X0082343Y0056286D03*
X0079680Y0056286D03*
X0073993Y0056060D03*
X0109785Y0053533D03*
D156*
X0108228Y0052404D03*
X0105023Y0056467D03*
X0105023Y0056512D03*
X0112651Y0067073D03*
X0087465Y0062966D03*
X0079206Y0066261D03*
X0076543Y0063011D03*
X0077084Y0056376D03*
X0074467Y0056512D03*
D157*
X0041270Y0052450D03*
D158*
X0041247Y0062108D03*
X0066523Y0062108D03*
X0066523Y0052450D03*
D159*
X0075392Y0052450D03*
X0093220Y0053172D03*
X0105000Y0056421D03*
D160*
X0096402Y0055699D03*
X0094145Y0054751D03*
X0094055Y0054435D03*
X0094010Y0054345D03*
X0093920Y0054029D03*
X0093874Y0053939D03*
X0089858Y0056015D03*
X0088097Y0063688D03*
X0088233Y0064094D03*
X0088323Y0064320D03*
X0088323Y0064410D03*
X0088368Y0064501D03*
X0088458Y0064726D03*
X0090625Y0065448D03*
X0078845Y0066622D03*
X0078845Y0066712D03*
X0078845Y0066802D03*
X0078845Y0066938D03*
X0078845Y0067028D03*
X0079251Y0055383D03*
X0077445Y0052991D03*
X0077445Y0052856D03*
X0077445Y0052765D03*
X0077445Y0052675D03*
X0077445Y0052540D03*
X0077445Y0052450D03*
X0114501Y0062199D03*
X0114140Y0065674D03*
X0114140Y0065764D03*
X0121452Y0065268D03*
X0121497Y0065448D03*
D161*
X0112041Y0062289D03*
X0111545Y0064410D03*
X0096154Y0066080D03*
X0087262Y0054571D03*
X0089519Y0053172D03*
X0093220Y0053307D03*
X0081033Y0052450D03*
X0079273Y0066306D03*
D162*
X0087465Y0063056D03*
X0077039Y0056421D03*
X0087781Y0052450D03*
X0103985Y0056241D03*
X0108724Y0063056D03*
X0117570Y0062289D03*
X0119240Y0063056D03*
X0065304Y0077815D03*
X0052215Y0080343D03*
X0042466Y0077815D03*
D163*
X0098117Y0052450D03*
D164*
X0096538Y0053623D03*
X0096492Y0053713D03*
X0096447Y0053804D03*
X0096402Y0053939D03*
X0096538Y0056015D03*
X0094732Y0056421D03*
X0094687Y0056331D03*
X0094551Y0055925D03*
X0094507Y0055790D03*
X0094822Y0056737D03*
X0094868Y0056873D03*
X0092114Y0055293D03*
X0092159Y0055158D03*
X0092205Y0055067D03*
X0092295Y0054751D03*
X0092340Y0054661D03*
X0092430Y0054435D03*
X0092430Y0054345D03*
X0092475Y0054255D03*
X0092566Y0054029D03*
X0092701Y0053623D03*
X0089812Y0056241D03*
X0086788Y0055925D03*
X0086788Y0055790D03*
X0086653Y0054029D03*
X0086608Y0053939D03*
X0086608Y0053804D03*
X0086608Y0053713D03*
X0086608Y0053623D03*
X0082726Y0055474D03*
X0082681Y0055699D03*
X0082636Y0055790D03*
X0082591Y0055925D03*
X0082545Y0053488D03*
X0079431Y0053713D03*
X0079386Y0053804D03*
X0079296Y0054029D03*
X0079251Y0054255D03*
X0077400Y0054255D03*
X0077400Y0054345D03*
X0077400Y0055383D03*
X0077400Y0055474D03*
X0079521Y0056105D03*
X0075279Y0057279D03*
X0073744Y0055383D03*
X0073744Y0055293D03*
X0073699Y0055067D03*
X0073699Y0054977D03*
X0073699Y0054887D03*
X0073699Y0054751D03*
X0073699Y0054661D03*
X0073699Y0054571D03*
X0073744Y0054345D03*
X0073744Y0054255D03*
X0073834Y0053939D03*
X0073880Y0053804D03*
X0073744Y0063553D03*
X0073699Y0063778D03*
X0073699Y0063869D03*
X0073699Y0064004D03*
X0073699Y0064094D03*
X0073699Y0064185D03*
X0073699Y0064320D03*
X0073699Y0064410D03*
X0073699Y0064501D03*
X0073699Y0064636D03*
X0073699Y0064726D03*
X0073699Y0064817D03*
X0073699Y0064952D03*
X0073699Y0065042D03*
X0073699Y0065133D03*
X0073699Y0065268D03*
X0073699Y0065358D03*
X0073699Y0065448D03*
X0073699Y0065539D03*
X0073699Y0065674D03*
X0073699Y0065764D03*
X0073699Y0065855D03*
X0073699Y0065990D03*
X0073699Y0066080D03*
X0073699Y0066171D03*
X0073699Y0066306D03*
X0073699Y0066396D03*
X0073699Y0066487D03*
X0073699Y0066622D03*
X0073699Y0066712D03*
X0073699Y0066802D03*
X0073699Y0066938D03*
X0073699Y0067028D03*
X0076858Y0064004D03*
X0076858Y0063869D03*
X0076858Y0063778D03*
X0078890Y0065133D03*
X0078890Y0065268D03*
X0078890Y0065358D03*
X0078890Y0065448D03*
X0082049Y0065448D03*
X0082049Y0065358D03*
X0082049Y0065268D03*
X0082049Y0065133D03*
X0082049Y0065042D03*
X0082049Y0064952D03*
X0082049Y0064817D03*
X0082049Y0064726D03*
X0082049Y0064636D03*
X0082049Y0064501D03*
X0082049Y0064410D03*
X0082049Y0064320D03*
X0082049Y0064185D03*
X0082049Y0064094D03*
X0082049Y0064004D03*
X0082049Y0063869D03*
X0082049Y0063778D03*
X0082049Y0063688D03*
X0082049Y0063553D03*
X0082049Y0063462D03*
X0082049Y0063372D03*
X0082049Y0063237D03*
X0082049Y0063147D03*
X0082049Y0063056D03*
X0082049Y0062921D03*
X0082049Y0062831D03*
X0082049Y0062740D03*
X0082049Y0062605D03*
X0082049Y0062515D03*
X0082049Y0062424D03*
X0082049Y0062289D03*
X0084080Y0062289D03*
X0084080Y0062424D03*
X0084080Y0062515D03*
X0084080Y0062605D03*
X0084080Y0062740D03*
X0084080Y0062831D03*
X0084080Y0062921D03*
X0084080Y0063056D03*
X0084080Y0063147D03*
X0084080Y0063237D03*
X0084080Y0063372D03*
X0084080Y0063462D03*
X0084080Y0063553D03*
X0084080Y0063688D03*
X0084080Y0063778D03*
X0084080Y0063869D03*
X0084080Y0064004D03*
X0084080Y0064094D03*
X0084080Y0064185D03*
X0084080Y0064320D03*
X0084080Y0064410D03*
X0084080Y0064501D03*
X0084080Y0064636D03*
X0084080Y0064726D03*
X0084080Y0064817D03*
X0084080Y0064952D03*
X0084080Y0065042D03*
X0084080Y0065133D03*
X0084080Y0065268D03*
X0084080Y0065358D03*
X0084080Y0065448D03*
X0084080Y0065539D03*
X0084080Y0065674D03*
X0084080Y0065764D03*
X0084080Y0065855D03*
X0084080Y0065990D03*
X0084080Y0066080D03*
X0084080Y0066171D03*
X0084080Y0066306D03*
X0084080Y0066396D03*
X0084080Y0066487D03*
X0084080Y0066622D03*
X0084080Y0066712D03*
X0084080Y0066802D03*
X0084080Y0066938D03*
X0084080Y0067028D03*
X0084080Y0067976D03*
X0084080Y0068066D03*
X0084080Y0068202D03*
X0084080Y0068292D03*
X0084080Y0068382D03*
X0084080Y0068518D03*
X0084080Y0068608D03*
X0084080Y0068698D03*
X0084080Y0068834D03*
X0082049Y0065539D03*
X0086247Y0065448D03*
X0086382Y0065042D03*
X0086427Y0064952D03*
X0086472Y0064817D03*
X0086518Y0064726D03*
X0086518Y0064636D03*
X0086608Y0064410D03*
X0086653Y0064320D03*
X0086743Y0064004D03*
X0086788Y0063869D03*
X0086969Y0063372D03*
X0088864Y0065990D03*
X0088910Y0066080D03*
X0089000Y0066396D03*
X0089045Y0066487D03*
X0089135Y0066712D03*
X0089135Y0066802D03*
X0089181Y0066938D03*
X0090805Y0065855D03*
X0090895Y0065990D03*
X0092340Y0067118D03*
X0093920Y0065764D03*
X0094055Y0065358D03*
X0095770Y0064817D03*
X0095770Y0064726D03*
X0095770Y0064636D03*
X0095770Y0064501D03*
X0095770Y0064410D03*
X0095770Y0064320D03*
X0095770Y0064185D03*
X0095770Y0064094D03*
X0095770Y0064004D03*
X0095770Y0063869D03*
X0095770Y0063778D03*
X0095770Y0063688D03*
X0095770Y0063553D03*
X0095770Y0063462D03*
X0095770Y0063372D03*
X0095770Y0063237D03*
X0095770Y0063147D03*
X0095770Y0063056D03*
X0095770Y0062921D03*
X0095770Y0062831D03*
X0095770Y0062740D03*
X0095770Y0062605D03*
X0095770Y0062515D03*
X0095770Y0062424D03*
X0095770Y0062289D03*
X0098659Y0063553D03*
X0098614Y0063688D03*
X0098749Y0065674D03*
X0098749Y0065990D03*
X0101818Y0063778D03*
X0101818Y0063688D03*
X0101818Y0063372D03*
X0105429Y0064004D03*
X0105429Y0064094D03*
X0105474Y0063869D03*
X0105384Y0064320D03*
X0105384Y0064410D03*
X0105384Y0064817D03*
X0105384Y0064952D03*
X0105384Y0065042D03*
X0105429Y0065268D03*
X0105474Y0065448D03*
X0111071Y0065764D03*
X0110890Y0063869D03*
X0110890Y0063778D03*
X0110890Y0063372D03*
X0114095Y0063688D03*
X0114095Y0063778D03*
X0114095Y0063869D03*
X0114095Y0064004D03*
X0114095Y0064094D03*
X0114095Y0064185D03*
X0114095Y0064320D03*
X0114095Y0064410D03*
X0114095Y0064501D03*
X0114095Y0064636D03*
X0114095Y0065990D03*
X0114050Y0066080D03*
X0115991Y0065448D03*
X0115945Y0065268D03*
X0115945Y0065133D03*
X0115945Y0064094D03*
X0115945Y0064004D03*
X0115991Y0063869D03*
X0119601Y0064094D03*
X0119601Y0064185D03*
X0119601Y0065133D03*
X0119601Y0065268D03*
X0119601Y0066487D03*
X0119601Y0066622D03*
X0119601Y0066712D03*
X0119601Y0066802D03*
X0119601Y0066938D03*
X0119601Y0067028D03*
X0119601Y0067118D03*
X0119601Y0067254D03*
X0119601Y0067344D03*
X0119601Y0067434D03*
X0119601Y0067570D03*
X0119601Y0067660D03*
X0119601Y0067750D03*
X0119601Y0067886D03*
X0119601Y0067976D03*
X0119601Y0068066D03*
X0119601Y0068202D03*
X0119601Y0068292D03*
X0119601Y0068382D03*
X0119601Y0068518D03*
X0119601Y0068608D03*
X0119601Y0068698D03*
X0119601Y0068834D03*
X0123212Y0067118D03*
X0121678Y0065855D03*
X0121542Y0063688D03*
X0121633Y0063462D03*
X0124927Y0065268D03*
X0124792Y0065674D03*
X0109988Y0055699D03*
X0110123Y0055158D03*
X0110123Y0055067D03*
X0110123Y0054977D03*
X0110123Y0054887D03*
X0110123Y0054751D03*
X0110123Y0054661D03*
X0110123Y0054571D03*
X0110123Y0054435D03*
X0110033Y0054120D03*
X0109988Y0053939D03*
X0106467Y0053939D03*
X0106377Y0054255D03*
X0106377Y0054345D03*
X0106332Y0054435D03*
X0106332Y0054571D03*
X0106332Y0054661D03*
X0106332Y0054751D03*
X0106332Y0054887D03*
X0106332Y0054977D03*
X0106332Y0055067D03*
X0106332Y0055158D03*
X0106377Y0055293D03*
X0106377Y0055383D03*
X0106467Y0055699D03*
X0103624Y0055158D03*
X0103624Y0055067D03*
X0103624Y0054977D03*
X0101547Y0054977D03*
X0101547Y0054887D03*
X0101547Y0054751D03*
X0101547Y0054661D03*
X0101547Y0054571D03*
X0101547Y0054435D03*
X0101547Y0054345D03*
X0101547Y0054255D03*
X0101547Y0054120D03*
X0101547Y0054029D03*
X0101547Y0053939D03*
X0101547Y0053804D03*
X0101547Y0053713D03*
X0101547Y0053623D03*
X0101547Y0053488D03*
X0101547Y0053397D03*
X0101547Y0053307D03*
X0101547Y0053172D03*
X0101547Y0053081D03*
X0101547Y0052991D03*
X0101547Y0052856D03*
X0101547Y0052765D03*
X0101547Y0052675D03*
X0101547Y0052540D03*
X0101547Y0052450D03*
X0099697Y0053623D03*
X0099833Y0055293D03*
X0099833Y0055383D03*
X0099787Y0055609D03*
X0099742Y0055699D03*
X0099652Y0055925D03*
X0099607Y0056015D03*
X0101547Y0056015D03*
X0101547Y0055925D03*
X0101547Y0055790D03*
X0101547Y0055699D03*
X0101547Y0055609D03*
X0101547Y0055474D03*
X0101547Y0055383D03*
X0101547Y0055293D03*
X0101547Y0055158D03*
X0101547Y0055067D03*
X0101547Y0056105D03*
X0101547Y0056241D03*
X0101547Y0056331D03*
X0101547Y0056421D03*
X0101547Y0056557D03*
X0101547Y0056647D03*
X0101547Y0056737D03*
X0101547Y0056873D03*
X0101547Y0056963D03*
X0101547Y0057053D03*
X0101547Y0057189D03*
X0101547Y0058137D03*
X0101547Y0058227D03*
X0101547Y0058317D03*
X0101547Y0058452D03*
X0101547Y0058543D03*
X0101547Y0058633D03*
X0101547Y0058723D03*
X0101547Y0058859D03*
X0101547Y0058949D03*
X0101547Y0059039D03*
X0090715Y0063553D03*
X0090670Y0063688D03*
D165*
X0090647Y0063778D03*
X0090602Y0063869D03*
X0090602Y0064004D03*
X0090557Y0064094D03*
X0090557Y0064185D03*
X0090557Y0064320D03*
X0090557Y0065133D03*
X0090602Y0065358D03*
X0090647Y0065539D03*
X0090693Y0065674D03*
X0088932Y0066171D03*
X0088797Y0065764D03*
X0088752Y0065674D03*
X0088707Y0065539D03*
X0088707Y0065448D03*
X0088661Y0065358D03*
X0088616Y0065268D03*
X0088571Y0065133D03*
X0088526Y0064952D03*
X0088481Y0064817D03*
X0086720Y0064094D03*
X0086856Y0063688D03*
X0086901Y0063553D03*
X0093942Y0063462D03*
X0093987Y0063553D03*
X0094078Y0065133D03*
X0094078Y0065268D03*
X0093987Y0065539D03*
X0093942Y0065674D03*
X0095748Y0066171D03*
X0095748Y0066306D03*
X0095748Y0066396D03*
X0095748Y0066487D03*
X0095748Y0066622D03*
X0095748Y0066712D03*
X0095748Y0066802D03*
X0095748Y0066938D03*
X0095748Y0067028D03*
X0097553Y0067028D03*
X0098726Y0065855D03*
X0098726Y0065764D03*
X0101841Y0063553D03*
X0101841Y0063462D03*
X0103556Y0063462D03*
X0103556Y0063372D03*
X0103556Y0063237D03*
X0103556Y0063147D03*
X0103556Y0063056D03*
X0103556Y0062921D03*
X0103556Y0062831D03*
X0103556Y0062740D03*
X0103556Y0062605D03*
X0103556Y0062515D03*
X0103556Y0062424D03*
X0103556Y0062289D03*
X0103556Y0063553D03*
X0103556Y0063688D03*
X0103556Y0063778D03*
X0103556Y0063869D03*
X0103556Y0064004D03*
X0103556Y0064094D03*
X0103556Y0064185D03*
X0103556Y0064320D03*
X0103556Y0064410D03*
X0103556Y0064501D03*
X0103556Y0064636D03*
X0103556Y0064726D03*
X0103556Y0064817D03*
X0103556Y0064952D03*
X0103556Y0065042D03*
X0103556Y0065133D03*
X0103556Y0065268D03*
X0103556Y0065358D03*
X0103556Y0065448D03*
X0103556Y0065539D03*
X0103556Y0065674D03*
X0103556Y0065764D03*
X0103556Y0065855D03*
X0103556Y0065990D03*
X0103556Y0066080D03*
X0103556Y0066171D03*
X0103556Y0066306D03*
X0103556Y0066396D03*
X0103556Y0066487D03*
X0103556Y0066622D03*
X0103556Y0066712D03*
X0103556Y0066802D03*
X0103556Y0066938D03*
X0103556Y0067028D03*
X0103556Y0067976D03*
X0103556Y0068066D03*
X0103556Y0068202D03*
X0103556Y0068292D03*
X0103556Y0068382D03*
X0103556Y0068518D03*
X0103556Y0068608D03*
X0103556Y0068698D03*
X0103556Y0068834D03*
X0106941Y0067118D03*
X0105361Y0064726D03*
X0105361Y0064636D03*
X0105361Y0064501D03*
X0109108Y0064501D03*
X0109108Y0064410D03*
X0109108Y0064320D03*
X0109108Y0064636D03*
X0109108Y0064726D03*
X0109108Y0064817D03*
X0109108Y0064952D03*
X0109108Y0065042D03*
X0111048Y0065674D03*
X0110868Y0063688D03*
X0110868Y0063553D03*
X0110868Y0063462D03*
X0109108Y0062831D03*
X0109108Y0062740D03*
X0109108Y0062605D03*
X0109108Y0062515D03*
X0109108Y0062424D03*
X0109108Y0062289D03*
X0114118Y0065448D03*
X0114118Y0065539D03*
X0114118Y0065855D03*
X0115923Y0064185D03*
X0117458Y0067118D03*
X0119624Y0065042D03*
X0119624Y0064952D03*
X0119624Y0064817D03*
X0119624Y0064726D03*
X0119624Y0064636D03*
X0119624Y0064501D03*
X0119624Y0064410D03*
X0119624Y0064320D03*
X0119624Y0062831D03*
X0119624Y0062740D03*
X0119624Y0062605D03*
X0119624Y0062515D03*
X0121520Y0063778D03*
X0121430Y0064094D03*
X0121430Y0064185D03*
X0121430Y0064320D03*
X0121430Y0065133D03*
X0121520Y0065539D03*
X0121565Y0065674D03*
X0121610Y0065764D03*
X0124860Y0065539D03*
X0124905Y0065358D03*
X0124950Y0065133D03*
X0124905Y0063688D03*
X0124860Y0063553D03*
X0124815Y0063462D03*
X0105361Y0057189D03*
X0103601Y0054887D03*
X0103601Y0054751D03*
X0103601Y0054661D03*
X0103601Y0054571D03*
X0103601Y0054435D03*
X0103601Y0054345D03*
X0103601Y0054255D03*
X0103601Y0054120D03*
X0103601Y0054029D03*
X0103601Y0053939D03*
X0103601Y0053804D03*
X0103601Y0053713D03*
X0103601Y0053623D03*
X0103601Y0053488D03*
X0103601Y0053397D03*
X0103601Y0053307D03*
X0103601Y0053172D03*
X0103601Y0053081D03*
X0103601Y0052991D03*
X0103601Y0052856D03*
X0103601Y0052765D03*
X0103601Y0052675D03*
X0103601Y0052540D03*
X0103601Y0052450D03*
X0099765Y0053804D03*
X0099810Y0055474D03*
X0096515Y0055925D03*
X0096380Y0055609D03*
X0096334Y0055474D03*
X0096334Y0055383D03*
X0096334Y0055293D03*
X0096289Y0054435D03*
X0096334Y0054345D03*
X0096334Y0054255D03*
X0096334Y0054120D03*
X0096380Y0054029D03*
X0094123Y0054661D03*
X0094258Y0055067D03*
X0094303Y0055158D03*
X0094348Y0055293D03*
X0094394Y0055474D03*
X0094439Y0055609D03*
X0094484Y0055699D03*
X0094574Y0056015D03*
X0094619Y0056105D03*
X0092588Y0053939D03*
X0092678Y0053713D03*
X0089880Y0055699D03*
X0089880Y0055790D03*
X0089880Y0055925D03*
X0089835Y0056105D03*
X0082749Y0055383D03*
X0082704Y0055609D03*
X0082704Y0053804D03*
X0082613Y0053623D03*
X0079319Y0053939D03*
X0079273Y0054120D03*
X0079273Y0055474D03*
X0079319Y0055699D03*
X0079409Y0055925D03*
X0077423Y0055293D03*
X0077423Y0055158D03*
X0077423Y0055067D03*
X0077423Y0054977D03*
X0077423Y0054887D03*
X0077423Y0054751D03*
X0077423Y0054661D03*
X0077423Y0054571D03*
X0077423Y0054435D03*
X0077423Y0056647D03*
X0077423Y0056737D03*
X0077423Y0056873D03*
X0077423Y0056963D03*
X0077423Y0057053D03*
X0077423Y0057189D03*
X0077423Y0057279D03*
X0077423Y0057369D03*
X0077423Y0057505D03*
X0077423Y0057595D03*
X0077423Y0057685D03*
X0077423Y0057821D03*
X0077423Y0057911D03*
X0077423Y0058001D03*
X0077423Y0058137D03*
X0077423Y0058227D03*
X0077423Y0058317D03*
X0077423Y0058452D03*
X0077423Y0058543D03*
X0077423Y0058633D03*
X0077423Y0058723D03*
X0077423Y0058859D03*
X0077423Y0058949D03*
X0077423Y0059039D03*
X0073722Y0055158D03*
X0073722Y0054435D03*
X0076881Y0062289D03*
X0076881Y0062424D03*
X0076881Y0062515D03*
X0076881Y0062605D03*
X0076881Y0062740D03*
X0076881Y0062831D03*
X0076881Y0064094D03*
X0076881Y0064185D03*
X0076881Y0064320D03*
X0076881Y0064410D03*
X0076881Y0064501D03*
X0076881Y0064636D03*
X0076881Y0064726D03*
X0076881Y0064817D03*
X0076881Y0064952D03*
X0076881Y0065042D03*
X0076881Y0065133D03*
X0076881Y0065268D03*
X0076881Y0065358D03*
X0076881Y0065448D03*
X0076881Y0065539D03*
X0076881Y0065674D03*
X0076881Y0065764D03*
X0076881Y0065855D03*
X0076881Y0065990D03*
X0076881Y0066080D03*
X0076881Y0066171D03*
X0076881Y0066306D03*
X0076881Y0066396D03*
X0076881Y0066487D03*
X0076881Y0066622D03*
X0076881Y0066712D03*
X0076881Y0066802D03*
X0076881Y0066938D03*
X0076881Y0067028D03*
X0078867Y0066487D03*
X0078867Y0066396D03*
X0078867Y0065042D03*
X0078867Y0064952D03*
X0078867Y0064817D03*
X0078867Y0064726D03*
X0078867Y0064636D03*
X0078867Y0064501D03*
X0078867Y0064410D03*
X0078867Y0064320D03*
X0078867Y0064185D03*
X0078867Y0064094D03*
X0078867Y0064004D03*
X0078867Y0063869D03*
X0078867Y0063778D03*
X0078867Y0063688D03*
X0078867Y0063553D03*
X0078867Y0063462D03*
X0078867Y0063372D03*
X0078867Y0063237D03*
X0078867Y0063147D03*
X0078867Y0063056D03*
X0078867Y0062921D03*
X0078867Y0062831D03*
X0078867Y0062740D03*
X0078867Y0062605D03*
X0078867Y0062515D03*
X0078867Y0062424D03*
X0078867Y0062289D03*
X0054133Y0059897D03*
D166*
X0106964Y0066938D03*
X0108228Y0052450D03*
D167*
X0123190Y0064546D03*
X0123190Y0064591D03*
X0123190Y0064681D03*
X0123190Y0064862D03*
X0092317Y0064681D03*
X0092317Y0064591D03*
X0092317Y0064546D03*
X0065643Y0076507D03*
X0041224Y0052495D03*
D168*
X0041202Y0062063D03*
X0066568Y0062063D03*
X0066568Y0052495D03*
X0081011Y0054616D03*
X0081011Y0054706D03*
X0081011Y0054932D03*
X0081011Y0055022D03*
X0081011Y0055113D03*
X0081011Y0055203D03*
X0092340Y0064862D03*
X0092340Y0064907D03*
X0092340Y0064997D03*
X0098072Y0055203D03*
X0098072Y0055113D03*
X0098072Y0054706D03*
X0098072Y0054616D03*
X0112831Y0062785D03*
X0123212Y0064907D03*
X0123212Y0064997D03*
D169*
X0075369Y0052495D03*
D170*
X0077445Y0052495D03*
X0077445Y0052585D03*
X0077445Y0052720D03*
X0077445Y0052811D03*
X0077445Y0052901D03*
X0077445Y0053036D03*
X0079341Y0055744D03*
X0082681Y0053758D03*
X0089858Y0056060D03*
X0094055Y0054481D03*
X0094010Y0054300D03*
X0093920Y0054074D03*
X0093784Y0053668D03*
X0094145Y0054706D03*
X0094281Y0055113D03*
X0096312Y0055248D03*
X0088187Y0063914D03*
X0088187Y0063959D03*
X0088233Y0064049D03*
X0088323Y0064365D03*
X0078845Y0066577D03*
X0078845Y0066757D03*
X0078845Y0066848D03*
X0078845Y0066893D03*
X0114140Y0065810D03*
X0114140Y0065629D03*
X0114140Y0065584D03*
X0121452Y0065313D03*
X0124882Y0063643D03*
D171*
X0081033Y0057098D03*
X0081033Y0052495D03*
D172*
X0087804Y0052495D03*
X0112041Y0062334D03*
D173*
X0111139Y0064230D03*
X0111319Y0066216D03*
X0108972Y0065810D03*
X0113982Y0065223D03*
X0113982Y0063282D03*
X0114479Y0062334D03*
X0119489Y0065810D03*
X0122016Y0066261D03*
X0121926Y0063101D03*
X0109649Y0056286D03*
X0106806Y0056286D03*
X0105226Y0057008D03*
X0103737Y0055744D03*
X0106806Y0053352D03*
X0109649Y0053352D03*
X0099313Y0056376D03*
X0093220Y0052585D03*
X0090241Y0052495D03*
X0086856Y0054390D03*
X0087037Y0056376D03*
X0082252Y0056376D03*
X0082297Y0053217D03*
X0077287Y0053668D03*
X0077287Y0055970D03*
X0074083Y0056196D03*
X0074173Y0053352D03*
X0073947Y0063101D03*
X0076746Y0063327D03*
X0079002Y0065900D03*
X0080943Y0067073D03*
X0087443Y0062379D03*
X0091054Y0063101D03*
X0095883Y0065494D03*
X0097418Y0066848D03*
X0098862Y0063101D03*
X0101660Y0064049D03*
X0101435Y0066216D03*
X0052012Y0080478D03*
D174*
X0076768Y0063417D03*
X0077310Y0055880D03*
X0077310Y0053758D03*
X0079792Y0056376D03*
X0089767Y0053533D03*
X0093197Y0052495D03*
X0096853Y0056376D03*
X0099381Y0053217D03*
X0103714Y0055654D03*
X0106738Y0056196D03*
X0106738Y0053443D03*
X0105745Y0063282D03*
X0105700Y0065945D03*
X0108995Y0063643D03*
X0108995Y0063598D03*
X0111026Y0063101D03*
X0113914Y0066261D03*
X0116216Y0065945D03*
X0119511Y0063643D03*
X0119511Y0063598D03*
X0121949Y0066216D03*
X0124431Y0066216D03*
X0098884Y0066261D03*
X0093558Y0066216D03*
X0093694Y0063101D03*
D175*
X0098117Y0052495D03*
X0108588Y0062966D03*
X0119105Y0062966D03*
X0080921Y0066893D03*
X0076904Y0056512D03*
X0076904Y0053127D03*
D176*
X0077400Y0054165D03*
X0077400Y0054300D03*
X0077400Y0055338D03*
X0077400Y0055428D03*
X0077400Y0055519D03*
X0079521Y0056060D03*
X0079567Y0056151D03*
X0079386Y0053758D03*
X0079431Y0053668D03*
X0082591Y0053533D03*
X0082636Y0053668D03*
X0082726Y0055519D03*
X0082681Y0055654D03*
X0082636Y0055835D03*
X0082591Y0055880D03*
X0082545Y0055970D03*
X0086788Y0055880D03*
X0086788Y0055835D03*
X0086653Y0054074D03*
X0086653Y0053984D03*
X0086608Y0053849D03*
X0086608Y0053758D03*
X0086608Y0053668D03*
X0089812Y0056196D03*
X0092024Y0055564D03*
X0092069Y0055428D03*
X0092159Y0055203D03*
X0092205Y0055022D03*
X0092295Y0054797D03*
X0092340Y0054706D03*
X0092340Y0054616D03*
X0092430Y0054390D03*
X0092475Y0054300D03*
X0092566Y0053984D03*
X0092611Y0053849D03*
X0092656Y0053758D03*
X0094597Y0056060D03*
X0094642Y0056196D03*
X0094687Y0056376D03*
X0094732Y0056467D03*
X0094732Y0056512D03*
X0094822Y0056692D03*
X0094822Y0056783D03*
X0094868Y0056828D03*
X0094868Y0056918D03*
X0094958Y0057098D03*
X0094958Y0057144D03*
X0096583Y0056060D03*
X0096447Y0053758D03*
X0096492Y0053668D03*
X0099652Y0053533D03*
X0099833Y0055248D03*
X0099833Y0055338D03*
X0099787Y0055564D03*
X0099742Y0055744D03*
X0099697Y0055835D03*
X0099697Y0055880D03*
X0101547Y0055880D03*
X0101547Y0055835D03*
X0101547Y0055744D03*
X0101547Y0055654D03*
X0101547Y0055564D03*
X0101547Y0055519D03*
X0101547Y0055428D03*
X0101547Y0055338D03*
X0101547Y0055248D03*
X0101547Y0055203D03*
X0101547Y0055113D03*
X0101547Y0055022D03*
X0101547Y0054932D03*
X0101547Y0054797D03*
X0101547Y0054706D03*
X0101547Y0054616D03*
X0101547Y0054481D03*
X0101547Y0054390D03*
X0101547Y0054300D03*
X0101547Y0054165D03*
X0101547Y0054074D03*
X0101547Y0053984D03*
X0101547Y0053849D03*
X0101547Y0053758D03*
X0101547Y0053668D03*
X0101547Y0053533D03*
X0101547Y0053443D03*
X0101547Y0053352D03*
X0101547Y0053217D03*
X0101547Y0053127D03*
X0101547Y0053036D03*
X0101547Y0052901D03*
X0101547Y0052811D03*
X0101547Y0052720D03*
X0101547Y0052585D03*
X0101547Y0052495D03*
X0103624Y0054932D03*
X0103624Y0055022D03*
X0103624Y0055113D03*
X0103624Y0055203D03*
X0101547Y0055970D03*
X0101547Y0056060D03*
X0101547Y0056151D03*
X0101547Y0056196D03*
X0101547Y0056286D03*
X0101547Y0056376D03*
X0101547Y0056467D03*
X0101547Y0056512D03*
X0101547Y0056602D03*
X0101547Y0056692D03*
X0101547Y0056783D03*
X0101547Y0056828D03*
X0101547Y0056918D03*
X0101547Y0057008D03*
X0101547Y0057098D03*
X0101547Y0057144D03*
X0101547Y0058091D03*
X0101547Y0058182D03*
X0101547Y0058272D03*
X0101547Y0058362D03*
X0101547Y0058407D03*
X0101547Y0058498D03*
X0101547Y0058588D03*
X0101547Y0058678D03*
X0101547Y0058814D03*
X0101547Y0058904D03*
X0101547Y0058994D03*
X0105339Y0057144D03*
X0106377Y0055428D03*
X0106377Y0055338D03*
X0106332Y0055203D03*
X0106332Y0055113D03*
X0106332Y0055022D03*
X0106332Y0054932D03*
X0106332Y0054797D03*
X0106332Y0054706D03*
X0106332Y0054616D03*
X0106332Y0054481D03*
X0106377Y0054300D03*
X0110033Y0054074D03*
X0110123Y0054481D03*
X0110123Y0054616D03*
X0110123Y0054706D03*
X0110123Y0054797D03*
X0110123Y0054932D03*
X0110123Y0055022D03*
X0110123Y0055113D03*
X0110033Y0055519D03*
X0110033Y0055564D03*
X0110890Y0063327D03*
X0110890Y0063417D03*
X0110936Y0063959D03*
X0111026Y0065629D03*
X0111071Y0065810D03*
X0111116Y0065945D03*
X0114095Y0064591D03*
X0114095Y0064546D03*
X0114095Y0064365D03*
X0114095Y0064275D03*
X0114095Y0064230D03*
X0114095Y0064049D03*
X0114095Y0063959D03*
X0114095Y0063914D03*
X0114095Y0063733D03*
X0114095Y0063643D03*
X0115945Y0064049D03*
X0115991Y0063914D03*
X0115945Y0065178D03*
X0115945Y0065223D03*
X0119601Y0065223D03*
X0119601Y0065178D03*
X0119601Y0064230D03*
X0119601Y0064049D03*
X0121407Y0064365D03*
X0121633Y0065810D03*
X0121678Y0065900D03*
X0119601Y0066532D03*
X0119601Y0066577D03*
X0119601Y0066757D03*
X0119601Y0066848D03*
X0119601Y0066893D03*
X0119601Y0067073D03*
X0119601Y0067164D03*
X0119601Y0067209D03*
X0119601Y0067389D03*
X0119601Y0067480D03*
X0119601Y0067525D03*
X0119601Y0067705D03*
X0119601Y0067795D03*
X0119601Y0067841D03*
X0119601Y0068021D03*
X0119601Y0068111D03*
X0119601Y0068157D03*
X0119601Y0068337D03*
X0119601Y0068427D03*
X0119601Y0068472D03*
X0119601Y0068653D03*
X0119601Y0068743D03*
X0119601Y0068788D03*
X0124837Y0065629D03*
X0124837Y0065584D03*
X0124927Y0065313D03*
X0124792Y0063417D03*
X0124702Y0063282D03*
X0105520Y0063733D03*
X0105474Y0063914D03*
X0105429Y0063959D03*
X0105429Y0064049D03*
X0105384Y0064230D03*
X0105384Y0064275D03*
X0105384Y0064365D03*
X0105384Y0064862D03*
X0105384Y0064907D03*
X0105384Y0064997D03*
X0105429Y0065178D03*
X0105429Y0065223D03*
X0105429Y0065313D03*
X0101818Y0063733D03*
X0101818Y0063417D03*
X0101818Y0063327D03*
X0101773Y0063282D03*
X0098659Y0063598D03*
X0098614Y0063643D03*
X0098614Y0063733D03*
X0095770Y0063733D03*
X0095770Y0063643D03*
X0095770Y0063598D03*
X0095770Y0063417D03*
X0095770Y0063327D03*
X0095770Y0063282D03*
X0095770Y0063101D03*
X0095770Y0063011D03*
X0095770Y0062966D03*
X0095770Y0062785D03*
X0095770Y0062695D03*
X0095770Y0062650D03*
X0095770Y0062470D03*
X0095770Y0062379D03*
X0095770Y0062334D03*
X0095770Y0063914D03*
X0095770Y0063959D03*
X0095770Y0064049D03*
X0095770Y0064230D03*
X0095770Y0064275D03*
X0095770Y0064365D03*
X0095770Y0064546D03*
X0095770Y0064591D03*
X0095770Y0064681D03*
X0094055Y0065313D03*
X0094010Y0065494D03*
X0093965Y0065629D03*
X0093875Y0065810D03*
X0093920Y0063417D03*
X0093875Y0063327D03*
X0090805Y0063417D03*
X0090715Y0063598D03*
X0090580Y0064049D03*
X0090851Y0065900D03*
X0090851Y0065945D03*
X0089045Y0066441D03*
X0089045Y0066532D03*
X0089135Y0066757D03*
X0089181Y0066848D03*
X0089181Y0066893D03*
X0088955Y0066261D03*
X0088955Y0066216D03*
X0088910Y0066125D03*
X0088864Y0065945D03*
X0088820Y0065810D03*
X0086337Y0065223D03*
X0086337Y0065178D03*
X0086292Y0065313D03*
X0086427Y0064907D03*
X0086518Y0064681D03*
X0086608Y0064365D03*
X0086653Y0064275D03*
X0086743Y0064049D03*
X0086788Y0063914D03*
X0086879Y0063643D03*
X0084080Y0063643D03*
X0084080Y0063598D03*
X0084080Y0063733D03*
X0084080Y0063914D03*
X0084080Y0063959D03*
X0084080Y0064049D03*
X0084080Y0064230D03*
X0084080Y0064275D03*
X0084080Y0064365D03*
X0084080Y0064546D03*
X0084080Y0064591D03*
X0084080Y0064681D03*
X0084080Y0064862D03*
X0084080Y0064907D03*
X0084080Y0064997D03*
X0084080Y0065178D03*
X0084080Y0065223D03*
X0084080Y0065313D03*
X0084080Y0065494D03*
X0084080Y0065584D03*
X0084080Y0065629D03*
X0084080Y0065810D03*
X0084080Y0065900D03*
X0084080Y0065945D03*
X0084080Y0066125D03*
X0084080Y0066216D03*
X0084080Y0066261D03*
X0084080Y0066441D03*
X0084080Y0066532D03*
X0084080Y0066577D03*
X0084080Y0066757D03*
X0084080Y0066848D03*
X0084080Y0066893D03*
X0084080Y0068021D03*
X0084080Y0068111D03*
X0084080Y0068157D03*
X0084080Y0068337D03*
X0084080Y0068427D03*
X0084080Y0068472D03*
X0084080Y0068653D03*
X0084080Y0068743D03*
X0084080Y0068788D03*
X0082049Y0065629D03*
X0082049Y0065584D03*
X0082049Y0065494D03*
X0082049Y0065313D03*
X0082049Y0065223D03*
X0082049Y0065178D03*
X0082049Y0064997D03*
X0082049Y0064907D03*
X0082049Y0064862D03*
X0082049Y0064681D03*
X0082049Y0064591D03*
X0082049Y0064546D03*
X0082049Y0064365D03*
X0082049Y0064275D03*
X0082049Y0064230D03*
X0082049Y0064049D03*
X0082049Y0063959D03*
X0082049Y0063914D03*
X0082049Y0063733D03*
X0082049Y0063643D03*
X0082049Y0063598D03*
X0082049Y0063417D03*
X0082049Y0063327D03*
X0082049Y0063282D03*
X0082049Y0063101D03*
X0082049Y0063011D03*
X0082049Y0062966D03*
X0082049Y0062785D03*
X0082049Y0062695D03*
X0082049Y0062650D03*
X0082049Y0062470D03*
X0082049Y0062379D03*
X0082049Y0062334D03*
X0084080Y0062334D03*
X0084080Y0062379D03*
X0084080Y0062470D03*
X0084080Y0062650D03*
X0084080Y0062695D03*
X0084080Y0062785D03*
X0084080Y0062966D03*
X0084080Y0063011D03*
X0084080Y0063101D03*
X0084080Y0063282D03*
X0084080Y0063327D03*
X0084080Y0063417D03*
X0078890Y0065178D03*
X0078890Y0065223D03*
X0078890Y0065313D03*
X0076858Y0064049D03*
X0076858Y0063959D03*
X0076858Y0063914D03*
X0073744Y0063643D03*
X0073744Y0063598D03*
X0073699Y0063733D03*
X0073699Y0063914D03*
X0073699Y0063959D03*
X0073699Y0064049D03*
X0073699Y0064230D03*
X0073699Y0064275D03*
X0073699Y0064365D03*
X0073699Y0064546D03*
X0073699Y0064591D03*
X0073699Y0064681D03*
X0073699Y0064862D03*
X0073699Y0064907D03*
X0073699Y0064997D03*
X0073699Y0065178D03*
X0073699Y0065223D03*
X0073699Y0065313D03*
X0073699Y0065494D03*
X0073699Y0065584D03*
X0073699Y0065629D03*
X0073699Y0065810D03*
X0073699Y0065900D03*
X0073699Y0065945D03*
X0073699Y0066125D03*
X0073699Y0066216D03*
X0073699Y0066261D03*
X0073699Y0066441D03*
X0073699Y0066532D03*
X0073699Y0066577D03*
X0073699Y0066757D03*
X0073699Y0066848D03*
X0073699Y0066893D03*
X0073744Y0055338D03*
X0073744Y0055248D03*
X0073744Y0055203D03*
X0073699Y0055113D03*
X0073699Y0055022D03*
X0073699Y0054932D03*
X0073699Y0054797D03*
X0073699Y0054706D03*
X0073699Y0054616D03*
X0073744Y0054300D03*
X0051944Y0080524D03*
D177*
X0076881Y0066893D03*
X0076881Y0066848D03*
X0076881Y0066757D03*
X0076881Y0066577D03*
X0076881Y0066532D03*
X0076881Y0066441D03*
X0076881Y0066261D03*
X0076881Y0066216D03*
X0076881Y0066125D03*
X0076881Y0065945D03*
X0076881Y0065900D03*
X0076881Y0065810D03*
X0076881Y0065629D03*
X0076881Y0065584D03*
X0076881Y0065494D03*
X0076881Y0065313D03*
X0076881Y0065223D03*
X0076881Y0065178D03*
X0076881Y0064997D03*
X0076881Y0064907D03*
X0076881Y0064862D03*
X0076881Y0064681D03*
X0076881Y0064591D03*
X0076881Y0064546D03*
X0076881Y0064365D03*
X0076881Y0064275D03*
X0076881Y0064230D03*
X0076881Y0062785D03*
X0076881Y0062695D03*
X0076881Y0062650D03*
X0076881Y0062470D03*
X0076881Y0062379D03*
X0076881Y0062334D03*
X0078867Y0062334D03*
X0078867Y0062379D03*
X0078867Y0062470D03*
X0078867Y0062650D03*
X0078867Y0062695D03*
X0078867Y0062785D03*
X0078867Y0062966D03*
X0078867Y0063011D03*
X0078867Y0063101D03*
X0078867Y0063282D03*
X0078867Y0063327D03*
X0078867Y0063417D03*
X0078867Y0063598D03*
X0078867Y0063643D03*
X0078867Y0063733D03*
X0078867Y0063914D03*
X0078867Y0063959D03*
X0078867Y0064049D03*
X0078867Y0064230D03*
X0078867Y0064275D03*
X0078867Y0064365D03*
X0078867Y0064546D03*
X0078867Y0064591D03*
X0078867Y0064681D03*
X0078867Y0064862D03*
X0078867Y0064907D03*
X0078867Y0064997D03*
X0078867Y0066441D03*
X0078867Y0066532D03*
X0086676Y0064230D03*
X0086766Y0063959D03*
X0086856Y0063733D03*
X0086901Y0063598D03*
X0088391Y0064546D03*
X0088436Y0064681D03*
X0088616Y0065178D03*
X0088616Y0065223D03*
X0088661Y0065313D03*
X0088707Y0065494D03*
X0088752Y0065584D03*
X0088752Y0065629D03*
X0090557Y0065178D03*
X0090602Y0065313D03*
X0090647Y0065494D03*
X0090693Y0065629D03*
X0090783Y0065810D03*
X0090557Y0064365D03*
X0090557Y0064275D03*
X0090557Y0064230D03*
X0090602Y0063959D03*
X0090602Y0063914D03*
X0090647Y0063733D03*
X0090693Y0063643D03*
X0093987Y0063598D03*
X0094078Y0065178D03*
X0094078Y0065223D03*
X0093987Y0065584D03*
X0095748Y0066216D03*
X0095748Y0066261D03*
X0095748Y0066441D03*
X0095748Y0066532D03*
X0095748Y0066577D03*
X0095748Y0066757D03*
X0095748Y0066848D03*
X0095748Y0066893D03*
X0098726Y0065945D03*
X0098726Y0065900D03*
X0101841Y0063643D03*
X0101841Y0063598D03*
X0103556Y0063598D03*
X0103556Y0063643D03*
X0103556Y0063733D03*
X0103556Y0063914D03*
X0103556Y0063959D03*
X0103556Y0064049D03*
X0103556Y0064230D03*
X0103556Y0064275D03*
X0103556Y0064365D03*
X0103556Y0064546D03*
X0103556Y0064591D03*
X0103556Y0064681D03*
X0103556Y0064862D03*
X0103556Y0064907D03*
X0103556Y0064997D03*
X0103556Y0065178D03*
X0103556Y0065223D03*
X0103556Y0065313D03*
X0103556Y0065494D03*
X0103556Y0065584D03*
X0103556Y0065629D03*
X0103556Y0065810D03*
X0103556Y0065900D03*
X0103556Y0065945D03*
X0103556Y0066125D03*
X0103556Y0066216D03*
X0103556Y0066261D03*
X0103556Y0066441D03*
X0103556Y0066532D03*
X0103556Y0066577D03*
X0103556Y0066757D03*
X0103556Y0066848D03*
X0103556Y0066893D03*
X0103556Y0068021D03*
X0103556Y0068111D03*
X0103556Y0068157D03*
X0103556Y0068337D03*
X0103556Y0068427D03*
X0103556Y0068472D03*
X0103556Y0068653D03*
X0103556Y0068743D03*
X0103556Y0068788D03*
X0105361Y0064681D03*
X0105361Y0064591D03*
X0105361Y0064546D03*
X0103556Y0063417D03*
X0103556Y0063327D03*
X0103556Y0063282D03*
X0103556Y0063101D03*
X0103556Y0063011D03*
X0103556Y0062966D03*
X0103556Y0062785D03*
X0103556Y0062695D03*
X0103556Y0062650D03*
X0103556Y0062470D03*
X0103556Y0062379D03*
X0103556Y0062334D03*
X0109108Y0062334D03*
X0109108Y0062379D03*
X0109108Y0062470D03*
X0109108Y0062650D03*
X0109108Y0062695D03*
X0109108Y0062785D03*
X0109108Y0064365D03*
X0109108Y0064546D03*
X0109108Y0064591D03*
X0109108Y0064681D03*
X0109108Y0064862D03*
X0109108Y0064907D03*
X0109108Y0064997D03*
X0110868Y0063733D03*
X0110868Y0063643D03*
X0110868Y0063598D03*
X0114118Y0065494D03*
X0114118Y0065900D03*
X0114118Y0065945D03*
X0115923Y0064230D03*
X0119624Y0064275D03*
X0119624Y0064365D03*
X0119624Y0064546D03*
X0119624Y0064591D03*
X0119624Y0064681D03*
X0119624Y0064862D03*
X0119624Y0064907D03*
X0119624Y0064997D03*
X0121430Y0065178D03*
X0121430Y0065223D03*
X0121520Y0065494D03*
X0121565Y0065629D03*
X0121430Y0064275D03*
X0121430Y0064230D03*
X0121430Y0064049D03*
X0121520Y0063733D03*
X0121565Y0063643D03*
X0119624Y0062785D03*
X0119624Y0062695D03*
X0119624Y0062650D03*
X0124860Y0063598D03*
X0124950Y0065178D03*
X0124950Y0065223D03*
X0110100Y0055248D03*
X0110100Y0055203D03*
X0110100Y0054390D03*
X0106354Y0054390D03*
X0106354Y0055248D03*
X0103601Y0054797D03*
X0103601Y0054706D03*
X0103601Y0054616D03*
X0103601Y0054481D03*
X0103601Y0054390D03*
X0103601Y0054300D03*
X0103601Y0054165D03*
X0103601Y0054074D03*
X0103601Y0053984D03*
X0103601Y0053849D03*
X0103601Y0053758D03*
X0103601Y0053668D03*
X0103601Y0053533D03*
X0103601Y0053443D03*
X0103601Y0053352D03*
X0103601Y0053217D03*
X0103601Y0053127D03*
X0103601Y0053036D03*
X0103601Y0052901D03*
X0103601Y0052811D03*
X0103601Y0052720D03*
X0103601Y0052585D03*
X0103601Y0052495D03*
X0099765Y0053758D03*
X0099810Y0055428D03*
X0099810Y0055519D03*
X0099765Y0055654D03*
X0096515Y0055970D03*
X0096470Y0055880D03*
X0096470Y0055835D03*
X0096380Y0055654D03*
X0096380Y0055564D03*
X0096334Y0055428D03*
X0096334Y0055338D03*
X0096289Y0054481D03*
X0096334Y0054300D03*
X0096334Y0054165D03*
X0096380Y0054074D03*
X0096380Y0053984D03*
X0094168Y0054797D03*
X0094213Y0054932D03*
X0094303Y0055203D03*
X0094348Y0055338D03*
X0094394Y0055428D03*
X0094394Y0055519D03*
X0094439Y0055564D03*
X0094439Y0055654D03*
X0094484Y0055744D03*
X0094574Y0055970D03*
X0094619Y0056151D03*
X0092543Y0054074D03*
X0092678Y0053668D03*
X0092724Y0053533D03*
X0089880Y0055654D03*
X0089880Y0055744D03*
X0089880Y0055835D03*
X0089880Y0055880D03*
X0089880Y0055970D03*
X0089835Y0056151D03*
X0082749Y0055428D03*
X0082749Y0055338D03*
X0082704Y0055564D03*
X0082704Y0053849D03*
X0079319Y0053984D03*
X0079273Y0054074D03*
X0079273Y0054165D03*
X0079273Y0055428D03*
X0079273Y0055519D03*
X0079319Y0055654D03*
X0079409Y0055880D03*
X0079454Y0055970D03*
X0077423Y0055248D03*
X0077423Y0055203D03*
X0077423Y0055113D03*
X0077423Y0055022D03*
X0077423Y0054932D03*
X0077423Y0054797D03*
X0077423Y0054706D03*
X0077423Y0054616D03*
X0077423Y0054481D03*
X0077423Y0054390D03*
X0077423Y0056692D03*
X0077423Y0056783D03*
X0077423Y0056828D03*
X0077423Y0056918D03*
X0077423Y0057008D03*
X0077423Y0057098D03*
X0077423Y0057144D03*
X0077423Y0057234D03*
X0077423Y0057324D03*
X0077423Y0057414D03*
X0077423Y0057460D03*
X0077423Y0057550D03*
X0077423Y0057640D03*
X0077423Y0057730D03*
X0077423Y0057775D03*
X0077423Y0057866D03*
X0077423Y0057956D03*
X0077423Y0058046D03*
X0077423Y0058091D03*
X0077423Y0058182D03*
X0077423Y0058272D03*
X0077423Y0058362D03*
X0077423Y0058407D03*
X0077423Y0058498D03*
X0077423Y0058588D03*
X0077423Y0058678D03*
X0077423Y0058814D03*
X0077423Y0058904D03*
X0077423Y0058994D03*
X0073722Y0054481D03*
X0073722Y0054390D03*
X0073767Y0054165D03*
D178*
X0054111Y0060168D03*
X0052350Y0080208D03*
X0106964Y0066893D03*
X0108228Y0057144D03*
X0108228Y0052495D03*
X0117570Y0062379D03*
D179*
X0066590Y0052540D03*
X0041179Y0052540D03*
X0041179Y0062018D03*
D180*
X0075369Y0052540D03*
X0113553Y0065042D03*
D181*
X0107032Y0062424D03*
X0098095Y0057053D03*
X0098095Y0052540D03*
X0081033Y0052540D03*
X0080943Y0066802D03*
X0054133Y0060213D03*
D182*
X0075301Y0057053D03*
X0087804Y0052540D03*
D183*
X0090219Y0052540D03*
X0087465Y0062424D03*
X0091121Y0063056D03*
X0098975Y0066306D03*
X0108950Y0065855D03*
X0108950Y0063462D03*
X0109582Y0056331D03*
X0116397Y0066171D03*
X0119466Y0065855D03*
X0119466Y0063462D03*
X0074196Y0056331D03*
X0074196Y0053307D03*
D184*
X0074827Y0062515D03*
X0108227Y0052540D03*
D185*
X0066613Y0052585D03*
X0041157Y0052585D03*
X0041157Y0061973D03*
D186*
X0052395Y0080162D03*
X0065394Y0077680D03*
X0092340Y0066893D03*
X0101051Y0064365D03*
X0112064Y0062379D03*
X0075369Y0052585D03*
D187*
X0081034Y0052585D03*
X0098095Y0052585D03*
X0113395Y0064997D03*
D188*
X0117548Y0062470D03*
X0107031Y0062470D03*
X0087804Y0052585D03*
D189*
X0090196Y0052585D03*
X0096966Y0056467D03*
X0099178Y0056467D03*
X0103782Y0055880D03*
X0105181Y0056918D03*
X0106896Y0056376D03*
X0105903Y0063101D03*
X0108927Y0063417D03*
X0111184Y0064275D03*
X0111364Y0066261D03*
X0108927Y0065900D03*
X0105903Y0066216D03*
X0116420Y0063101D03*
X0119444Y0063417D03*
X0119444Y0065900D03*
X0119444Y0065945D03*
X0081756Y0066261D03*
X0074038Y0063011D03*
X0075301Y0057234D03*
X0079905Y0056467D03*
X0082117Y0056467D03*
X0065236Y0077906D03*
D190*
X0100171Y0066893D03*
X0100216Y0062379D03*
X0108205Y0052585D03*
D191*
X0066636Y0052630D03*
X0041134Y0052630D03*
X0041134Y0061928D03*
X0053501Y0078177D03*
D192*
X0052486Y0080072D03*
X0075369Y0052630D03*
D193*
X0077445Y0052630D03*
X0077445Y0052946D03*
X0088233Y0064140D03*
X0088368Y0064455D03*
X0088458Y0064771D03*
X0090625Y0065403D03*
X0078845Y0066667D03*
X0078845Y0066983D03*
X0114140Y0065719D03*
D194*
X0117548Y0062560D03*
X0107031Y0062560D03*
X0081034Y0052630D03*
X0065462Y0077545D03*
D195*
X0087826Y0052630D03*
D196*
X0090196Y0052630D03*
X0077242Y0053578D03*
X0074850Y0062244D03*
X0106896Y0053262D03*
X0109559Y0053262D03*
D197*
X0093197Y0052630D03*
X0074241Y0053262D03*
D198*
X0080921Y0066667D03*
X0098117Y0052630D03*
D199*
X0101547Y0052630D03*
X0101547Y0052946D03*
X0101547Y0053262D03*
X0101547Y0053578D03*
X0101547Y0053894D03*
X0101547Y0054210D03*
X0101547Y0054526D03*
X0101547Y0054842D03*
X0101547Y0058768D03*
X0106332Y0054842D03*
X0106332Y0054526D03*
X0106377Y0054210D03*
X0110123Y0054526D03*
X0110123Y0054842D03*
X0110890Y0063824D03*
X0111071Y0065719D03*
X0114095Y0065403D03*
X0114095Y0064455D03*
X0114095Y0064140D03*
X0114095Y0063824D03*
X0115945Y0064140D03*
X0115991Y0063824D03*
X0119601Y0064140D03*
X0119601Y0065087D03*
X0119601Y0066667D03*
X0119601Y0066983D03*
X0119601Y0067299D03*
X0119601Y0067615D03*
X0119601Y0067931D03*
X0119601Y0068247D03*
X0119601Y0068563D03*
X0119601Y0068879D03*
X0124792Y0065719D03*
X0124837Y0063508D03*
X0121633Y0063508D03*
X0121497Y0063824D03*
X0105474Y0063824D03*
X0105384Y0064455D03*
X0105384Y0064771D03*
X0105384Y0065087D03*
X0098749Y0065719D03*
X0098749Y0066035D03*
X0098659Y0063508D03*
X0095770Y0063508D03*
X0095770Y0063824D03*
X0095770Y0064140D03*
X0095770Y0064455D03*
X0095770Y0064771D03*
X0095770Y0063192D03*
X0095770Y0062876D03*
X0095770Y0062560D03*
X0093965Y0063508D03*
X0094100Y0065087D03*
X0093920Y0065719D03*
X0090760Y0063508D03*
X0086924Y0063508D03*
X0086608Y0064455D03*
X0086472Y0064771D03*
X0086382Y0065087D03*
X0086157Y0065719D03*
X0084080Y0065719D03*
X0084080Y0065403D03*
X0084080Y0065087D03*
X0084080Y0064771D03*
X0084080Y0064455D03*
X0084080Y0064140D03*
X0084080Y0063824D03*
X0084080Y0063508D03*
X0084080Y0063192D03*
X0084080Y0062876D03*
X0084080Y0062560D03*
X0082049Y0062560D03*
X0082049Y0062876D03*
X0082049Y0063192D03*
X0082049Y0063508D03*
X0082049Y0063824D03*
X0082049Y0064140D03*
X0082049Y0064455D03*
X0082049Y0064771D03*
X0082049Y0065087D03*
X0082049Y0065403D03*
X0084080Y0066035D03*
X0084080Y0066351D03*
X0084080Y0066667D03*
X0084080Y0066983D03*
X0084080Y0067931D03*
X0084080Y0068247D03*
X0084080Y0068563D03*
X0084080Y0068879D03*
X0089000Y0066351D03*
X0078890Y0065403D03*
X0076858Y0063824D03*
X0073699Y0063824D03*
X0073699Y0064140D03*
X0073699Y0064455D03*
X0073699Y0064771D03*
X0073699Y0065087D03*
X0073699Y0065403D03*
X0073699Y0065719D03*
X0073699Y0066035D03*
X0073699Y0066351D03*
X0073699Y0066667D03*
X0073699Y0066983D03*
X0073699Y0054842D03*
X0073699Y0054526D03*
X0073744Y0054210D03*
X0077400Y0054210D03*
X0079341Y0053894D03*
X0082591Y0053578D03*
X0086608Y0053578D03*
X0086608Y0053894D03*
X0092611Y0053894D03*
D200*
X0092498Y0054210D03*
X0092724Y0053578D03*
X0094078Y0054526D03*
X0096289Y0054526D03*
X0096334Y0054210D03*
X0099674Y0053578D03*
X0103601Y0053578D03*
X0103601Y0053894D03*
X0103601Y0054210D03*
X0103601Y0054526D03*
X0103601Y0054842D03*
X0103601Y0053262D03*
X0103601Y0052946D03*
X0103601Y0052630D03*
X0103556Y0062560D03*
X0103556Y0062876D03*
X0103556Y0063192D03*
X0103556Y0063508D03*
X0103556Y0063824D03*
X0103556Y0064140D03*
X0103556Y0064455D03*
X0103556Y0064771D03*
X0103556Y0065087D03*
X0103556Y0065403D03*
X0103556Y0065719D03*
X0103556Y0066035D03*
X0103556Y0066351D03*
X0103556Y0066667D03*
X0103556Y0066983D03*
X0103556Y0067931D03*
X0103556Y0068247D03*
X0103556Y0068563D03*
X0103556Y0068879D03*
X0109108Y0064771D03*
X0109108Y0064455D03*
X0109108Y0062876D03*
X0109108Y0062560D03*
X0114072Y0066035D03*
X0119624Y0064771D03*
X0119624Y0064455D03*
X0121430Y0064140D03*
X0121430Y0065087D03*
X0121610Y0065719D03*
X0124905Y0065403D03*
X0124950Y0065087D03*
X0119624Y0062560D03*
X0101841Y0063508D03*
X0095748Y0066351D03*
X0095748Y0066667D03*
X0095748Y0066983D03*
X0090557Y0065087D03*
X0090557Y0064140D03*
X0090647Y0063824D03*
X0088571Y0065087D03*
X0088661Y0065403D03*
X0088797Y0065719D03*
X0088887Y0066035D03*
X0086811Y0063824D03*
X0078867Y0063824D03*
X0078867Y0064140D03*
X0078867Y0064455D03*
X0078867Y0064771D03*
X0078867Y0065087D03*
X0078867Y0063508D03*
X0078867Y0063192D03*
X0078867Y0062876D03*
X0078867Y0062560D03*
X0076881Y0062560D03*
X0076881Y0062876D03*
X0076881Y0064140D03*
X0076881Y0064455D03*
X0076881Y0064771D03*
X0076881Y0065087D03*
X0076881Y0065403D03*
X0076881Y0065719D03*
X0076881Y0066035D03*
X0076881Y0066351D03*
X0076881Y0066667D03*
X0076881Y0066983D03*
X0077423Y0058768D03*
X0077423Y0054842D03*
X0077423Y0054526D03*
X0079273Y0054210D03*
D201*
X0108228Y0052630D03*
D202*
X0066658Y0052675D03*
X0066658Y0061883D03*
X0041112Y0061883D03*
X0041112Y0052675D03*
D203*
X0052531Y0080027D03*
X0080921Y0066712D03*
X0092340Y0066802D03*
X0099652Y0065042D03*
X0108227Y0057053D03*
X0089135Y0055158D03*
X0075369Y0052675D03*
D204*
X0075347Y0052765D03*
X0081034Y0052675D03*
X0092362Y0062515D03*
X0100712Y0064501D03*
X0107031Y0062605D03*
X0117548Y0062605D03*
X0123235Y0062515D03*
X0098095Y0052675D03*
X0065462Y0077500D03*
X0042308Y0077500D03*
D205*
X0087849Y0052675D03*
X0112086Y0062515D03*
D206*
X0090173Y0052675D03*
D207*
X0093220Y0052675D03*
X0105858Y0066171D03*
X0114433Y0062424D03*
X0093446Y0066306D03*
X0079048Y0065990D03*
D208*
X0080921Y0066487D03*
X0074873Y0062831D03*
X0100148Y0066802D03*
X0106964Y0066622D03*
X0117480Y0066622D03*
X0108227Y0052675D03*
D209*
X0041112Y0052720D03*
X0041112Y0061838D03*
D210*
X0066681Y0061838D03*
X0066681Y0052720D03*
D211*
X0075347Y0052720D03*
X0074850Y0062650D03*
X0074850Y0062695D03*
X0087939Y0054797D03*
X0092362Y0062470D03*
X0098095Y0056918D03*
X0112628Y0066893D03*
D212*
X0117548Y0062695D03*
X0098095Y0056828D03*
X0081034Y0056828D03*
X0081034Y0052720D03*
X0080898Y0066441D03*
D213*
X0087849Y0052720D03*
D214*
X0087014Y0054481D03*
X0090173Y0052720D03*
X0074241Y0056376D03*
X0122039Y0063011D03*
D215*
X0114433Y0062470D03*
X0113937Y0065178D03*
X0097372Y0066757D03*
X0091189Y0063011D03*
X0093220Y0052720D03*
D216*
X0098117Y0052720D03*
X0107009Y0062650D03*
X0075279Y0056783D03*
X0065484Y0077454D03*
D217*
X0075324Y0052901D03*
X0087872Y0052811D03*
X0100374Y0064681D03*
X0106964Y0066577D03*
X0112109Y0062650D03*
X0108228Y0056918D03*
X0108228Y0052720D03*
D218*
X0066681Y0052765D03*
X0041089Y0052765D03*
X0041089Y0061792D03*
X0065643Y0076687D03*
D219*
X0092362Y0062605D03*
X0100216Y0062515D03*
X0081034Y0052765D03*
X0123235Y0062605D03*
D220*
X0098095Y0056873D03*
X0087849Y0052765D03*
X0054133Y0060529D03*
D221*
X0074354Y0053172D03*
X0076656Y0063147D03*
X0081711Y0066306D03*
X0089654Y0053307D03*
X0090151Y0052765D03*
X0093220Y0052765D03*
X0108882Y0065990D03*
D222*
X0112651Y0066802D03*
X0117525Y0062740D03*
X0100148Y0064817D03*
X0088368Y0056963D03*
X0098117Y0052765D03*
X0080921Y0066396D03*
X0075279Y0056737D03*
X0042285Y0077409D03*
D223*
X0052847Y0079621D03*
X0075279Y0056647D03*
X0075324Y0052991D03*
X0081011Y0056737D03*
X0108228Y0052765D03*
D224*
X0066703Y0052811D03*
X0066703Y0061747D03*
X0053434Y0078402D03*
X0041066Y0061747D03*
X0041066Y0061657D03*
X0041066Y0052901D03*
X0041066Y0052811D03*
D225*
X0054133Y0060574D03*
X0074850Y0062785D03*
X0075346Y0052811D03*
X0088391Y0057008D03*
X0099945Y0064907D03*
X0100622Y0064546D03*
X0112628Y0066848D03*
D226*
X0123190Y0066577D03*
X0098095Y0052811D03*
X0088391Y0056918D03*
X0092363Y0062650D03*
X0081033Y0052811D03*
X0054133Y0060800D03*
D227*
X0081011Y0056692D03*
X0108228Y0056828D03*
X0108228Y0052811D03*
X0113012Y0064862D03*
X0123212Y0062695D03*
D228*
X0066703Y0061792D03*
X0066703Y0061702D03*
X0066703Y0052856D03*
X0054110Y0061477D03*
X0041066Y0061702D03*
X0041066Y0052856D03*
D229*
X0075347Y0052856D03*
X0100442Y0064636D03*
D230*
X0112628Y0066712D03*
X0088391Y0056873D03*
X0081034Y0052856D03*
X0054133Y0060845D03*
D231*
X0054133Y0061567D03*
X0053546Y0078041D03*
X0088616Y0052856D03*
D232*
X0093197Y0052856D03*
X0103849Y0056015D03*
X0095996Y0065855D03*
X0077175Y0056241D03*
X0119376Y0066080D03*
D233*
X0100239Y0062605D03*
X0098117Y0052856D03*
D234*
X0108227Y0052856D03*
X0100148Y0066622D03*
X0092340Y0066487D03*
X0081011Y0056647D03*
X0054110Y0060935D03*
D235*
X0066726Y0060890D03*
X0066726Y0060800D03*
X0066726Y0060709D03*
X0066726Y0060574D03*
X0066726Y0060484D03*
X0066726Y0060393D03*
X0066726Y0060258D03*
X0066726Y0060168D03*
X0066726Y0060077D03*
X0066726Y0059942D03*
X0066726Y0059852D03*
X0066726Y0059761D03*
X0066726Y0059626D03*
X0066726Y0059536D03*
X0066726Y0059445D03*
X0066726Y0059310D03*
X0066726Y0059220D03*
X0066726Y0059130D03*
X0066726Y0058994D03*
X0066726Y0058904D03*
X0066726Y0058814D03*
X0066726Y0058678D03*
X0066726Y0058588D03*
X0066726Y0058498D03*
X0066726Y0058407D03*
X0066726Y0058362D03*
X0066726Y0058272D03*
X0066726Y0058182D03*
X0066726Y0058091D03*
X0066726Y0058046D03*
X0066726Y0057956D03*
X0066726Y0057866D03*
X0066726Y0057775D03*
X0066726Y0057730D03*
X0066726Y0057640D03*
X0066726Y0057550D03*
X0066726Y0057460D03*
X0066726Y0057414D03*
X0066726Y0057324D03*
X0066726Y0057234D03*
X0066726Y0057144D03*
X0066726Y0057098D03*
X0066726Y0057008D03*
X0066726Y0056918D03*
X0066726Y0056828D03*
X0066726Y0056783D03*
X0066726Y0056692D03*
X0066726Y0056602D03*
X0066726Y0056512D03*
X0066726Y0056467D03*
X0066726Y0056376D03*
X0066726Y0056286D03*
X0066726Y0056196D03*
X0066726Y0056151D03*
X0066726Y0056060D03*
X0066726Y0055970D03*
X0066726Y0055880D03*
X0066726Y0055835D03*
X0066726Y0055744D03*
X0066726Y0055654D03*
X0066726Y0055564D03*
X0066726Y0055519D03*
X0066726Y0055428D03*
X0066726Y0055338D03*
X0066726Y0055248D03*
X0066726Y0055203D03*
X0066726Y0055113D03*
X0066726Y0055022D03*
X0066726Y0054932D03*
X0066726Y0054797D03*
X0066726Y0054706D03*
X0066726Y0054616D03*
X0066726Y0054481D03*
X0066726Y0054390D03*
X0066726Y0054300D03*
X0066726Y0054165D03*
X0066726Y0054074D03*
X0066726Y0053984D03*
X0066726Y0053849D03*
X0066726Y0053758D03*
X0066726Y0053668D03*
X0066726Y0053533D03*
X0066726Y0053443D03*
X0066726Y0053352D03*
X0066726Y0053217D03*
X0066726Y0053127D03*
X0066726Y0053036D03*
X0066726Y0052901D03*
X0066726Y0061025D03*
X0066726Y0061115D03*
X0066726Y0061206D03*
X0066726Y0061341D03*
X0066726Y0061431D03*
X0066726Y0061522D03*
X0066726Y0061657D03*
X0041044Y0061522D03*
X0041044Y0061431D03*
X0041044Y0061341D03*
X0041044Y0061206D03*
X0041044Y0061115D03*
X0041044Y0061025D03*
X0041044Y0060890D03*
X0041044Y0060800D03*
X0041044Y0060709D03*
X0041044Y0060574D03*
X0041044Y0060484D03*
X0041044Y0060393D03*
X0041044Y0060258D03*
X0041044Y0060168D03*
X0041044Y0060077D03*
X0041044Y0059942D03*
X0041044Y0059852D03*
X0041044Y0059761D03*
X0041044Y0059626D03*
X0041044Y0059536D03*
X0041044Y0059445D03*
X0041044Y0059310D03*
X0041044Y0059220D03*
X0041044Y0059130D03*
X0041044Y0058994D03*
X0041044Y0058904D03*
X0041044Y0058814D03*
X0041044Y0058678D03*
X0041044Y0058588D03*
X0041044Y0058498D03*
X0041044Y0058407D03*
X0041044Y0058362D03*
X0041044Y0058272D03*
X0041044Y0058182D03*
X0041044Y0058091D03*
X0041044Y0058046D03*
X0041044Y0057956D03*
X0041044Y0057866D03*
X0041044Y0057775D03*
X0041044Y0057730D03*
X0041044Y0057640D03*
X0041044Y0057550D03*
X0041044Y0057460D03*
X0041044Y0057414D03*
X0041044Y0057324D03*
X0041044Y0057234D03*
X0041044Y0057144D03*
X0041044Y0057098D03*
X0041044Y0057008D03*
X0041044Y0056918D03*
X0041044Y0056828D03*
X0041044Y0056783D03*
X0041044Y0056692D03*
X0041044Y0056602D03*
X0041044Y0056512D03*
X0041044Y0056467D03*
X0041044Y0056376D03*
X0041044Y0056286D03*
X0041044Y0056196D03*
X0041044Y0056151D03*
X0041044Y0056060D03*
X0041044Y0055970D03*
X0041044Y0055880D03*
X0041044Y0055835D03*
X0041044Y0055744D03*
X0041044Y0055654D03*
X0041044Y0055564D03*
X0041044Y0055519D03*
X0041044Y0055428D03*
X0041044Y0055338D03*
X0041044Y0055248D03*
X0041044Y0055203D03*
X0041044Y0055113D03*
X0041044Y0055022D03*
X0041044Y0054932D03*
X0041044Y0054797D03*
X0041044Y0054706D03*
X0041044Y0054616D03*
X0041044Y0054481D03*
X0041044Y0054390D03*
X0041044Y0054300D03*
X0041044Y0054165D03*
X0041044Y0054074D03*
X0041044Y0053984D03*
X0041044Y0053849D03*
X0041044Y0053758D03*
X0041044Y0053668D03*
X0041044Y0053533D03*
X0041044Y0053443D03*
X0041044Y0053352D03*
X0041044Y0053217D03*
X0041044Y0053127D03*
X0041044Y0053036D03*
X0042172Y0076732D03*
D236*
X0052915Y0079531D03*
X0065552Y0077274D03*
X0054133Y0060890D03*
X0081033Y0052901D03*
X0088391Y0056828D03*
D237*
X0088594Y0052901D03*
X0053569Y0077996D03*
D238*
X0077152Y0056286D03*
X0079950Y0053127D03*
X0087262Y0056512D03*
X0093220Y0052901D03*
X0103872Y0056060D03*
X0111364Y0064365D03*
X0113847Y0063101D03*
X0116645Y0062966D03*
X0097282Y0066577D03*
X0096019Y0065900D03*
D239*
X0108227Y0056783D03*
X0098117Y0052901D03*
D240*
X0108228Y0052901D03*
X0081011Y0056602D03*
D241*
X0066726Y0054842D03*
X0066726Y0054526D03*
X0066726Y0054210D03*
X0066726Y0053894D03*
X0066726Y0053578D03*
X0066726Y0053262D03*
X0066726Y0052946D03*
X0066726Y0058768D03*
X0066726Y0059084D03*
X0066726Y0059400D03*
X0066726Y0059716D03*
X0066726Y0060032D03*
X0066726Y0060348D03*
X0066726Y0060664D03*
X0066726Y0060980D03*
X0066726Y0061296D03*
X0066726Y0061612D03*
X0041044Y0061612D03*
X0041044Y0061296D03*
X0041044Y0060980D03*
X0041044Y0060664D03*
X0041044Y0060348D03*
X0041044Y0060032D03*
X0041044Y0059716D03*
X0041044Y0059400D03*
X0041044Y0059084D03*
X0041044Y0058768D03*
X0041044Y0054842D03*
X0041044Y0054526D03*
X0041044Y0054210D03*
X0041044Y0053894D03*
X0041044Y0053578D03*
X0041044Y0053262D03*
X0041044Y0052946D03*
D242*
X0075324Y0052946D03*
D243*
X0081033Y0052946D03*
X0054133Y0060980D03*
X0065552Y0077229D03*
X0042217Y0077229D03*
D244*
X0053592Y0077861D03*
X0080988Y0054842D03*
X0088571Y0052946D03*
X0098095Y0054842D03*
D245*
X0093220Y0052946D03*
X0101209Y0066351D03*
X0112041Y0062244D03*
X0081620Y0066351D03*
D246*
X0098117Y0052946D03*
D247*
X0108227Y0052946D03*
D248*
X0075798Y0056557D03*
X0066726Y0056557D03*
X0066726Y0056647D03*
X0066726Y0056737D03*
X0066726Y0056873D03*
X0066726Y0056963D03*
X0066726Y0057053D03*
X0066726Y0057189D03*
X0066726Y0057279D03*
X0066726Y0057369D03*
X0066726Y0057505D03*
X0066726Y0057595D03*
X0066726Y0057685D03*
X0066726Y0057821D03*
X0066726Y0057911D03*
X0066726Y0058001D03*
X0066726Y0058137D03*
X0066726Y0058227D03*
X0066726Y0058317D03*
X0066726Y0058452D03*
X0066726Y0058543D03*
X0066726Y0058633D03*
X0066726Y0058723D03*
X0066726Y0058859D03*
X0066726Y0058949D03*
X0066726Y0059039D03*
X0066726Y0059175D03*
X0066726Y0059265D03*
X0066726Y0059355D03*
X0066726Y0059491D03*
X0066726Y0059581D03*
X0066726Y0059671D03*
X0066726Y0059807D03*
X0066726Y0059897D03*
X0066726Y0059987D03*
X0066726Y0060123D03*
X0066726Y0060213D03*
X0066726Y0060303D03*
X0066726Y0060438D03*
X0066726Y0060529D03*
X0066726Y0060619D03*
X0066726Y0060754D03*
X0066726Y0060845D03*
X0066726Y0060935D03*
X0066726Y0061070D03*
X0066726Y0061161D03*
X0066726Y0061251D03*
X0066726Y0061386D03*
X0066726Y0061477D03*
X0066726Y0061567D03*
X0066726Y0056421D03*
X0066726Y0056331D03*
X0066726Y0056241D03*
X0066726Y0056105D03*
X0066726Y0056015D03*
X0066726Y0055925D03*
X0066726Y0055790D03*
X0066726Y0055699D03*
X0066726Y0055609D03*
X0066726Y0055474D03*
X0066726Y0055383D03*
X0066726Y0055293D03*
X0066726Y0055158D03*
X0066726Y0055067D03*
X0066726Y0054977D03*
X0066726Y0054887D03*
X0066726Y0054751D03*
X0066726Y0054661D03*
X0066726Y0054571D03*
X0066726Y0054435D03*
X0066726Y0054345D03*
X0066726Y0054255D03*
X0066726Y0054120D03*
X0066726Y0054029D03*
X0066726Y0053939D03*
X0066726Y0053804D03*
X0066726Y0053713D03*
X0066726Y0053623D03*
X0066726Y0053488D03*
X0066726Y0053397D03*
X0066726Y0053307D03*
X0066726Y0053172D03*
X0066726Y0053081D03*
X0066726Y0052991D03*
X0041044Y0052991D03*
X0041044Y0053081D03*
X0041044Y0053172D03*
X0041044Y0053307D03*
X0041044Y0053397D03*
X0041044Y0053488D03*
X0041044Y0053623D03*
X0041044Y0053713D03*
X0041044Y0053804D03*
X0041044Y0053939D03*
X0041044Y0054029D03*
X0041044Y0054120D03*
X0041044Y0054255D03*
X0041044Y0054345D03*
X0041044Y0054435D03*
X0041044Y0054571D03*
X0041044Y0054661D03*
X0041044Y0054751D03*
X0041044Y0054887D03*
X0041044Y0054977D03*
X0041044Y0055067D03*
X0041044Y0055158D03*
X0041044Y0055293D03*
X0041044Y0055383D03*
X0041044Y0055474D03*
X0041044Y0055609D03*
X0041044Y0055699D03*
X0041044Y0055790D03*
X0041044Y0055925D03*
X0041044Y0056015D03*
X0041044Y0056105D03*
X0041044Y0056241D03*
X0041044Y0056331D03*
X0041044Y0056421D03*
X0041044Y0056557D03*
X0041044Y0056647D03*
X0041044Y0056737D03*
X0041044Y0056873D03*
X0041044Y0056963D03*
X0041044Y0057053D03*
X0041044Y0057189D03*
X0041044Y0057279D03*
X0041044Y0057369D03*
X0041044Y0057505D03*
X0041044Y0057595D03*
X0041044Y0057685D03*
X0041044Y0057821D03*
X0041044Y0057911D03*
X0041044Y0058001D03*
X0041044Y0058137D03*
X0041044Y0058227D03*
X0041044Y0058317D03*
X0041044Y0058452D03*
X0041044Y0058543D03*
X0041044Y0058633D03*
X0041044Y0058723D03*
X0041044Y0058859D03*
X0041044Y0058949D03*
X0041044Y0059039D03*
X0041044Y0059175D03*
X0041044Y0059265D03*
X0041044Y0059355D03*
X0041044Y0059491D03*
X0041044Y0059581D03*
X0041044Y0059671D03*
X0041044Y0059807D03*
X0041044Y0059897D03*
X0041044Y0059987D03*
X0041044Y0060123D03*
X0041044Y0060213D03*
X0041044Y0060303D03*
X0041044Y0060438D03*
X0041044Y0060529D03*
X0041044Y0060619D03*
X0041044Y0060754D03*
X0041044Y0060845D03*
X0041044Y0060935D03*
X0041044Y0061070D03*
X0041044Y0061161D03*
X0041044Y0061251D03*
X0041044Y0061386D03*
X0041044Y0061477D03*
X0041044Y0061567D03*
D249*
X0042218Y0077184D03*
X0081034Y0052991D03*
X0092362Y0062831D03*
X0098095Y0056557D03*
X0123235Y0062831D03*
X0123190Y0066396D03*
D250*
X0098095Y0055067D03*
X0098095Y0054977D03*
X0098095Y0054887D03*
X0098095Y0054751D03*
X0088571Y0052991D03*
D251*
X0093197Y0052991D03*
X0105068Y0056647D03*
X0106964Y0067028D03*
X0097260Y0066487D03*
X0117480Y0067028D03*
X0075279Y0057189D03*
D252*
X0098117Y0052991D03*
X0100148Y0066487D03*
X0053027Y0079305D03*
D253*
X0088368Y0056647D03*
X0098117Y0053081D03*
X0108227Y0052991D03*
X0108227Y0056647D03*
X0100238Y0062740D03*
X0112831Y0064726D03*
D254*
X0123190Y0066532D03*
X0098095Y0056692D03*
X0092362Y0062695D03*
X0075301Y0053036D03*
X0052870Y0079576D03*
D255*
X0053050Y0079260D03*
X0081033Y0053036D03*
X0088391Y0056692D03*
X0098095Y0053036D03*
X0112628Y0066532D03*
D256*
X0088548Y0053036D03*
X0053614Y0077770D03*
X0042150Y0076507D03*
D257*
X0089564Y0053217D03*
X0093220Y0053036D03*
X0103917Y0056151D03*
X0105045Y0056602D03*
X0096064Y0065945D03*
X0097237Y0066441D03*
D258*
X0088368Y0056602D03*
X0108228Y0056602D03*
X0108228Y0053036D03*
X0112786Y0064681D03*
X0112606Y0066441D03*
X0042195Y0077048D03*
D259*
X0042150Y0076777D03*
X0065620Y0076777D03*
X0075820Y0053081D03*
D260*
X0081034Y0053081D03*
X0088571Y0054887D03*
X0092362Y0062921D03*
X0112628Y0066487D03*
X0123235Y0062921D03*
X0065597Y0077093D03*
D261*
X0053614Y0077815D03*
X0088548Y0053081D03*
X0112786Y0062921D03*
D262*
X0113847Y0063056D03*
X0119308Y0063147D03*
X0119308Y0066171D03*
X0108792Y0066171D03*
X0108792Y0063147D03*
X0105045Y0056557D03*
X0093220Y0053081D03*
X0077107Y0053307D03*
X0077107Y0056331D03*
X0074850Y0062289D03*
D263*
X0053163Y0079079D03*
X0108227Y0053081D03*
D264*
X0107031Y0056467D03*
X0105136Y0056828D03*
X0106038Y0063011D03*
X0098997Y0063011D03*
X0093491Y0062966D03*
X0087443Y0062650D03*
X0087172Y0056467D03*
X0082162Y0053127D03*
X0077197Y0056196D03*
X0074083Y0062966D03*
X0099223Y0053127D03*
X0114388Y0062650D03*
X0116555Y0063011D03*
X0116510Y0066261D03*
D265*
X0119331Y0066125D03*
X0108814Y0066125D03*
X0109311Y0056512D03*
X0086969Y0053127D03*
X0087465Y0062785D03*
D266*
X0089474Y0053127D03*
X0075301Y0057098D03*
D267*
X0088413Y0057234D03*
X0093197Y0053127D03*
D268*
X0099088Y0062966D03*
X0111229Y0062966D03*
X0109333Y0053127D03*
D269*
X0108228Y0057189D03*
X0123212Y0062289D03*
X0087465Y0063237D03*
X0076994Y0053172D03*
D270*
X0079860Y0053172D03*
X0077242Y0056105D03*
X0076701Y0063237D03*
X0087443Y0062515D03*
X0091234Y0066306D03*
X0095928Y0065674D03*
X0098952Y0065358D03*
X0101615Y0064094D03*
X0105948Y0063056D03*
X0113847Y0066306D03*
X0122107Y0066306D03*
X0099313Y0053172D03*
X0089699Y0053397D03*
D271*
X0086924Y0054435D03*
X0087104Y0056421D03*
X0088413Y0057279D03*
X0082184Y0056421D03*
X0082230Y0053172D03*
X0077265Y0053623D03*
X0077265Y0056015D03*
X0073970Y0063056D03*
X0097395Y0066802D03*
X0098930Y0063056D03*
X0105203Y0056963D03*
X0106873Y0056331D03*
X0111071Y0063056D03*
X0113960Y0063237D03*
X0116307Y0066080D03*
D272*
X0116487Y0063056D03*
X0114411Y0062605D03*
X0114411Y0062515D03*
X0111252Y0064320D03*
X0111432Y0066306D03*
X0108904Y0063372D03*
X0105158Y0056873D03*
X0103804Y0055925D03*
X0106964Y0056421D03*
X0109491Y0056421D03*
X0119421Y0063372D03*
X0119421Y0065990D03*
X0124296Y0066306D03*
X0101322Y0066306D03*
X0097350Y0066712D03*
X0095951Y0065764D03*
X0087465Y0062605D03*
X0086879Y0053172D03*
X0077220Y0053488D03*
X0096944Y0053172D03*
X0052080Y0080433D03*
D273*
X0079093Y0066080D03*
X0074308Y0056421D03*
X0100216Y0062199D03*
X0107031Y0053172D03*
X0109423Y0053172D03*
X0113892Y0063147D03*
D274*
X0111116Y0063011D03*
X0108904Y0065945D03*
X0116442Y0066216D03*
X0123212Y0067073D03*
X0124341Y0062966D03*
X0109491Y0053217D03*
X0106964Y0053217D03*
X0098072Y0057234D03*
X0089677Y0055338D03*
X0089677Y0053352D03*
X0081011Y0057234D03*
X0077220Y0056151D03*
X0077220Y0053533D03*
X0074286Y0053217D03*
X0092340Y0067073D03*
X0042556Y0077906D03*
D275*
X0077039Y0053217D03*
X0087465Y0063101D03*
X0099201Y0065223D03*
X0113779Y0063011D03*
X0119240Y0066261D03*
D276*
X0117480Y0067073D03*
X0116352Y0066125D03*
X0114456Y0062379D03*
X0109536Y0056376D03*
X0101547Y0063011D03*
X0105835Y0066125D03*
X0106964Y0067073D03*
X0093558Y0063011D03*
X0091166Y0066261D03*
X0081823Y0066216D03*
X0079025Y0065945D03*
X0077265Y0056060D03*
X0074151Y0056286D03*
X0079792Y0053217D03*
X0096853Y0053217D03*
X0124431Y0063011D03*
X0054110Y0059942D03*
D277*
X0076723Y0063282D03*
X0087465Y0062470D03*
X0093513Y0066261D03*
X0095906Y0065629D03*
X0095906Y0065584D03*
X0101367Y0066261D03*
X0103759Y0055835D03*
X0089587Y0056467D03*
X0089722Y0053443D03*
X0086833Y0053217D03*
X0124386Y0066261D03*
D278*
X0119263Y0066216D03*
X0119263Y0063101D03*
X0108746Y0063101D03*
X0108746Y0066216D03*
X0105000Y0056376D03*
X0103962Y0056196D03*
X0093220Y0053217D03*
D279*
X0077084Y0053262D03*
X0097215Y0066351D03*
X0106151Y0066351D03*
X0116668Y0066351D03*
D280*
X0116329Y0063192D03*
X0105813Y0063192D03*
X0098907Y0065403D03*
X0086766Y0053262D03*
X0079725Y0053262D03*
D281*
X0082365Y0053262D03*
X0095860Y0065403D03*
X0105745Y0066035D03*
X0108995Y0065719D03*
X0119511Y0065719D03*
X0099426Y0053262D03*
D282*
X0089609Y0053262D03*
X0087082Y0054526D03*
D283*
X0093197Y0053262D03*
X0106964Y0066983D03*
D284*
X0096808Y0053262D03*
D285*
X0096673Y0053397D03*
X0099471Y0053307D03*
X0099561Y0053397D03*
X0096718Y0056241D03*
X0091753Y0056331D03*
X0091528Y0056963D03*
X0089812Y0055474D03*
X0089812Y0053623D03*
X0086743Y0054255D03*
X0086924Y0056241D03*
X0082365Y0056241D03*
X0082410Y0053307D03*
X0079612Y0053397D03*
X0077355Y0053939D03*
X0077355Y0055699D03*
X0073925Y0055925D03*
X0073925Y0053713D03*
X0073970Y0053623D03*
X0073789Y0063372D03*
X0076813Y0063553D03*
X0078935Y0065674D03*
X0085705Y0067028D03*
X0085841Y0066622D03*
X0085885Y0066487D03*
X0090941Y0063237D03*
X0093739Y0063147D03*
X0095815Y0065133D03*
X0095815Y0065268D03*
X0093694Y0066080D03*
X0097485Y0066938D03*
X0098794Y0065539D03*
X0098704Y0063372D03*
X0101773Y0063869D03*
X0101593Y0065990D03*
X0109040Y0065539D03*
X0109040Y0065448D03*
X0109040Y0063869D03*
X0110935Y0063237D03*
X0111026Y0064094D03*
X0114050Y0063462D03*
X0116171Y0063462D03*
X0116081Y0065674D03*
X0116126Y0065764D03*
X0114005Y0066171D03*
X0119556Y0065539D03*
X0119556Y0063869D03*
X0119556Y0063778D03*
X0109852Y0056015D03*
X0108228Y0057279D03*
X0106603Y0056015D03*
X0106558Y0055925D03*
X0106512Y0053804D03*
X0106558Y0053713D03*
X0106603Y0053623D03*
X0109852Y0053623D03*
X0109943Y0053804D03*
X0103669Y0055474D03*
X0042601Y0077951D03*
D286*
X0073947Y0055970D03*
X0074038Y0053533D03*
X0074083Y0053443D03*
X0077333Y0053849D03*
X0077333Y0055835D03*
X0079634Y0053352D03*
X0086946Y0056286D03*
X0089699Y0056376D03*
X0091008Y0066125D03*
X0093671Y0066125D03*
X0095838Y0065313D03*
X0098817Y0065494D03*
X0098862Y0066216D03*
X0101525Y0066125D03*
X0101751Y0063959D03*
X0101660Y0063101D03*
X0106716Y0056151D03*
X0106670Y0053533D03*
X0109740Y0056151D03*
X0114027Y0063417D03*
X0116239Y0063327D03*
X0116194Y0065900D03*
X0111229Y0066125D03*
X0119534Y0065629D03*
X0119534Y0065584D03*
X0119534Y0063733D03*
X0124544Y0063101D03*
D287*
X0085750Y0066848D03*
X0085750Y0066893D03*
X0081959Y0065945D03*
X0082455Y0053352D03*
D288*
X0082410Y0056196D03*
X0079567Y0053443D03*
X0077355Y0053984D03*
X0077355Y0055744D03*
X0073880Y0055835D03*
X0073880Y0055880D03*
X0073835Y0063282D03*
X0076813Y0063598D03*
X0078935Y0065629D03*
X0082004Y0065810D03*
X0085795Y0066757D03*
X0090896Y0063282D03*
X0095815Y0065178D03*
X0095815Y0065223D03*
X0098749Y0063282D03*
X0101773Y0063914D03*
X0101593Y0065945D03*
X0105519Y0065629D03*
X0105519Y0065584D03*
X0105609Y0065810D03*
X0105565Y0063598D03*
X0105655Y0063417D03*
X0109040Y0065494D03*
X0110981Y0064049D03*
X0114050Y0065313D03*
X0113959Y0066216D03*
X0116036Y0065584D03*
X0116126Y0065810D03*
X0116171Y0063417D03*
X0119556Y0065494D03*
X0121858Y0066125D03*
X0124521Y0066125D03*
X0121723Y0063327D03*
X0121768Y0063282D03*
X0109807Y0056060D03*
X0109852Y0055970D03*
X0109852Y0053668D03*
X0106512Y0055835D03*
X0106603Y0055970D03*
X0105294Y0057098D03*
X0103669Y0055519D03*
X0103669Y0055428D03*
X0099517Y0056151D03*
X0099471Y0056196D03*
X0096763Y0056286D03*
X0096718Y0053352D03*
X0099517Y0053352D03*
X0091798Y0056196D03*
X0091708Y0056467D03*
X0091663Y0056602D03*
X0091618Y0056692D03*
X0091572Y0056828D03*
X0091482Y0057098D03*
X0086924Y0056196D03*
X0086879Y0056151D03*
X0086788Y0054300D03*
X0086698Y0053352D03*
X0089812Y0053668D03*
D289*
X0093197Y0053352D03*
D290*
X0105091Y0056737D03*
X0108837Y0063237D03*
X0108837Y0066080D03*
X0101480Y0064185D03*
X0116555Y0066306D03*
X0119353Y0063237D03*
X0080943Y0067028D03*
X0079138Y0066171D03*
X0077152Y0053397D03*
X0054133Y0059987D03*
D291*
X0073722Y0063688D03*
X0078912Y0065539D03*
X0081982Y0065855D03*
X0085728Y0066938D03*
X0085773Y0066802D03*
X0085998Y0066171D03*
X0086134Y0065764D03*
X0086269Y0065358D03*
X0086359Y0065133D03*
X0090783Y0063462D03*
X0090828Y0063372D03*
X0093852Y0065855D03*
X0098772Y0066080D03*
X0101660Y0065764D03*
X0105452Y0065358D03*
X0105497Y0065539D03*
X0105497Y0063778D03*
X0105587Y0063553D03*
X0111139Y0065990D03*
X0114072Y0065358D03*
X0114072Y0063553D03*
X0116104Y0063553D03*
X0115968Y0065358D03*
X0124679Y0063237D03*
X0110010Y0055609D03*
X0110010Y0054029D03*
X0106490Y0055790D03*
X0099539Y0056105D03*
X0099629Y0053488D03*
X0096605Y0053488D03*
X0096605Y0056105D03*
X0094980Y0057189D03*
X0091956Y0055790D03*
X0091956Y0055699D03*
X0092046Y0055474D03*
X0092092Y0055383D03*
X0091821Y0056105D03*
X0091685Y0056557D03*
X0091550Y0056873D03*
X0086630Y0053488D03*
X0082478Y0053397D03*
X0082478Y0056105D03*
X0079544Y0053488D03*
X0077378Y0054029D03*
X0077378Y0054120D03*
X0077378Y0055609D03*
X0073857Y0055790D03*
D292*
X0073812Y0055699D03*
X0073812Y0055609D03*
X0073767Y0055474D03*
X0079454Y0053623D03*
X0079634Y0056241D03*
X0082523Y0056015D03*
X0086856Y0056105D03*
X0086675Y0054120D03*
X0086675Y0053397D03*
X0089835Y0053713D03*
X0089835Y0053804D03*
X0089745Y0056331D03*
X0091595Y0056737D03*
X0091640Y0056647D03*
X0091731Y0056421D03*
X0091776Y0056241D03*
X0091866Y0056015D03*
X0091911Y0055925D03*
X0092001Y0055609D03*
X0092227Y0054977D03*
X0091505Y0057053D03*
X0094935Y0057053D03*
X0098095Y0057279D03*
X0103646Y0055383D03*
X0103646Y0055293D03*
X0106399Y0055474D03*
X0106445Y0055609D03*
X0109965Y0055790D03*
X0110055Y0055474D03*
X0105632Y0063462D03*
X0105542Y0063688D03*
X0105407Y0065133D03*
X0105542Y0065674D03*
X0109062Y0065358D03*
X0109062Y0064004D03*
X0110958Y0064004D03*
X0111094Y0065855D03*
X0116013Y0065539D03*
X0116013Y0063778D03*
X0116058Y0063688D03*
X0119579Y0064004D03*
X0119579Y0065358D03*
X0119579Y0065448D03*
X0121745Y0065990D03*
X0121836Y0066080D03*
X0121700Y0063372D03*
X0124770Y0065764D03*
X0124724Y0065855D03*
X0124634Y0065990D03*
X0101615Y0065855D03*
X0101751Y0063237D03*
X0098681Y0063462D03*
X0098817Y0066171D03*
X0095793Y0065042D03*
X0095793Y0064952D03*
X0093762Y0065990D03*
X0093897Y0063372D03*
X0093807Y0063237D03*
X0090963Y0066080D03*
X0086314Y0065268D03*
X0086224Y0065539D03*
X0086179Y0065674D03*
X0086089Y0065855D03*
X0086044Y0065990D03*
X0086044Y0066080D03*
X0085953Y0066306D03*
X0085908Y0066396D03*
X0085818Y0066712D03*
X0082027Y0065764D03*
X0082027Y0065674D03*
X0076836Y0063688D03*
X0073767Y0063462D03*
X0065191Y0077951D03*
D293*
X0080943Y0066938D03*
X0092362Y0062289D03*
X0100171Y0067028D03*
X0108656Y0066306D03*
X0119173Y0066306D03*
X0093220Y0053397D03*
D294*
X0092137Y0055248D03*
X0092001Y0055654D03*
X0091911Y0055835D03*
X0091911Y0055880D03*
X0091866Y0055970D03*
X0091866Y0056060D03*
X0091776Y0056286D03*
X0091731Y0056376D03*
X0091595Y0056783D03*
X0091505Y0057008D03*
X0089835Y0055519D03*
X0089835Y0053758D03*
X0086675Y0053443D03*
X0086856Y0056060D03*
X0082523Y0056060D03*
X0082523Y0053443D03*
X0079499Y0053533D03*
X0079589Y0056196D03*
X0073812Y0055654D03*
X0073767Y0055428D03*
X0073812Y0053984D03*
X0073902Y0053758D03*
X0073947Y0053668D03*
X0073812Y0063327D03*
X0073767Y0063417D03*
X0076836Y0063643D03*
X0076836Y0063733D03*
X0085953Y0066261D03*
X0085908Y0066441D03*
X0086089Y0065945D03*
X0086089Y0065900D03*
X0086179Y0065629D03*
X0086224Y0065494D03*
X0086450Y0064862D03*
X0090873Y0063327D03*
X0093807Y0065900D03*
X0093807Y0065945D03*
X0095793Y0064997D03*
X0095793Y0064907D03*
X0095793Y0064862D03*
X0098681Y0063417D03*
X0098727Y0063327D03*
X0101615Y0065900D03*
X0105542Y0063643D03*
X0109062Y0063914D03*
X0109062Y0063959D03*
X0109062Y0064049D03*
X0109062Y0065313D03*
X0111094Y0065900D03*
X0114027Y0066125D03*
X0116013Y0065494D03*
X0116058Y0065629D03*
X0116058Y0063643D03*
X0119579Y0063914D03*
X0119579Y0063959D03*
X0119579Y0065313D03*
X0109965Y0055744D03*
X0110055Y0054165D03*
X0109965Y0053849D03*
X0106580Y0053668D03*
X0106535Y0053758D03*
X0106445Y0053984D03*
X0106399Y0054165D03*
X0106445Y0055654D03*
X0106535Y0055880D03*
X0103646Y0055338D03*
X0103646Y0055248D03*
X0099584Y0056060D03*
X0099584Y0053443D03*
X0096650Y0053443D03*
X0096650Y0056151D03*
X0096695Y0056196D03*
D295*
X0098095Y0057144D03*
X0093220Y0053443D03*
X0087443Y0063282D03*
X0096199Y0066125D03*
X0108656Y0063011D03*
X0119173Y0063011D03*
X0076971Y0056467D03*
X0054133Y0060077D03*
X0065327Y0077770D03*
X0052238Y0080298D03*
D296*
X0078980Y0065810D03*
X0081869Y0066125D03*
X0087465Y0062334D03*
X0091121Y0066216D03*
X0097440Y0066893D03*
X0105655Y0065900D03*
X0114005Y0063327D03*
X0116261Y0063282D03*
X0109717Y0056196D03*
X0109717Y0053443D03*
X0074060Y0056151D03*
D297*
X0073947Y0056015D03*
X0074038Y0053488D03*
X0077333Y0055790D03*
X0079725Y0056331D03*
X0082297Y0056331D03*
X0076791Y0063462D03*
X0073902Y0063147D03*
X0078957Y0065764D03*
X0091008Y0063147D03*
X0095838Y0065358D03*
X0101480Y0066171D03*
X0101525Y0066080D03*
X0105632Y0065855D03*
X0105677Y0063372D03*
X0107077Y0062199D03*
X0111003Y0063147D03*
X0111184Y0066080D03*
X0114027Y0065268D03*
X0114027Y0063372D03*
X0116194Y0063372D03*
X0117593Y0062199D03*
X0119534Y0063688D03*
X0119534Y0065674D03*
X0121881Y0063147D03*
X0124589Y0063147D03*
X0116149Y0065855D03*
X0105271Y0057053D03*
X0106670Y0056105D03*
X0109740Y0053488D03*
X0099449Y0056241D03*
X0096786Y0056331D03*
D298*
X0093197Y0053488D03*
D299*
X0086833Y0054345D03*
X0087465Y0062289D03*
X0081914Y0066080D03*
X0078980Y0065855D03*
X0098839Y0063147D03*
X0105790Y0063237D03*
X0106783Y0056241D03*
X0106693Y0053488D03*
X0114501Y0062289D03*
X0116307Y0063237D03*
D300*
X0116104Y0063598D03*
X0115968Y0063959D03*
X0115968Y0065313D03*
X0114072Y0063598D03*
X0110913Y0063914D03*
X0110913Y0063282D03*
X0105497Y0065494D03*
X0101660Y0065810D03*
X0098772Y0065629D03*
X0098772Y0065584D03*
X0098772Y0066125D03*
X0093852Y0063282D03*
X0091460Y0057144D03*
X0091550Y0056918D03*
X0091685Y0056512D03*
X0091821Y0056151D03*
X0091956Y0055744D03*
X0092046Y0055519D03*
X0092092Y0055338D03*
X0092182Y0055113D03*
X0089790Y0056286D03*
X0086630Y0053533D03*
X0082433Y0056151D03*
X0077378Y0055654D03*
X0077378Y0055564D03*
X0077378Y0054074D03*
X0073857Y0053849D03*
X0073857Y0055744D03*
X0078912Y0065494D03*
X0078912Y0065584D03*
X0081982Y0065900D03*
X0085863Y0066532D03*
X0085863Y0066577D03*
X0085998Y0066216D03*
X0085998Y0066125D03*
X0086134Y0065810D03*
X0086405Y0064997D03*
X0099629Y0055970D03*
X0096605Y0053533D03*
X0106490Y0053849D03*
X0106490Y0055744D03*
X0109920Y0055835D03*
X0109920Y0055880D03*
X0110010Y0055654D03*
X0110010Y0053984D03*
X0109920Y0053758D03*
X0121655Y0063417D03*
X0124679Y0065900D03*
X0124679Y0065945D03*
D301*
X0100216Y0062154D03*
X0094033Y0054390D03*
X0093897Y0053984D03*
X0093852Y0053849D03*
X0093807Y0053758D03*
X0093762Y0053533D03*
X0088075Y0063598D03*
X0088075Y0063643D03*
X0088120Y0063733D03*
D302*
X0089790Y0053578D03*
X0073993Y0053578D03*
X0073857Y0063192D03*
X0106625Y0053578D03*
X0111048Y0064140D03*
D303*
X0110845Y0063508D03*
X0109085Y0064140D03*
X0109085Y0065087D03*
X0109085Y0066667D03*
X0109085Y0066983D03*
X0109085Y0067299D03*
X0109085Y0067615D03*
X0109085Y0067931D03*
X0109085Y0068247D03*
X0109085Y0068563D03*
X0109085Y0068879D03*
X0115900Y0065087D03*
X0115900Y0064771D03*
X0115900Y0064455D03*
X0110078Y0054210D03*
X0092385Y0054526D03*
X0089858Y0054526D03*
X0089858Y0054210D03*
X0089858Y0053894D03*
X0079476Y0053578D03*
X0086698Y0064140D03*
X0089090Y0066667D03*
D304*
X0093852Y0053894D03*
X0093762Y0053578D03*
D305*
X0092272Y0054842D03*
X0096560Y0053578D03*
X0086721Y0054210D03*
X0073767Y0063508D03*
X0082027Y0065719D03*
X0085818Y0066667D03*
X0086044Y0066035D03*
X0089203Y0066983D03*
X0095793Y0065087D03*
X0109062Y0065403D03*
X0119579Y0065403D03*
X0109965Y0053894D03*
D306*
X0109830Y0053578D03*
X0110958Y0063192D03*
X0114524Y0062244D03*
X0121836Y0063192D03*
X0098817Y0063192D03*
X0090963Y0063192D03*
X0081936Y0066035D03*
X0078957Y0065719D03*
X0076791Y0063508D03*
X0077333Y0053894D03*
D307*
X0079228Y0054300D03*
X0079228Y0054390D03*
X0079228Y0054481D03*
X0079364Y0053849D03*
X0079228Y0055248D03*
X0079228Y0055338D03*
X0079364Y0055835D03*
X0082658Y0055744D03*
X0086946Y0063417D03*
X0088842Y0065900D03*
X0094033Y0063643D03*
X0094664Y0056286D03*
X0094529Y0055880D03*
X0094529Y0055835D03*
X0096425Y0055744D03*
X0096425Y0053849D03*
X0099720Y0053668D03*
X0121475Y0063914D03*
X0121475Y0063959D03*
D308*
X0121475Y0064004D03*
X0121475Y0063869D03*
X0121475Y0065358D03*
X0105407Y0064185D03*
X0099720Y0055790D03*
X0099720Y0053713D03*
X0096425Y0055790D03*
X0094664Y0056241D03*
X0092633Y0053804D03*
X0082658Y0053713D03*
X0079228Y0054345D03*
X0079228Y0054435D03*
X0079228Y0055293D03*
X0079364Y0055790D03*
X0086946Y0063462D03*
X0088842Y0065855D03*
X0088977Y0066306D03*
X0090738Y0065764D03*
X0094033Y0065448D03*
X0094033Y0063688D03*
D309*
X0091437Y0057189D03*
X0081959Y0065990D03*
X0074873Y0062199D03*
X0101683Y0063147D03*
X0109897Y0055925D03*
X0109897Y0053713D03*
X0124566Y0066080D03*
D310*
X0119647Y0062424D03*
X0119647Y0062289D03*
X0103579Y0057189D03*
X0103579Y0057053D03*
X0103579Y0056963D03*
X0103579Y0056873D03*
X0103579Y0056737D03*
X0103579Y0056647D03*
X0103579Y0056557D03*
X0103579Y0056421D03*
X0094371Y0055383D03*
X0094236Y0054977D03*
X0094190Y0054887D03*
X0094100Y0054571D03*
X0093829Y0053804D03*
X0088052Y0063553D03*
X0088278Y0064185D03*
X0088413Y0064636D03*
X0088549Y0065042D03*
X0090580Y0065268D03*
X0080921Y0067118D03*
X0079296Y0055609D03*
D311*
X0073789Y0055564D03*
X0073789Y0055519D03*
X0073789Y0054074D03*
X0082771Y0055248D03*
X0086698Y0054165D03*
X0086833Y0055970D03*
X0089858Y0055564D03*
X0089858Y0054797D03*
X0089858Y0054706D03*
X0089858Y0054616D03*
X0089858Y0054481D03*
X0089858Y0054390D03*
X0089858Y0054300D03*
X0089858Y0054165D03*
X0089858Y0054074D03*
X0089858Y0053984D03*
X0089858Y0053849D03*
X0092385Y0054481D03*
X0092520Y0054165D03*
X0092250Y0054932D03*
X0094777Y0056602D03*
X0094913Y0057008D03*
X0096312Y0054390D03*
X0106422Y0054074D03*
X0106422Y0055519D03*
X0106422Y0055564D03*
X0110078Y0055428D03*
X0110078Y0055338D03*
X0110078Y0054300D03*
X0116036Y0063733D03*
X0115900Y0064275D03*
X0115900Y0064365D03*
X0115900Y0064546D03*
X0115900Y0064591D03*
X0115900Y0064681D03*
X0115900Y0064862D03*
X0115900Y0064907D03*
X0115900Y0064997D03*
X0121587Y0063598D03*
X0121723Y0065945D03*
X0124747Y0065810D03*
X0124882Y0065494D03*
X0124747Y0063327D03*
X0109085Y0064230D03*
X0109085Y0064275D03*
X0109085Y0065178D03*
X0109085Y0065223D03*
X0109085Y0066532D03*
X0109085Y0066577D03*
X0109085Y0066757D03*
X0109085Y0066848D03*
X0109085Y0066893D03*
X0109085Y0067073D03*
X0109085Y0067164D03*
X0109085Y0067209D03*
X0109085Y0067389D03*
X0109085Y0067480D03*
X0109085Y0067525D03*
X0109085Y0067705D03*
X0109085Y0067795D03*
X0109085Y0067841D03*
X0109085Y0068021D03*
X0109085Y0068111D03*
X0109085Y0068157D03*
X0109085Y0068337D03*
X0109085Y0068427D03*
X0109085Y0068472D03*
X0109085Y0068653D03*
X0109085Y0068743D03*
X0109085Y0068788D03*
X0098704Y0065810D03*
X0089090Y0066577D03*
X0086202Y0065584D03*
X0086563Y0064591D03*
X0086563Y0064546D03*
D312*
X0088278Y0064275D03*
X0088278Y0064230D03*
X0088413Y0064591D03*
X0088503Y0064862D03*
X0088503Y0064907D03*
X0088549Y0064997D03*
X0088007Y0063417D03*
X0090580Y0065223D03*
X0090670Y0065584D03*
X0094326Y0055248D03*
X0094236Y0055022D03*
X0094100Y0054616D03*
X0093965Y0054165D03*
X0096357Y0055519D03*
X0099787Y0053849D03*
X0103579Y0056376D03*
X0103579Y0056467D03*
X0103579Y0056512D03*
X0103579Y0056602D03*
X0103579Y0056692D03*
X0103579Y0056783D03*
X0103579Y0056828D03*
X0103579Y0056918D03*
X0103579Y0057008D03*
X0103579Y0057098D03*
X0103579Y0057144D03*
X0119647Y0062334D03*
X0119647Y0062379D03*
X0119647Y0062470D03*
X0121542Y0065584D03*
X0079296Y0055564D03*
D313*
X0073857Y0053894D03*
X0086269Y0065403D03*
X0090918Y0066035D03*
X0097508Y0066983D03*
X0101796Y0063824D03*
X0105452Y0065403D03*
X0114072Y0063508D03*
X0115968Y0065403D03*
X0121791Y0066035D03*
X0106490Y0053894D03*
D314*
X0096425Y0053894D03*
X0094033Y0065403D03*
X0090738Y0065719D03*
X0079228Y0054526D03*
X0105407Y0064140D03*
X0121475Y0065403D03*
D315*
X0121587Y0063553D03*
X0124747Y0063372D03*
X0124882Y0065448D03*
X0115900Y0065042D03*
X0115900Y0064952D03*
X0115900Y0064817D03*
X0115900Y0064726D03*
X0115900Y0064636D03*
X0115900Y0064501D03*
X0115900Y0064410D03*
X0115900Y0064320D03*
X0109085Y0064185D03*
X0109085Y0064094D03*
X0109085Y0065133D03*
X0109085Y0065268D03*
X0109085Y0066487D03*
X0109085Y0066622D03*
X0109085Y0066712D03*
X0109085Y0066802D03*
X0109085Y0066938D03*
X0109085Y0067028D03*
X0109085Y0067118D03*
X0109085Y0067254D03*
X0109085Y0067344D03*
X0109085Y0067434D03*
X0109085Y0067570D03*
X0109085Y0067660D03*
X0109085Y0067750D03*
X0109085Y0067886D03*
X0109085Y0067976D03*
X0109085Y0068066D03*
X0109085Y0068202D03*
X0109085Y0068292D03*
X0109085Y0068382D03*
X0109085Y0068518D03*
X0109085Y0068608D03*
X0109085Y0068698D03*
X0109085Y0068834D03*
X0096808Y0066171D03*
X0089226Y0067028D03*
X0089090Y0066622D03*
X0086563Y0064501D03*
X0086698Y0064185D03*
X0086833Y0063778D03*
X0081011Y0057279D03*
X0079476Y0056015D03*
X0073789Y0054120D03*
X0073789Y0054029D03*
X0082771Y0055293D03*
X0086833Y0056015D03*
X0089858Y0055609D03*
X0089858Y0054751D03*
X0089858Y0054661D03*
X0089858Y0054571D03*
X0089858Y0054435D03*
X0089858Y0054345D03*
X0089858Y0054255D03*
X0089858Y0054120D03*
X0089858Y0054029D03*
X0089858Y0053939D03*
X0092250Y0054887D03*
X0092385Y0054571D03*
X0092520Y0054120D03*
X0094777Y0056557D03*
X0094777Y0056647D03*
X0094913Y0056963D03*
X0106422Y0054120D03*
X0106422Y0054029D03*
X0110078Y0054255D03*
X0110078Y0054345D03*
X0110078Y0055293D03*
X0110078Y0055383D03*
D316*
X0094190Y0054842D03*
X0093965Y0054210D03*
X0088142Y0063824D03*
D317*
X0092340Y0064410D03*
X0092340Y0064952D03*
X0092340Y0065042D03*
X0098072Y0055158D03*
X0098072Y0054661D03*
X0098072Y0054571D03*
X0112831Y0062740D03*
X0123212Y0064952D03*
X0123212Y0065042D03*
X0081011Y0055158D03*
X0081011Y0055067D03*
X0081011Y0054977D03*
X0081011Y0054887D03*
X0081011Y0054751D03*
X0081011Y0054661D03*
X0081011Y0054571D03*
X0065620Y0076552D03*
X0042150Y0076552D03*
D318*
X0087443Y0054616D03*
X0092362Y0062334D03*
X0098095Y0057098D03*
X0107031Y0062379D03*
X0123235Y0062334D03*
D319*
X0111906Y0064501D03*
X0100171Y0066938D03*
X0087623Y0054661D03*
X0065417Y0077635D03*
D320*
X0087736Y0054706D03*
X0112064Y0062470D03*
X0112019Y0064546D03*
D321*
X0107032Y0062515D03*
X0098095Y0056963D03*
X0087849Y0054751D03*
X0081033Y0056963D03*
X0074850Y0062605D03*
X0123190Y0066802D03*
D322*
X0098095Y0055022D03*
X0098095Y0054932D03*
X0098095Y0054797D03*
X0080988Y0054797D03*
X0053592Y0077906D03*
D323*
X0088548Y0054842D03*
D324*
X0088639Y0054932D03*
X0108227Y0056692D03*
D325*
X0108228Y0056737D03*
X0092340Y0066396D03*
X0088684Y0054977D03*
X0081011Y0056557D03*
X0065575Y0077184D03*
X0052982Y0079395D03*
D326*
X0042240Y0077274D03*
X0088774Y0055022D03*
X0092340Y0066532D03*
D327*
X0088864Y0055067D03*
X0108227Y0056873D03*
D328*
X0117548Y0062650D03*
X0088977Y0055113D03*
X0052689Y0079847D03*
D329*
X0080943Y0066848D03*
X0089293Y0055203D03*
D330*
X0089451Y0055248D03*
X0081011Y0057144D03*
X0076452Y0062966D03*
X0101277Y0064275D03*
X0104030Y0056286D03*
D331*
X0089609Y0055293D03*
X0106038Y0066306D03*
D332*
X0099110Y0065268D03*
X0103895Y0056105D03*
X0087465Y0062831D03*
X0076588Y0063056D03*
D333*
X0092340Y0066938D03*
X0104120Y0056331D03*
X0112651Y0067028D03*
X0123212Y0066938D03*
X0054110Y0060123D03*
D334*
X0079115Y0066125D03*
X0087465Y0062695D03*
X0091257Y0062966D03*
X0082004Y0056512D03*
D335*
X0088345Y0056557D03*
X0108205Y0056557D03*
X0112628Y0066396D03*
D336*
X0075820Y0056602D03*
X0054111Y0061431D03*
D337*
X0092362Y0062785D03*
X0100216Y0062650D03*
X0098095Y0056602D03*
X0123235Y0062785D03*
D338*
X0123235Y0062740D03*
X0098095Y0056647D03*
D339*
X0107009Y0062785D03*
X0106964Y0066532D03*
X0112651Y0066757D03*
X0113102Y0064907D03*
X0117480Y0066532D03*
X0117525Y0062785D03*
X0075279Y0056692D03*
X0065530Y0077364D03*
X0042240Y0077364D03*
D340*
X0088368Y0056737D03*
D341*
X0098095Y0056737D03*
X0106986Y0062831D03*
X0100171Y0066712D03*
X0117503Y0062831D03*
X0054133Y0060754D03*
D342*
X0081011Y0056783D03*
D343*
X0088391Y0056783D03*
X0092317Y0066441D03*
X0123190Y0066441D03*
D344*
X0098095Y0056783D03*
D345*
X0080921Y0066532D03*
X0080921Y0066577D03*
X0075279Y0056828D03*
D346*
X0075279Y0056873D03*
X0080921Y0066622D03*
X0100239Y0062424D03*
X0106964Y0066712D03*
X0117480Y0066712D03*
D347*
X0113237Y0064952D03*
X0081011Y0056873D03*
D348*
X0075279Y0056918D03*
X0054110Y0060393D03*
X0106964Y0066757D03*
X0117480Y0066757D03*
X0123212Y0062470D03*
D349*
X0123212Y0066757D03*
X0108228Y0057008D03*
X0092340Y0066757D03*
X0081011Y0056918D03*
D350*
X0075301Y0056963D03*
X0092362Y0062424D03*
X0112628Y0066938D03*
X0117503Y0066802D03*
X0123235Y0062424D03*
D351*
X0123212Y0066712D03*
X0108227Y0056963D03*
X0099877Y0064952D03*
X0092340Y0066712D03*
D352*
X0100238Y0062334D03*
X0106964Y0066848D03*
X0108227Y0057098D03*
X0117480Y0066848D03*
X0075279Y0057008D03*
D353*
X0081011Y0057008D03*
X0080921Y0066757D03*
X0092340Y0066848D03*
X0098072Y0057008D03*
X0123212Y0066848D03*
D354*
X0081011Y0057053D03*
D355*
X0088391Y0057053D03*
X0112177Y0064636D03*
X0054133Y0060438D03*
D356*
X0088391Y0057098D03*
D357*
X0075301Y0057144D03*
X0108701Y0066261D03*
D358*
X0092363Y0062379D03*
X0088391Y0057144D03*
X0042398Y0077680D03*
D359*
X0081011Y0057189D03*
X0087465Y0062921D03*
X0092340Y0067028D03*
X0096086Y0065990D03*
X0097215Y0066396D03*
X0098072Y0057189D03*
X0123212Y0067028D03*
D360*
X0117503Y0066938D03*
X0088391Y0057189D03*
D361*
X0105429Y0057234D03*
D362*
X0105497Y0057279D03*
X0051876Y0080569D03*
D363*
X0075279Y0057324D03*
X0081011Y0057324D03*
X0108227Y0057324D03*
D364*
X0088436Y0057324D03*
D365*
X0098095Y0057324D03*
X0106941Y0067164D03*
D366*
X0105519Y0057324D03*
D367*
X0096109Y0066035D03*
X0080943Y0066983D03*
X0054133Y0060032D03*
D368*
X0054133Y0060258D03*
D369*
X0054133Y0060303D03*
D370*
X0054133Y0060348D03*
D371*
X0054133Y0060484D03*
X0052644Y0079892D03*
X0100171Y0066848D03*
D372*
X0065507Y0077409D03*
X0054133Y0060619D03*
D373*
X0054156Y0060664D03*
D374*
X0054133Y0060709D03*
X0100171Y0066757D03*
D375*
X0054133Y0061025D03*
X0053005Y0079350D03*
D376*
X0054133Y0061070D03*
D377*
X0054110Y0061115D03*
X0100148Y0066441D03*
D378*
X0100239Y0062831D03*
X0054111Y0061161D03*
D379*
X0054133Y0061206D03*
D380*
X0054133Y0061251D03*
X0065597Y0077003D03*
D381*
X0054133Y0061296D03*
D382*
X0054133Y0061341D03*
D383*
X0054133Y0061386D03*
D384*
X0054133Y0061522D03*
X0066636Y0061973D03*
X0053501Y0078222D03*
D385*
X0054111Y0061612D03*
D386*
X0054133Y0061657D03*
X0041315Y0062154D03*
X0053682Y0077454D03*
X0065643Y0076416D03*
D387*
X0053750Y0077093D03*
X0053750Y0077184D03*
X0054111Y0061702D03*
D388*
X0054133Y0061747D03*
X0053817Y0076642D03*
X0053817Y0076732D03*
D389*
X0065620Y0076145D03*
X0054111Y0061792D03*
D390*
X0054110Y0061838D03*
X0053885Y0074746D03*
X0053885Y0074837D03*
X0065620Y0076010D03*
D391*
X0053885Y0074566D03*
X0054110Y0061883D03*
D392*
X0054111Y0061928D03*
D393*
X0066658Y0061928D03*
D394*
X0054133Y0061973D03*
D395*
X0054133Y0062018D03*
X0065507Y0075333D03*
D396*
X0066613Y0062018D03*
D397*
X0054133Y0062063D03*
D398*
X0054133Y0062108D03*
D399*
X0054133Y0062154D03*
D400*
X0066455Y0062154D03*
D401*
X0074895Y0062154D03*
X0107076Y0062154D03*
X0117593Y0062154D03*
D402*
X0092385Y0062154D03*
D403*
X0111996Y0062154D03*
D404*
X0114479Y0062154D03*
D405*
X0123257Y0062154D03*
D406*
X0053885Y0062199D03*
X0053885Y0062289D03*
X0053885Y0062424D03*
X0053885Y0062515D03*
X0053885Y0062605D03*
X0053885Y0062740D03*
X0053885Y0062831D03*
X0053885Y0062921D03*
X0053885Y0063056D03*
X0053885Y0063147D03*
X0053885Y0063237D03*
X0053885Y0063372D03*
X0053885Y0063462D03*
X0053885Y0063553D03*
X0053885Y0063688D03*
X0053885Y0063778D03*
X0053885Y0063869D03*
X0053885Y0064004D03*
X0053885Y0064094D03*
X0053885Y0064185D03*
X0053885Y0064320D03*
X0053885Y0064410D03*
X0053885Y0064501D03*
X0053885Y0064636D03*
X0053885Y0064726D03*
X0053885Y0064817D03*
X0053885Y0064952D03*
X0053885Y0065042D03*
X0053885Y0065133D03*
X0053885Y0065268D03*
X0053885Y0065358D03*
X0053885Y0065448D03*
X0053885Y0065539D03*
X0053885Y0065674D03*
X0053885Y0065764D03*
X0053885Y0065855D03*
X0053885Y0065990D03*
X0053885Y0066080D03*
X0053885Y0066171D03*
X0053885Y0066306D03*
X0053885Y0066396D03*
X0053885Y0066487D03*
X0053885Y0066622D03*
X0053885Y0066712D03*
X0053885Y0066802D03*
X0053885Y0066938D03*
X0053885Y0067028D03*
X0053885Y0067118D03*
X0053885Y0067254D03*
X0053885Y0067344D03*
X0053885Y0067434D03*
X0053885Y0067570D03*
X0053885Y0067660D03*
X0053885Y0067750D03*
X0053885Y0067886D03*
X0053885Y0067976D03*
X0053885Y0068066D03*
X0053885Y0068202D03*
X0053885Y0068292D03*
X0053885Y0068382D03*
X0053885Y0068518D03*
X0053885Y0068608D03*
X0053885Y0068698D03*
X0053885Y0068834D03*
X0053885Y0068924D03*
X0053885Y0069014D03*
X0053885Y0069104D03*
X0053885Y0069240D03*
X0053885Y0069330D03*
X0053885Y0069420D03*
X0053885Y0069556D03*
X0053885Y0069646D03*
X0053885Y0069736D03*
X0053885Y0069872D03*
X0053885Y0069962D03*
X0053885Y0070052D03*
X0053885Y0070188D03*
X0053885Y0070278D03*
X0053885Y0070368D03*
X0053885Y0070504D03*
X0053885Y0070594D03*
X0053885Y0070684D03*
X0053885Y0070820D03*
X0053885Y0070910D03*
X0053885Y0071000D03*
X0053885Y0071135D03*
X0053885Y0071226D03*
X0053885Y0071316D03*
X0053885Y0071451D03*
X0053885Y0071542D03*
X0053885Y0071632D03*
X0053885Y0071767D03*
X0053885Y0071858D03*
X0053885Y0071948D03*
X0053885Y0072083D03*
X0053885Y0072174D03*
X0053885Y0072264D03*
X0053885Y0072399D03*
X0053885Y0072490D03*
X0053885Y0072580D03*
X0053885Y0072670D03*
X0053885Y0072805D03*
D407*
X0053885Y0072354D03*
X0053885Y0072038D03*
X0053885Y0071722D03*
X0053885Y0071406D03*
X0053885Y0071090D03*
X0053885Y0070774D03*
X0053885Y0070458D03*
X0053885Y0070142D03*
X0053885Y0069827D03*
X0053885Y0069511D03*
X0053885Y0069195D03*
X0053885Y0068879D03*
X0053885Y0068563D03*
X0053885Y0068247D03*
X0053885Y0067931D03*
X0053885Y0067615D03*
X0053885Y0067299D03*
X0053885Y0066983D03*
X0053885Y0066667D03*
X0053885Y0066351D03*
X0053885Y0066035D03*
X0053885Y0065719D03*
X0053885Y0065403D03*
X0053885Y0065087D03*
X0053885Y0064771D03*
X0053885Y0064455D03*
X0053885Y0064140D03*
X0053885Y0063824D03*
X0053885Y0063508D03*
X0053885Y0063192D03*
X0053885Y0062876D03*
X0053885Y0062560D03*
X0053885Y0062244D03*
D408*
X0052147Y0080388D03*
X0087443Y0062876D03*
X0092362Y0062244D03*
D409*
X0100216Y0062244D03*
D410*
X0107054Y0062244D03*
X0122219Y0066351D03*
D411*
X0124205Y0066351D03*
X0117570Y0062244D03*
X0113734Y0066351D03*
X0108859Y0066035D03*
X0101547Y0064140D03*
X0099065Y0066351D03*
X0093333Y0066351D03*
X0091347Y0066351D03*
D412*
X0108814Y0063192D03*
X0119331Y0063192D03*
X0123212Y0062244D03*
D413*
X0100216Y0062289D03*
D414*
X0097192Y0066306D03*
X0107031Y0062289D03*
D415*
X0053885Y0062334D03*
X0053885Y0062379D03*
X0053885Y0062470D03*
X0053885Y0062650D03*
X0053885Y0062695D03*
X0053885Y0062785D03*
X0053885Y0062966D03*
X0053885Y0063011D03*
X0053885Y0063101D03*
X0053885Y0063282D03*
X0053885Y0063327D03*
X0053885Y0063417D03*
X0053885Y0063598D03*
X0053885Y0063643D03*
X0053885Y0063733D03*
X0053885Y0063914D03*
X0053885Y0063959D03*
X0053885Y0064049D03*
X0053885Y0064230D03*
X0053885Y0064275D03*
X0053885Y0064365D03*
X0053885Y0064546D03*
X0053885Y0064591D03*
X0053885Y0064681D03*
X0053885Y0064862D03*
X0053885Y0064907D03*
X0053885Y0064997D03*
X0053885Y0065178D03*
X0053885Y0065223D03*
X0053885Y0065313D03*
X0053885Y0065494D03*
X0053885Y0065584D03*
X0053885Y0065629D03*
X0053885Y0065810D03*
X0053885Y0065900D03*
X0053885Y0065945D03*
X0053885Y0066125D03*
X0053885Y0066216D03*
X0053885Y0066261D03*
X0053885Y0066441D03*
X0053885Y0066532D03*
X0053885Y0066577D03*
X0053885Y0066757D03*
X0053885Y0066848D03*
X0053885Y0066893D03*
X0053885Y0067073D03*
X0053885Y0067164D03*
X0053885Y0067209D03*
X0053885Y0067389D03*
X0053885Y0067480D03*
X0053885Y0067525D03*
X0053885Y0067705D03*
X0053885Y0067795D03*
X0053885Y0067841D03*
X0053885Y0068021D03*
X0053885Y0068111D03*
X0053885Y0068157D03*
X0053885Y0068337D03*
X0053885Y0068427D03*
X0053885Y0068472D03*
X0053885Y0068653D03*
X0053885Y0068743D03*
X0053885Y0068788D03*
X0053885Y0068969D03*
X0053885Y0069059D03*
X0053885Y0069150D03*
X0053885Y0069285D03*
X0053885Y0069375D03*
X0053885Y0069465D03*
X0053885Y0069601D03*
X0053885Y0069691D03*
X0053885Y0069781D03*
X0053885Y0069917D03*
X0053885Y0070007D03*
X0053885Y0070097D03*
X0053885Y0070233D03*
X0053885Y0070323D03*
X0053885Y0070413D03*
X0053885Y0070549D03*
X0053885Y0070639D03*
X0053885Y0070729D03*
X0053885Y0070865D03*
X0053885Y0070955D03*
X0053885Y0071045D03*
X0053885Y0071181D03*
X0053885Y0071271D03*
X0053885Y0071361D03*
X0053885Y0071497D03*
X0053885Y0071587D03*
X0053885Y0071677D03*
X0053885Y0071812D03*
X0053885Y0071903D03*
X0053885Y0071993D03*
X0053885Y0072128D03*
X0053885Y0072219D03*
X0053885Y0072309D03*
X0053885Y0072444D03*
X0053885Y0072535D03*
X0053885Y0072625D03*
X0053885Y0072715D03*
X0053885Y0072760D03*
X0053885Y0072851D03*
D416*
X0074850Y0062334D03*
D417*
X0074828Y0062379D03*
X0087465Y0063327D03*
X0099336Y0065178D03*
X0107054Y0062334D03*
X0113734Y0062966D03*
X0117570Y0062334D03*
X0042466Y0077770D03*
D418*
X0123235Y0062379D03*
D419*
X0101164Y0064320D03*
X0074850Y0062424D03*
X0065372Y0077725D03*
D420*
X0112086Y0062424D03*
D421*
X0117548Y0062424D03*
D422*
X0123212Y0066893D03*
X0074828Y0062470D03*
D423*
X0100239Y0062470D03*
X0042285Y0077454D03*
D424*
X0117548Y0062515D03*
D425*
X0074850Y0062560D03*
D426*
X0076678Y0063192D03*
X0079070Y0066035D03*
X0087465Y0062560D03*
X0095951Y0065719D03*
X0114411Y0062560D03*
D427*
X0092362Y0062560D03*
X0074850Y0062876D03*
D428*
X0100239Y0062560D03*
D429*
X0112109Y0062560D03*
D430*
X0123212Y0062560D03*
X0123212Y0066667D03*
D431*
X0112109Y0062605D03*
X0052711Y0079801D03*
D432*
X0052824Y0079666D03*
X0123235Y0062650D03*
D433*
X0100239Y0062695D03*
X0065575Y0077138D03*
X0042195Y0077138D03*
D434*
X0100035Y0064862D03*
X0100532Y0064591D03*
X0106986Y0062695D03*
D435*
X0112854Y0062695D03*
D436*
X0074850Y0062740D03*
D437*
X0087465Y0062740D03*
X0097305Y0066622D03*
X0113869Y0065133D03*
D438*
X0123190Y0066487D03*
X0092363Y0062740D03*
D439*
X0092317Y0066622D03*
X0106986Y0062740D03*
X0123190Y0066622D03*
X0052779Y0079711D03*
D440*
X0100261Y0062785D03*
D441*
X0092317Y0064501D03*
X0092317Y0064636D03*
X0092317Y0064726D03*
X0092317Y0064817D03*
X0112809Y0062831D03*
X0123190Y0064410D03*
X0123190Y0064501D03*
X0123190Y0064636D03*
X0123190Y0064726D03*
X0123190Y0064817D03*
D442*
X0092363Y0062876D03*
D443*
X0100239Y0062876D03*
D444*
X0106986Y0062876D03*
D445*
X0112809Y0062876D03*
X0123190Y0064455D03*
X0123190Y0064771D03*
X0092317Y0064771D03*
D446*
X0118022Y0062876D03*
D447*
X0123235Y0062876D03*
D448*
X0075392Y0062921D03*
D449*
X0053208Y0078989D03*
X0100239Y0062921D03*
D450*
X0107483Y0062921D03*
X0107483Y0066396D03*
X0117999Y0066396D03*
X0117999Y0062921D03*
X0053411Y0078447D03*
D451*
X0087443Y0063011D03*
X0097192Y0066216D03*
X0097192Y0066261D03*
X0101390Y0064230D03*
D452*
X0087443Y0063147D03*
D453*
X0087465Y0063192D03*
X0123212Y0066983D03*
D454*
X0124611Y0066035D03*
X0124657Y0063192D03*
X0119556Y0063824D03*
X0116126Y0063508D03*
X0116081Y0065719D03*
X0109040Y0063824D03*
X0105609Y0063508D03*
X0105565Y0065719D03*
X0101548Y0066035D03*
X0101728Y0063192D03*
X0093784Y0063192D03*
X0093739Y0066035D03*
X0085931Y0066351D03*
X0085705Y0066983D03*
D455*
X0113937Y0063192D03*
D456*
X0088030Y0063462D03*
D457*
X0088030Y0063508D03*
D458*
X0108950Y0063508D03*
X0119466Y0063508D03*
D459*
X0106964Y0066802D03*
X0100916Y0064410D03*
D460*
X0092340Y0064455D03*
D461*
X0100803Y0064455D03*
D462*
X0108566Y0066351D03*
X0111725Y0064455D03*
X0119083Y0066351D03*
D463*
X0112109Y0064591D03*
X0052576Y0079982D03*
D464*
X0100284Y0064726D03*
D465*
X0100216Y0064771D03*
D466*
X0112876Y0064771D03*
D467*
X0112944Y0064817D03*
D468*
X0099765Y0064997D03*
D469*
X0099562Y0065087D03*
D470*
X0113711Y0065087D03*
X0117503Y0066983D03*
D471*
X0099426Y0065133D03*
X0042420Y0077725D03*
D472*
X0111161Y0066035D03*
D473*
X0116284Y0066035D03*
D474*
X0119398Y0066035D03*
D475*
X0079341Y0066351D03*
D476*
X0065259Y0077861D03*
X0042511Y0077861D03*
X0111522Y0066351D03*
D477*
X0100171Y0066396D03*
D478*
X0107483Y0066441D03*
X0117999Y0066441D03*
X0065643Y0076732D03*
D479*
X0106941Y0066487D03*
D480*
X0117480Y0066487D03*
X0065530Y0077319D03*
X0042240Y0077319D03*
D481*
X0100171Y0066532D03*
X0112628Y0066577D03*
D482*
X0092340Y0066577D03*
D483*
X0100148Y0066577D03*
D484*
X0117480Y0066577D03*
D485*
X0112628Y0066622D03*
D486*
X0092340Y0066667D03*
D487*
X0097327Y0066667D03*
D488*
X0100148Y0066667D03*
D489*
X0106964Y0066667D03*
X0117480Y0066667D03*
D490*
X0112628Y0066667D03*
D491*
X0117503Y0066893D03*
D492*
X0092340Y0066983D03*
D493*
X0100171Y0066983D03*
D494*
X0112651Y0066983D03*
D495*
X0097621Y0067073D03*
D496*
X0097688Y0067118D03*
D497*
X0092340Y0067164D03*
X0080921Y0067164D03*
X0123212Y0067164D03*
D498*
X0097688Y0067164D03*
D499*
X0100193Y0067164D03*
D500*
X0112696Y0067164D03*
D501*
X0117480Y0067164D03*
D502*
X0043594Y0072896D03*
D503*
X0053885Y0072896D03*
D504*
X0064198Y0072896D03*
D505*
X0043481Y0072941D03*
D506*
X0053885Y0072941D03*
D507*
X0064311Y0072941D03*
D508*
X0043391Y0072986D03*
D509*
X0053908Y0072986D03*
D510*
X0064401Y0072986D03*
D511*
X0043323Y0073031D03*
D512*
X0053885Y0073031D03*
D513*
X0064469Y0073031D03*
D514*
X0043278Y0073076D03*
D515*
X0043097Y0073257D03*
X0053885Y0073076D03*
D516*
X0064514Y0073076D03*
D517*
X0043233Y0073121D03*
D518*
X0053885Y0073121D03*
D519*
X0064559Y0073121D03*
D520*
X0064605Y0073167D03*
X0043165Y0073167D03*
D521*
X0053885Y0073167D03*
D522*
X0043143Y0073212D03*
D523*
X0053885Y0073212D03*
D524*
X0064650Y0073212D03*
D525*
X0053907Y0073257D03*
D526*
X0064695Y0073257D03*
D527*
X0064717Y0073302D03*
X0043052Y0073302D03*
D528*
X0053885Y0073302D03*
D529*
X0043030Y0073347D03*
D530*
X0042624Y0074205D03*
X0053908Y0073347D03*
X0065146Y0074205D03*
D531*
X0064762Y0073347D03*
D532*
X0064785Y0073392D03*
X0042985Y0073392D03*
D533*
X0042601Y0074295D03*
X0053885Y0073392D03*
D534*
X0042962Y0073437D03*
X0064808Y0073437D03*
D535*
X0053885Y0073437D03*
D536*
X0042940Y0073482D03*
D537*
X0053908Y0073482D03*
D538*
X0064853Y0073482D03*
D539*
X0042894Y0073528D03*
D540*
X0053907Y0073528D03*
D541*
X0064875Y0073528D03*
D542*
X0064898Y0073573D03*
X0042872Y0073573D03*
D543*
X0053885Y0073573D03*
D544*
X0064920Y0073618D03*
X0042849Y0073618D03*
D545*
X0053885Y0073618D03*
D546*
X0064943Y0073663D03*
X0042827Y0073663D03*
X0042827Y0073708D03*
D547*
X0042375Y0074972D03*
X0053885Y0073663D03*
X0065394Y0074972D03*
D548*
X0053885Y0073708D03*
X0042375Y0075062D03*
D549*
X0064966Y0073708D03*
D550*
X0064966Y0073753D03*
X0042804Y0073753D03*
D551*
X0042353Y0075107D03*
X0053908Y0073753D03*
D552*
X0064988Y0073798D03*
X0042782Y0073798D03*
D553*
X0053907Y0073798D03*
D554*
X0065011Y0073844D03*
X0042759Y0073844D03*
D555*
X0053885Y0073844D03*
D556*
X0065033Y0073889D03*
X0042736Y0073889D03*
D557*
X0042285Y0075288D03*
X0053885Y0073889D03*
X0065484Y0075288D03*
D558*
X0042736Y0073934D03*
D559*
X0053885Y0073934D03*
D560*
X0065056Y0073934D03*
D561*
X0065056Y0073979D03*
X0042714Y0073979D03*
D562*
X0053908Y0073979D03*
D563*
X0065078Y0074024D03*
X0042691Y0074024D03*
D564*
X0053885Y0074024D03*
D565*
X0065101Y0074069D03*
X0042669Y0074069D03*
D566*
X0042240Y0075514D03*
X0053885Y0074069D03*
X0065530Y0075514D03*
D567*
X0065124Y0074114D03*
X0042646Y0074114D03*
D568*
X0053885Y0074114D03*
D569*
X0042646Y0074160D03*
D570*
X0053885Y0074160D03*
D571*
X0065146Y0074160D03*
D572*
X0053885Y0074205D03*
D573*
X0065169Y0074250D03*
X0042601Y0074250D03*
D574*
X0042240Y0075649D03*
X0053885Y0074250D03*
D575*
X0053885Y0074295D03*
X0053885Y0074340D03*
D576*
X0065191Y0074295D03*
D577*
X0065191Y0074340D03*
X0042579Y0074340D03*
D578*
X0042579Y0074385D03*
D579*
X0053862Y0074385D03*
D580*
X0065214Y0074385D03*
D581*
X0042556Y0074430D03*
D582*
X0053885Y0074430D03*
D583*
X0065236Y0074430D03*
D584*
X0065236Y0074475D03*
X0042533Y0074475D03*
D585*
X0042217Y0075830D03*
X0053862Y0074475D03*
D586*
X0042511Y0074521D03*
X0065259Y0074521D03*
D587*
X0053885Y0074521D03*
X0042195Y0075875D03*
D588*
X0042488Y0074566D03*
X0065282Y0074566D03*
D589*
X0042511Y0074611D03*
D590*
X0053885Y0074611D03*
X0053885Y0074656D03*
D591*
X0065304Y0074611D03*
D592*
X0042488Y0074656D03*
D593*
X0065304Y0074656D03*
D594*
X0065304Y0074701D03*
X0042466Y0074701D03*
D595*
X0053885Y0074701D03*
D596*
X0065327Y0074746D03*
X0042443Y0074746D03*
D597*
X0042421Y0074791D03*
X0065349Y0074791D03*
D598*
X0053885Y0074791D03*
X0053885Y0074882D03*
D599*
X0042443Y0074837D03*
D600*
X0065372Y0074837D03*
D601*
X0042420Y0074882D03*
D602*
X0065372Y0074882D03*
D603*
X0065372Y0074927D03*
X0042398Y0074927D03*
D604*
X0053885Y0074927D03*
X0053885Y0074972D03*
X0053885Y0075062D03*
D605*
X0042375Y0075017D03*
D606*
X0053885Y0075017D03*
X0053885Y0075107D03*
X0065620Y0076055D03*
D607*
X0065417Y0075017D03*
D608*
X0065417Y0075062D03*
D609*
X0065439Y0075107D03*
D610*
X0065439Y0075152D03*
X0042330Y0075152D03*
D611*
X0053862Y0075152D03*
D612*
X0042330Y0075198D03*
D613*
X0053885Y0075198D03*
X0053885Y0075333D03*
X0053885Y0075423D03*
X0053885Y0075514D03*
X0053885Y0075649D03*
X0053885Y0075739D03*
X0053885Y0075830D03*
D614*
X0065462Y0075198D03*
D615*
X0065462Y0075243D03*
X0042308Y0075243D03*
D616*
X0053885Y0075243D03*
X0053885Y0075288D03*
X0053885Y0075378D03*
X0053885Y0075468D03*
X0053885Y0075559D03*
X0053885Y0075604D03*
X0053885Y0075694D03*
X0053885Y0075784D03*
D617*
X0042308Y0075333D03*
D618*
X0042285Y0075378D03*
X0065485Y0075378D03*
D619*
X0065507Y0075423D03*
X0042263Y0075423D03*
D620*
X0042263Y0075468D03*
X0065507Y0075468D03*
D621*
X0065552Y0075559D03*
X0042262Y0075559D03*
D622*
X0042240Y0075604D03*
X0065530Y0075604D03*
D623*
X0065552Y0075649D03*
D624*
X0065552Y0075694D03*
X0042217Y0075694D03*
D625*
X0042195Y0075739D03*
X0065575Y0075739D03*
D626*
X0042218Y0075784D03*
D627*
X0065575Y0075784D03*
D628*
X0065575Y0075830D03*
D629*
X0053862Y0075875D03*
X0053862Y0076010D03*
X0053862Y0076100D03*
X0053862Y0076191D03*
D630*
X0065575Y0075875D03*
D631*
X0042195Y0075920D03*
D632*
X0042172Y0076145D03*
X0053862Y0076145D03*
X0053862Y0076055D03*
X0053862Y0075920D03*
X0053862Y0076236D03*
D633*
X0065597Y0075920D03*
D634*
X0065597Y0075965D03*
X0042172Y0075965D03*
D635*
X0053862Y0075965D03*
X0053862Y0076281D03*
D636*
X0042195Y0076010D03*
D637*
X0042172Y0076055D03*
D638*
X0042172Y0076100D03*
X0065597Y0076100D03*
D639*
X0065620Y0076191D03*
X0042150Y0076191D03*
D640*
X0042172Y0076236D03*
X0053817Y0076552D03*
X0053817Y0076687D03*
D641*
X0053795Y0076777D03*
X0053795Y0076868D03*
X0065620Y0076236D03*
D642*
X0053795Y0076913D03*
X0042150Y0076281D03*
D643*
X0065643Y0076281D03*
D644*
X0065620Y0076326D03*
X0053750Y0077138D03*
X0042150Y0076326D03*
D645*
X0053840Y0076326D03*
X0053840Y0076416D03*
X0053840Y0076507D03*
D646*
X0042150Y0076371D03*
X0065620Y0076371D03*
D647*
X0053840Y0076371D03*
X0053840Y0076461D03*
D648*
X0053659Y0077590D03*
X0042150Y0076416D03*
D649*
X0042150Y0076461D03*
X0053659Y0077635D03*
D650*
X0053637Y0077725D03*
X0065643Y0076461D03*
D651*
X0042150Y0076597D03*
D652*
X0053817Y0076597D03*
D653*
X0065643Y0076597D03*
D654*
X0042150Y0076642D03*
D655*
X0065643Y0076642D03*
D656*
X0053456Y0078357D03*
X0042172Y0076687D03*
D657*
X0042150Y0076822D03*
X0065620Y0076822D03*
D658*
X0053795Y0076822D03*
D659*
X0053298Y0078763D03*
X0042150Y0076868D03*
X0065620Y0076868D03*
D660*
X0065620Y0076913D03*
X0042150Y0076913D03*
D661*
X0042172Y0076958D03*
D662*
X0053772Y0076958D03*
X0053772Y0077048D03*
D663*
X0065620Y0076958D03*
D664*
X0042195Y0077003D03*
D665*
X0053772Y0077003D03*
D666*
X0065597Y0077048D03*
D667*
X0053072Y0079215D03*
X0042195Y0077093D03*
D668*
X0053727Y0077229D03*
D669*
X0053727Y0077274D03*
D670*
X0053727Y0077319D03*
D671*
X0053704Y0077364D03*
D672*
X0053704Y0077409D03*
D673*
X0053682Y0077500D03*
D674*
X0042330Y0077545D03*
D675*
X0053682Y0077545D03*
D676*
X0042330Y0077590D03*
X0065439Y0077590D03*
D677*
X0042375Y0077635D03*
D678*
X0053637Y0077680D03*
D679*
X0053569Y0077951D03*
D680*
X0042624Y0077996D03*
X0065146Y0077996D03*
D681*
X0042669Y0078041D03*
D682*
X0065124Y0078041D03*
D683*
X0053546Y0078086D03*
D684*
X0053524Y0078131D03*
D685*
X0053479Y0078267D03*
D686*
X0053456Y0078312D03*
D687*
X0053411Y0078492D03*
D688*
X0053388Y0078538D03*
D689*
X0053366Y0078583D03*
D690*
X0053343Y0078628D03*
D691*
X0053343Y0078673D03*
D692*
X0053321Y0078718D03*
D693*
X0053276Y0078808D03*
D694*
X0053253Y0078854D03*
D695*
X0053231Y0078899D03*
D696*
X0053208Y0078944D03*
D697*
X0053185Y0079034D03*
D698*
X0053140Y0079124D03*
D699*
X0053095Y0079169D03*
D700*
X0052960Y0079440D03*
D701*
X0052937Y0079485D03*
D702*
X0052757Y0079756D03*
D703*
X0052621Y0079937D03*
D704*
X0052441Y0080117D03*
D705*
X0052305Y0080253D03*
D706*
X0051764Y0080614D03*
D707*
X0062508Y0104016D02*
X0065577Y0104016D01*
X0066344Y0104784D01*
X0066344Y0106318D01*
X0065577Y0107086D01*
X0066344Y0108620D02*
X0066344Y0111690D01*
X0066344Y0110155D02*
X0061740Y0110155D01*
X0063275Y0108620D01*
X0062508Y0107086D02*
X0061740Y0106318D01*
X0061740Y0104784D01*
X0062508Y0104016D01*
X0083394Y0105177D02*
X0084161Y0104410D01*
X0087230Y0104410D01*
X0087998Y0105177D01*
X0087998Y0106712D01*
X0087230Y0107479D01*
X0087998Y0109014D02*
X0084928Y0112083D01*
X0084161Y0112083D01*
X0083394Y0111316D01*
X0083394Y0109781D01*
X0084161Y0109014D01*
X0084161Y0107479D02*
X0083394Y0106712D01*
X0083394Y0105177D01*
X0087998Y0109014D02*
X0087998Y0112083D01*
X0082127Y0131669D02*
X0082895Y0132437D01*
X0082127Y0131669D02*
X0080593Y0131669D01*
X0079825Y0132437D01*
X0079825Y0135506D01*
X0080593Y0136273D01*
X0082127Y0136273D01*
X0082895Y0135506D01*
X0078291Y0135506D02*
X0078291Y0132437D01*
X0077523Y0131669D01*
X0075221Y0131669D01*
X0075221Y0136273D01*
X0077523Y0136273D01*
X0078291Y0135506D01*
X0073687Y0136273D02*
X0070617Y0131669D01*
X0069083Y0132437D02*
X0068315Y0131669D01*
X0066781Y0131669D01*
X0066013Y0132437D01*
X0066013Y0135506D01*
X0066781Y0136273D01*
X0068315Y0136273D01*
X0069083Y0135506D01*
X0064479Y0135506D02*
X0063712Y0136273D01*
X0061410Y0136273D01*
X0061410Y0131669D01*
X0063712Y0131669D01*
X0064479Y0132437D01*
X0064479Y0135506D01*
X0129264Y0132651D02*
X0129264Y0131884D01*
X0130031Y0131117D01*
X0131566Y0131117D01*
X0132333Y0130350D01*
X0132333Y0129582D01*
X0131566Y0128815D01*
X0130031Y0128815D01*
X0129264Y0129582D01*
X0133868Y0129582D02*
X0134635Y0128815D01*
X0136170Y0128815D01*
X0136937Y0129582D01*
X0136937Y0132651D01*
X0136170Y0133419D01*
X0134635Y0133419D01*
X0133868Y0132651D01*
X0133868Y0129582D01*
X0132333Y0132651D02*
X0131566Y0133419D01*
X0130031Y0133419D01*
X0129264Y0132651D01*
X0130031Y0138815D02*
X0129264Y0139582D01*
X0130031Y0138815D02*
X0131566Y0138815D01*
X0132333Y0139582D01*
X0132333Y0140350D01*
X0131566Y0141117D01*
X0130031Y0141117D01*
X0129264Y0141884D01*
X0129264Y0142651D01*
X0130031Y0143419D01*
X0131566Y0143419D01*
X0132333Y0142651D01*
X0133868Y0143419D02*
X0135402Y0143419D01*
X0134635Y0143419D02*
X0134635Y0138815D01*
X0133868Y0138815D02*
X0135402Y0138815D01*
X0134635Y0148815D02*
X0136170Y0148815D01*
X0136937Y0149582D01*
X0138472Y0148815D02*
X0138472Y0153419D01*
X0136937Y0152651D02*
X0136170Y0153419D01*
X0134635Y0153419D01*
X0133868Y0152651D01*
X0133868Y0149582D01*
X0134635Y0148815D01*
X0132333Y0149582D02*
X0131566Y0148815D01*
X0130031Y0148815D01*
X0129264Y0149582D01*
X0130031Y0151117D02*
X0131566Y0151117D01*
X0132333Y0150350D01*
X0132333Y0149582D01*
X0130031Y0151117D02*
X0129264Y0151884D01*
X0129264Y0152651D01*
X0130031Y0153419D01*
X0131566Y0153419D01*
X0132333Y0152651D01*
X0138472Y0150350D02*
X0141541Y0153419D01*
X0139239Y0151117D02*
X0141541Y0148815D01*
X0138472Y0158815D02*
X0138472Y0163419D01*
X0140006Y0163419D02*
X0136937Y0163419D01*
X0135402Y0163419D02*
X0135402Y0158815D01*
X0132333Y0163419D01*
X0132333Y0158815D01*
X0130799Y0158815D02*
X0129264Y0158815D01*
X0130031Y0158815D02*
X0130031Y0163419D01*
X0129264Y0163419D02*
X0130799Y0163419D01*
X0156764Y0133419D02*
X0158299Y0131884D01*
X0159833Y0133419D01*
X0159833Y0128815D01*
X0161368Y0129582D02*
X0162135Y0128815D01*
X0163670Y0128815D01*
X0164437Y0129582D01*
X0165972Y0128815D02*
X0165972Y0133419D01*
X0168274Y0133419D01*
X0169041Y0132651D01*
X0169041Y0131117D01*
X0168274Y0130350D01*
X0165972Y0130350D01*
X0164437Y0132651D02*
X0163670Y0133419D01*
X0162135Y0133419D01*
X0161368Y0132651D01*
X0161368Y0129582D01*
X0156764Y0128815D02*
X0156764Y0133419D01*
X0170576Y0132651D02*
X0171343Y0133419D01*
X0172878Y0133419D01*
X0173645Y0132651D01*
X0173645Y0131884D01*
X0170576Y0128815D01*
X0173645Y0128815D01*
X0175180Y0129582D02*
X0175947Y0128815D01*
X0177482Y0128815D01*
X0178249Y0129582D01*
X0178249Y0131117D01*
X0177482Y0131884D01*
X0176714Y0131884D01*
X0175180Y0131117D01*
X0175180Y0133419D01*
X0178249Y0133419D01*
X0179784Y0131884D02*
X0181318Y0133419D01*
X0181318Y0128815D01*
X0179784Y0128815D02*
X0182853Y0128815D01*
X0184387Y0129582D02*
X0185155Y0128815D01*
X0186689Y0128815D01*
X0187457Y0129582D01*
X0187457Y0131117D01*
X0186689Y0131884D01*
X0185922Y0131884D01*
X0184387Y0131117D01*
X0184387Y0133419D01*
X0187457Y0133419D01*
X0193595Y0133419D02*
X0193595Y0128815D01*
X0196665Y0128815D02*
X0196665Y0133419D01*
X0195130Y0131884D01*
X0193595Y0133419D01*
X0198199Y0132651D02*
X0198199Y0129582D01*
X0198967Y0128815D01*
X0200501Y0128815D01*
X0201269Y0129582D01*
X0201269Y0132651D01*
X0200501Y0133419D01*
X0198967Y0133419D01*
X0198199Y0132651D01*
X0202803Y0133419D02*
X0202803Y0128815D01*
X0205105Y0128815D01*
X0205872Y0129582D01*
X0205872Y0132651D01*
X0205105Y0133419D01*
X0202803Y0133419D01*
X0207407Y0133419D02*
X0207407Y0129582D01*
X0208174Y0128815D01*
X0209709Y0128815D01*
X0210476Y0129582D01*
X0210476Y0133419D01*
X0212011Y0133419D02*
X0212011Y0128815D01*
X0215080Y0128815D01*
X0216615Y0128815D02*
X0219684Y0128815D01*
X0218150Y0131117D02*
X0216615Y0131117D01*
X0216615Y0133419D02*
X0216615Y0128815D01*
X0216615Y0133419D02*
X0219684Y0133419D01*
X0241764Y0133815D02*
X0241764Y0138419D01*
X0241764Y0136117D02*
X0244833Y0136117D01*
X0244833Y0138419D02*
X0244833Y0133815D01*
X0241764Y0128419D02*
X0241764Y0123815D01*
X0244833Y0123815D01*
X0141541Y0112651D02*
X0141541Y0109582D01*
X0140774Y0108815D01*
X0138472Y0108815D01*
X0138472Y0113419D01*
X0140774Y0113419D01*
X0141541Y0112651D01*
X0136937Y0113419D02*
X0136937Y0108815D01*
X0133868Y0113419D01*
X0133868Y0108815D01*
X0132333Y0109582D02*
X0132333Y0111117D01*
X0130799Y0111117D01*
X0132333Y0112651D02*
X0131566Y0113419D01*
X0130031Y0113419D01*
X0129264Y0112651D01*
X0129264Y0109582D01*
X0130031Y0108815D01*
X0131566Y0108815D01*
X0132333Y0109582D01*
X0132333Y0103419D02*
X0132333Y0100350D01*
X0130799Y0098815D01*
X0129264Y0100350D01*
X0129264Y0103419D01*
X0133868Y0102651D02*
X0133868Y0099582D01*
X0134635Y0098815D01*
X0136170Y0098815D01*
X0136937Y0099582D01*
X0138472Y0099582D02*
X0139239Y0098815D01*
X0140774Y0098815D01*
X0141541Y0099582D01*
X0138472Y0099582D02*
X0138472Y0102651D01*
X0139239Y0103419D01*
X0140774Y0103419D01*
X0141541Y0102651D01*
X0136937Y0102651D02*
X0136170Y0103419D01*
X0134635Y0103419D01*
X0133868Y0102651D01*
X0134635Y0118815D02*
X0133868Y0119582D01*
X0134635Y0118815D02*
X0136170Y0118815D01*
X0136937Y0119582D01*
X0136937Y0120350D01*
X0136170Y0121117D01*
X0134635Y0121117D01*
X0133868Y0121884D01*
X0133868Y0122651D01*
X0134635Y0123419D01*
X0136170Y0123419D01*
X0136937Y0122651D01*
X0132333Y0122651D02*
X0131566Y0123419D01*
X0130031Y0123419D01*
X0129264Y0122651D01*
X0129264Y0119582D01*
X0130031Y0118815D01*
X0131566Y0118815D01*
X0132333Y0119582D01*
X0049715Y0197850D02*
X0046646Y0197850D01*
X0048180Y0197850D02*
X0048180Y0202454D01*
X0046646Y0200920D01*
X0159833Y0031315D02*
X0159833Y0026111D01*
X0163303Y0026111D01*
X0164990Y0026978D02*
X0165857Y0026111D01*
X0168459Y0026111D01*
X0168459Y0029580D01*
X0170146Y0029580D02*
X0171013Y0029580D01*
X0171013Y0026111D01*
X0170146Y0026111D02*
X0171881Y0026111D01*
X0173584Y0026111D02*
X0176186Y0026111D01*
X0177053Y0026978D01*
X0176186Y0027846D01*
X0174451Y0027846D01*
X0173584Y0028713D01*
X0174451Y0029580D01*
X0177053Y0029580D01*
X0171013Y0031315D02*
X0171013Y0032183D01*
X0164990Y0029580D02*
X0164990Y0026978D01*
X0183896Y0026978D02*
X0184764Y0026111D01*
X0186499Y0026111D01*
X0187366Y0026978D01*
X0189053Y0026111D02*
X0189053Y0029580D01*
X0189053Y0027846D02*
X0190787Y0029580D01*
X0191655Y0029580D01*
X0193350Y0029580D02*
X0194217Y0029580D01*
X0194217Y0026111D01*
X0193350Y0026111D02*
X0195084Y0026111D01*
X0196787Y0026111D02*
X0199390Y0026111D01*
X0200257Y0026978D01*
X0199390Y0027846D01*
X0197655Y0027846D01*
X0196787Y0028713D01*
X0197655Y0029580D01*
X0200257Y0029580D01*
X0201944Y0029580D02*
X0203678Y0029580D01*
X0202811Y0030448D02*
X0202811Y0026978D01*
X0203678Y0026111D01*
X0205381Y0026978D02*
X0205381Y0028713D01*
X0206249Y0029580D01*
X0207984Y0029580D01*
X0208851Y0028713D01*
X0208851Y0026978D01*
X0207984Y0026111D01*
X0206249Y0026111D01*
X0205381Y0026978D01*
X0210538Y0029580D02*
X0212272Y0026111D01*
X0214007Y0029580D01*
X0215694Y0028713D02*
X0217429Y0028713D01*
X0217413Y0028713D02*
X0218280Y0029580D01*
X0220015Y0029580D01*
X0220883Y0028713D01*
X0220883Y0026978D01*
X0220015Y0026111D01*
X0218280Y0026111D01*
X0217413Y0026978D01*
X0217413Y0028713D01*
X0217429Y0027846D02*
X0215694Y0027846D01*
X0215694Y0025243D02*
X0215694Y0031315D01*
X0194217Y0031315D02*
X0194217Y0032183D01*
X0187366Y0030448D02*
X0186499Y0031315D01*
X0184764Y0031315D01*
X0183896Y0030448D01*
X0183896Y0026978D01*
X0243195Y0026111D02*
X0243195Y0031315D01*
X0246664Y0026111D01*
X0246664Y0031315D01*
X0248351Y0030448D02*
X0248351Y0029580D01*
X0249219Y0028713D01*
X0250953Y0028713D01*
X0251821Y0029580D01*
X0251821Y0030448D01*
X0250953Y0031315D01*
X0249219Y0031315D01*
X0248351Y0030448D01*
X0248351Y0026111D02*
X0251821Y0026111D01*
X0253508Y0026978D02*
X0253508Y0027846D01*
X0254375Y0028713D01*
X0256110Y0028713D01*
X0256977Y0027846D01*
X0256977Y0026978D01*
X0256110Y0026111D01*
X0254375Y0026111D01*
X0253508Y0026978D01*
X0254375Y0028713D02*
X0253508Y0029580D01*
X0253508Y0030448D01*
X0254375Y0031315D01*
X0256110Y0031315D01*
X0256977Y0030448D01*
X0256977Y0029580D01*
X0256110Y0028713D01*
X0258664Y0026978D02*
X0258664Y0030448D01*
X0259531Y0031315D01*
X0261266Y0031315D01*
X0262134Y0030448D01*
X0258664Y0026978D01*
X0259531Y0026111D01*
X0261266Y0026111D01*
X0262134Y0026978D01*
X0262134Y0030448D01*
X0263820Y0030448D02*
X0263820Y0026978D01*
X0267290Y0030448D01*
X0267290Y0026978D01*
X0266423Y0026111D01*
X0264688Y0026111D01*
X0263820Y0026978D01*
X0263820Y0030448D02*
X0264688Y0031315D01*
X0266423Y0031315D01*
X0267290Y0030448D01*
X0268977Y0030448D02*
X0268977Y0029580D01*
X0269844Y0028713D01*
X0271579Y0028713D01*
X0272446Y0027846D01*
X0272446Y0026978D01*
X0271579Y0026111D01*
X0269844Y0026111D01*
X0268977Y0026978D01*
X0268977Y0027846D01*
X0269844Y0028713D01*
X0271579Y0028713D02*
X0272446Y0029580D01*
X0272446Y0030448D01*
X0271579Y0031315D01*
X0269844Y0031315D01*
X0268977Y0030448D01*
X0274133Y0028713D02*
X0274133Y0026978D01*
X0275001Y0026111D01*
X0276735Y0026111D01*
X0277603Y0026978D01*
X0277603Y0027846D01*
X0276735Y0028713D01*
X0274133Y0028713D01*
X0275868Y0030448D01*
X0277603Y0031315D01*
D708*
X0276564Y0076115D02*
X0276564Y0186115D01*
X0116564Y0186115D01*
X0116564Y0166115D01*
X0126564Y0166115D01*
X0126564Y0096115D01*
X0116564Y0096115D01*
X0116564Y0076115D01*
X0276564Y0076115D01*
X0239064Y0121115D02*
X0229064Y0121115D01*
X0229064Y0141115D01*
X0239064Y0141115D01*
X0239064Y0121115D01*
X0251446Y0197650D02*
X0251446Y0217650D01*
X0051446Y0217650D01*
X0051446Y0197650D01*
X0251446Y0197650D01*
X0116564Y0166115D02*
X0116564Y0096115D01*
X0093847Y0127178D02*
X0093847Y0152572D01*
X0048572Y0152572D01*
X0048572Y0127178D01*
X0093847Y0127178D01*
X0092469Y0171390D02*
X0052469Y0171390D01*
X0052469Y0181390D01*
X0092469Y0181390D01*
X0092469Y0171390D01*
X0092469Y0186390D02*
X0052469Y0186390D01*
M02*
