G75*
%MOIN*%
%OFA0B0*%
%FSLAX25Y25*%
%IPPOS*%
%LPD*%
%AMOC8*
5,1,8,0,0,1.08239X$1,22.5*
%
%ADD10C,0.11811*%
%ADD11R,0.03937X0.04331*%
%ADD12C,0.05600*%
D10*
X0037273Y0028792D03*
X0265619Y0028792D03*
X0265619Y0207926D03*
X0037273Y0207926D03*
D11*
X0059044Y0113871D03*
X0059044Y0107178D03*
X0080698Y0107572D03*
X0080698Y0114264D03*
D12*
X0081210Y0144107D03*
X0071210Y0144107D03*
X0061210Y0144107D03*
X0057469Y0176390D03*
X0067469Y0176390D03*
X0077469Y0176390D03*
X0087469Y0176390D03*
X0086446Y0202650D03*
X0096446Y0202650D03*
X0106446Y0202650D03*
X0116446Y0202650D03*
X0126446Y0202650D03*
X0136446Y0202650D03*
X0146446Y0202650D03*
X0156446Y0202650D03*
X0166446Y0202650D03*
X0176446Y0202650D03*
X0186446Y0202650D03*
X0196446Y0202650D03*
X0206446Y0202650D03*
X0216446Y0202650D03*
X0226446Y0202650D03*
X0236446Y0202650D03*
X0246446Y0202650D03*
X0246446Y0212650D03*
X0236446Y0212650D03*
X0226446Y0212650D03*
X0216446Y0212650D03*
X0206446Y0212650D03*
X0196446Y0212650D03*
X0186446Y0212650D03*
X0176446Y0212650D03*
X0166446Y0212650D03*
X0156446Y0212650D03*
X0146446Y0212650D03*
X0136446Y0212650D03*
X0126446Y0212650D03*
X0116446Y0212650D03*
X0106446Y0212650D03*
X0096446Y0212650D03*
X0086446Y0212650D03*
X0076446Y0212650D03*
X0066446Y0212650D03*
X0056446Y0212650D03*
X0056446Y0202650D03*
X0066446Y0202650D03*
X0076446Y0202650D03*
X0121564Y0161115D03*
X0121564Y0151115D03*
X0121564Y0141115D03*
X0121564Y0131115D03*
X0121564Y0121115D03*
X0121564Y0111115D03*
X0121564Y0101115D03*
X0234064Y0126115D03*
X0234064Y0136115D03*
M02*
