G75*
%MOIN*%
%OFA0B0*%
%FSLAX25Y25*%
%IPPOS*%
%LPD*%
%AMOC8*
5,1,8,0,0,1.08239X$1,22.5*
%
%ADD10C,0.05600*%
%ADD11C,0.01600*%
%ADD12C,0.02000*%
%ADD13C,0.01000*%
D10*
X0121564Y0101115D03*
X0121564Y0111115D03*
X0121564Y0121115D03*
X0121564Y0131115D03*
X0121564Y0141115D03*
X0121564Y0151115D03*
X0121564Y0161115D03*
X0087469Y0176390D03*
X0077469Y0176390D03*
X0067469Y0176390D03*
X0057469Y0176390D03*
X0056446Y0202650D03*
X0066446Y0202650D03*
X0076446Y0202650D03*
X0086446Y0202650D03*
X0096446Y0202650D03*
X0106446Y0202650D03*
X0116446Y0202650D03*
X0126446Y0202650D03*
X0136446Y0202650D03*
X0146446Y0202650D03*
X0156446Y0202650D03*
X0166446Y0202650D03*
X0176446Y0202650D03*
X0186446Y0202650D03*
X0196446Y0202650D03*
X0206446Y0202650D03*
X0216446Y0202650D03*
X0226446Y0202650D03*
X0236446Y0202650D03*
X0246446Y0202650D03*
X0246446Y0212650D03*
X0236446Y0212650D03*
X0226446Y0212650D03*
X0216446Y0212650D03*
X0206446Y0212650D03*
X0196446Y0212650D03*
X0186446Y0212650D03*
X0176446Y0212650D03*
X0166446Y0212650D03*
X0156446Y0212650D03*
X0146446Y0212650D03*
X0136446Y0212650D03*
X0126446Y0212650D03*
X0116446Y0212650D03*
X0106446Y0212650D03*
X0096446Y0212650D03*
X0086446Y0212650D03*
X0076446Y0212650D03*
X0066446Y0212650D03*
X0056446Y0212650D03*
X0061210Y0144107D03*
X0071210Y0144107D03*
X0081210Y0144107D03*
X0234064Y0136115D03*
X0234064Y0126115D03*
D11*
X0027553Y0021105D02*
X0026115Y0023594D01*
X0025371Y0026371D01*
X0025277Y0027808D01*
X0025277Y0028547D01*
X0025277Y0206276D01*
X0025325Y0206332D01*
X0025277Y0207005D01*
X0025277Y0208714D01*
X0025858Y0211726D01*
X0027231Y0214551D01*
X0029288Y0216924D01*
X0031889Y0218684D01*
X0034856Y0219711D01*
X0036382Y0219921D01*
X0265619Y0219921D01*
X0267185Y0219819D01*
X0270209Y0219008D01*
X0272921Y0217442D01*
X0275136Y0215228D01*
X0276701Y0212516D01*
X0277512Y0209492D01*
X0277614Y0207926D01*
X0277614Y0028792D01*
X0277512Y0027226D01*
X0276701Y0024202D01*
X0275136Y0021490D01*
X0272921Y0019276D01*
X0270209Y0017710D01*
X0267185Y0016899D01*
X0265619Y0016797D01*
X0036288Y0016797D01*
X0034851Y0016891D01*
X0032075Y0017635D01*
X0029585Y0019072D01*
X0027553Y0021105D01*
X0027817Y0020841D02*
X0274486Y0020841D01*
X0275684Y0022439D02*
X0270141Y0022439D01*
X0269975Y0022273D02*
X0272138Y0024436D01*
X0273309Y0027262D01*
X0273309Y0030322D01*
X0272138Y0033148D01*
X0269975Y0035311D01*
X0267149Y0036482D01*
X0264089Y0036482D01*
X0261263Y0035311D01*
X0259100Y0033148D01*
X0257929Y0030322D01*
X0257929Y0027262D01*
X0259100Y0024436D01*
X0261263Y0022273D01*
X0264089Y0021102D01*
X0267149Y0021102D01*
X0269975Y0022273D01*
X0271740Y0024038D02*
X0276607Y0024038D01*
X0277086Y0025636D02*
X0272635Y0025636D01*
X0273297Y0027235D02*
X0277512Y0027235D01*
X0277614Y0028833D02*
X0273309Y0028833D01*
X0273263Y0030432D02*
X0277614Y0030432D01*
X0277614Y0032030D02*
X0272601Y0032030D01*
X0271657Y0033629D02*
X0277614Y0033629D01*
X0277614Y0035227D02*
X0270059Y0035227D01*
X0277614Y0036826D02*
X0025277Y0036826D01*
X0025277Y0038424D02*
X0277614Y0038424D01*
X0277614Y0040023D02*
X0025277Y0040023D01*
X0025277Y0041621D02*
X0277614Y0041621D01*
X0277614Y0043220D02*
X0025277Y0043220D01*
X0025277Y0044818D02*
X0277614Y0044818D01*
X0277614Y0046417D02*
X0025277Y0046417D01*
X0025277Y0048015D02*
X0277614Y0048015D01*
X0277614Y0049614D02*
X0025277Y0049614D01*
X0025277Y0051212D02*
X0277614Y0051212D01*
X0277614Y0052811D02*
X0025277Y0052811D01*
X0025277Y0054410D02*
X0277614Y0054410D01*
X0277614Y0056008D02*
X0025277Y0056008D01*
X0025277Y0057607D02*
X0277614Y0057607D01*
X0277614Y0059205D02*
X0025277Y0059205D01*
X0025277Y0060804D02*
X0277614Y0060804D01*
X0277614Y0062402D02*
X0025277Y0062402D01*
X0025277Y0064001D02*
X0277614Y0064001D01*
X0277614Y0065599D02*
X0025277Y0065599D01*
X0025277Y0067198D02*
X0277614Y0067198D01*
X0277614Y0068796D02*
X0025277Y0068796D01*
X0025277Y0070395D02*
X0277614Y0070395D01*
X0277614Y0071993D02*
X0025277Y0071993D01*
X0025277Y0073592D02*
X0277614Y0073592D01*
X0277614Y0075190D02*
X0025277Y0075190D01*
X0025277Y0076789D02*
X0277614Y0076789D01*
X0277614Y0078387D02*
X0025277Y0078387D01*
X0025277Y0079986D02*
X0277614Y0079986D01*
X0277614Y0081584D02*
X0025277Y0081584D01*
X0025277Y0083183D02*
X0277614Y0083183D01*
X0277614Y0084781D02*
X0025277Y0084781D01*
X0025277Y0086380D02*
X0277614Y0086380D01*
X0277614Y0087978D02*
X0025277Y0087978D01*
X0025277Y0089577D02*
X0277614Y0089577D01*
X0277614Y0091175D02*
X0025277Y0091175D01*
X0025277Y0092774D02*
X0277614Y0092774D01*
X0277614Y0094372D02*
X0025277Y0094372D01*
X0025277Y0095971D02*
X0277614Y0095971D01*
X0277614Y0097569D02*
X0124148Y0097569D01*
X0124422Y0097768D02*
X0124910Y0098257D01*
X0125316Y0098815D01*
X0125630Y0099431D01*
X0125843Y0100087D01*
X0125951Y0100770D01*
X0125951Y0101115D01*
X0125951Y0101460D01*
X0125843Y0102142D01*
X0125630Y0102799D01*
X0125316Y0103414D01*
X0124910Y0103973D01*
X0124422Y0104461D01*
X0123863Y0104867D01*
X0123248Y0105181D01*
X0122591Y0105394D01*
X0121909Y0105502D01*
X0121564Y0105502D01*
X0121564Y0101115D01*
X0121564Y0101115D01*
X0125951Y0101115D01*
X0121564Y0101115D01*
X0121564Y0101115D01*
X0121564Y0105502D01*
X0121219Y0105502D01*
X0120537Y0105394D01*
X0119880Y0105181D01*
X0119264Y0104867D01*
X0118706Y0104461D01*
X0118217Y0103973D01*
X0117811Y0103414D01*
X0117498Y0102799D01*
X0117285Y0102142D01*
X0117177Y0101460D01*
X0117177Y0101115D01*
X0121564Y0101115D01*
X0121564Y0101115D01*
X0121564Y0096727D01*
X0121909Y0096727D01*
X0122591Y0096836D01*
X0123248Y0097049D01*
X0123863Y0097362D01*
X0124422Y0097768D01*
X0125496Y0099168D02*
X0277614Y0099168D01*
X0277614Y0100766D02*
X0125951Y0100766D01*
X0125771Y0102365D02*
X0277614Y0102365D01*
X0277614Y0103963D02*
X0124917Y0103963D01*
X0121564Y0103963D02*
X0121564Y0103963D01*
X0121564Y0102365D02*
X0121564Y0102365D01*
X0121564Y0101115D02*
X0117177Y0101115D01*
X0117177Y0100770D01*
X0117285Y0100087D01*
X0117498Y0099431D01*
X0117811Y0098815D01*
X0118217Y0098257D01*
X0118706Y0097768D01*
X0119264Y0097362D01*
X0119880Y0097049D01*
X0120537Y0096836D01*
X0121219Y0096727D01*
X0121564Y0096727D01*
X0121564Y0101115D01*
X0121564Y0101115D01*
X0121564Y0100766D02*
X0121564Y0100766D01*
X0121564Y0099168D02*
X0121564Y0099168D01*
X0121564Y0097569D02*
X0121564Y0097569D01*
X0118980Y0097569D02*
X0025277Y0097569D01*
X0025277Y0099168D02*
X0117632Y0099168D01*
X0117177Y0100766D02*
X0025277Y0100766D01*
X0025277Y0102365D02*
X0117357Y0102365D01*
X0118210Y0103963D02*
X0025277Y0103963D01*
X0025277Y0105562D02*
X0277614Y0105562D01*
X0277614Y0107160D02*
X0122967Y0107160D01*
X0122397Y0106924D02*
X0123938Y0107562D01*
X0125116Y0108741D01*
X0125754Y0110281D01*
X0125754Y0111948D01*
X0125116Y0113489D01*
X0123938Y0114667D01*
X0122397Y0115305D01*
X0120730Y0115305D01*
X0119190Y0114667D01*
X0118011Y0113489D01*
X0117373Y0111948D01*
X0117373Y0110281D01*
X0118011Y0108741D01*
X0119190Y0107562D01*
X0120730Y0106924D01*
X0122397Y0106924D01*
X0120160Y0107160D02*
X0025277Y0107160D01*
X0025277Y0108759D02*
X0118004Y0108759D01*
X0117373Y0110357D02*
X0025277Y0110357D01*
X0025277Y0111956D02*
X0117376Y0111956D01*
X0118077Y0113554D02*
X0025277Y0113554D01*
X0025277Y0115153D02*
X0120362Y0115153D01*
X0120730Y0116924D02*
X0119190Y0117562D01*
X0118011Y0118741D01*
X0117373Y0120281D01*
X0117373Y0121948D01*
X0118011Y0123489D01*
X0118791Y0124269D01*
X0110636Y0124269D01*
X0109529Y0125376D01*
X0060955Y0173950D01*
X0059843Y0172838D01*
X0058303Y0172200D01*
X0056636Y0172200D01*
X0055096Y0172838D01*
X0053917Y0174017D01*
X0053279Y0175557D01*
X0053279Y0177224D01*
X0053917Y0178764D01*
X0055096Y0179943D01*
X0056636Y0180581D01*
X0058303Y0180581D01*
X0059843Y0179943D01*
X0061022Y0178764D01*
X0061236Y0178247D01*
X0062006Y0178247D01*
X0063279Y0176973D01*
X0063279Y0177224D01*
X0063917Y0178764D01*
X0065096Y0179943D01*
X0066636Y0180581D01*
X0068303Y0180581D01*
X0069843Y0179943D01*
X0071022Y0178764D01*
X0071660Y0177224D01*
X0071660Y0175557D01*
X0071022Y0174017D01*
X0069843Y0172838D01*
X0068303Y0172200D01*
X0068052Y0172200D01*
X0112202Y0128050D01*
X0118703Y0128050D01*
X0118011Y0128741D01*
X0117373Y0130281D01*
X0117373Y0131948D01*
X0118011Y0133489D01*
X0119190Y0134667D01*
X0120730Y0135305D01*
X0122397Y0135305D01*
X0123938Y0134667D01*
X0125116Y0133489D01*
X0125754Y0131948D01*
X0125754Y0130281D01*
X0125116Y0128741D01*
X0124425Y0128050D01*
X0230330Y0128050D01*
X0230511Y0128489D01*
X0231690Y0129667D01*
X0233230Y0130305D01*
X0234897Y0130305D01*
X0236438Y0129667D01*
X0237616Y0128489D01*
X0238254Y0126948D01*
X0238254Y0125281D01*
X0237616Y0123741D01*
X0236438Y0122562D01*
X0234897Y0121924D01*
X0233230Y0121924D01*
X0231690Y0122562D01*
X0230511Y0123741D01*
X0230293Y0124269D01*
X0124336Y0124269D01*
X0125116Y0123489D01*
X0125754Y0121948D01*
X0125754Y0120281D01*
X0125116Y0118741D01*
X0123938Y0117562D01*
X0122397Y0116924D01*
X0120730Y0116924D01*
X0122766Y0115153D02*
X0277614Y0115153D01*
X0277614Y0116751D02*
X0025277Y0116751D01*
X0025277Y0118350D02*
X0118402Y0118350D01*
X0117511Y0119948D02*
X0025277Y0119948D01*
X0025277Y0121547D02*
X0117373Y0121547D01*
X0117869Y0123145D02*
X0025277Y0123145D01*
X0025277Y0124744D02*
X0110161Y0124744D01*
X0108563Y0126343D02*
X0025277Y0126343D01*
X0025277Y0127941D02*
X0106964Y0127941D01*
X0105366Y0129540D02*
X0025277Y0129540D01*
X0025277Y0131138D02*
X0103767Y0131138D01*
X0102169Y0132737D02*
X0025277Y0132737D01*
X0025277Y0134335D02*
X0100570Y0134335D01*
X0098971Y0135934D02*
X0025277Y0135934D01*
X0025277Y0137532D02*
X0097373Y0137532D01*
X0095774Y0139131D02*
X0025277Y0139131D01*
X0025277Y0140729D02*
X0058661Y0140729D01*
X0058836Y0140554D02*
X0060376Y0139916D01*
X0062043Y0139916D01*
X0063583Y0140554D01*
X0064762Y0141733D01*
X0065400Y0143273D01*
X0065400Y0144941D01*
X0064762Y0146481D01*
X0063583Y0147660D01*
X0062043Y0148298D01*
X0060376Y0148298D01*
X0058836Y0147660D01*
X0057657Y0146481D01*
X0057019Y0144941D01*
X0057019Y0143273D01*
X0057657Y0141733D01*
X0058836Y0140554D01*
X0057411Y0142328D02*
X0025277Y0142328D01*
X0025277Y0143926D02*
X0057019Y0143926D01*
X0057261Y0145525D02*
X0025277Y0145525D01*
X0025277Y0147123D02*
X0058299Y0147123D01*
X0064120Y0147123D02*
X0068299Y0147123D01*
X0068836Y0147660D02*
X0067657Y0146481D01*
X0067019Y0144941D01*
X0067019Y0143273D01*
X0067657Y0141733D01*
X0068836Y0140554D01*
X0070376Y0139916D01*
X0072043Y0139916D01*
X0073583Y0140554D01*
X0074762Y0141733D01*
X0075400Y0143273D01*
X0075400Y0144941D01*
X0074762Y0146481D01*
X0073583Y0147660D01*
X0072043Y0148298D01*
X0070376Y0148298D01*
X0068836Y0147660D01*
X0067261Y0145525D02*
X0065158Y0145525D01*
X0065400Y0143926D02*
X0067019Y0143926D01*
X0067411Y0142328D02*
X0065008Y0142328D01*
X0063758Y0140729D02*
X0068661Y0140729D01*
X0073758Y0140729D02*
X0078395Y0140729D01*
X0078351Y0140760D02*
X0078910Y0140355D01*
X0079525Y0140041D01*
X0080182Y0139828D01*
X0080864Y0139720D01*
X0081209Y0139720D01*
X0081209Y0144107D01*
X0076822Y0144107D01*
X0076822Y0143762D01*
X0076930Y0143080D01*
X0077144Y0142423D01*
X0077457Y0141808D01*
X0077863Y0141249D01*
X0078351Y0140760D01*
X0077192Y0142328D02*
X0075008Y0142328D01*
X0075400Y0143926D02*
X0076822Y0143926D01*
X0076822Y0144107D02*
X0081209Y0144107D01*
X0081209Y0144107D01*
X0081210Y0144107D01*
X0085597Y0144107D01*
X0085597Y0144452D01*
X0085489Y0145134D01*
X0085276Y0145791D01*
X0084962Y0146407D01*
X0084556Y0146965D01*
X0084068Y0147454D01*
X0083509Y0147859D01*
X0082894Y0148173D01*
X0082237Y0148386D01*
X0081555Y0148494D01*
X0081210Y0148494D01*
X0081210Y0144107D01*
X0081210Y0144107D01*
X0085597Y0144107D01*
X0085597Y0143762D01*
X0085489Y0143080D01*
X0085276Y0142423D01*
X0084962Y0141808D01*
X0084556Y0141249D01*
X0084068Y0140760D01*
X0083509Y0140355D01*
X0082894Y0140041D01*
X0082237Y0139828D01*
X0081555Y0139720D01*
X0081210Y0139720D01*
X0081210Y0144107D01*
X0081209Y0144107D01*
X0081209Y0148494D01*
X0080864Y0148494D01*
X0080182Y0148386D01*
X0079525Y0148173D01*
X0078910Y0147859D01*
X0078351Y0147454D01*
X0077863Y0146965D01*
X0077457Y0146407D01*
X0077144Y0145791D01*
X0076930Y0145134D01*
X0076822Y0144452D01*
X0076822Y0144107D01*
X0077057Y0145525D02*
X0075158Y0145525D01*
X0074120Y0147123D02*
X0078021Y0147123D01*
X0081209Y0147123D02*
X0081210Y0147123D01*
X0081209Y0145525D02*
X0081210Y0145525D01*
X0081209Y0143926D02*
X0081210Y0143926D01*
X0081209Y0142328D02*
X0081210Y0142328D01*
X0081209Y0140729D02*
X0081210Y0140729D01*
X0084025Y0140729D02*
X0094176Y0140729D01*
X0092577Y0142328D02*
X0085227Y0142328D01*
X0085597Y0143926D02*
X0090979Y0143926D01*
X0089380Y0145525D02*
X0085362Y0145525D01*
X0084398Y0147123D02*
X0087782Y0147123D01*
X0086183Y0148722D02*
X0025277Y0148722D01*
X0025277Y0150320D02*
X0084585Y0150320D01*
X0082986Y0151919D02*
X0025277Y0151919D01*
X0025277Y0153517D02*
X0081388Y0153517D01*
X0079789Y0155116D02*
X0025277Y0155116D01*
X0025277Y0156714D02*
X0078191Y0156714D01*
X0076592Y0158313D02*
X0025277Y0158313D01*
X0025277Y0159911D02*
X0074994Y0159911D01*
X0073395Y0161510D02*
X0025277Y0161510D01*
X0025277Y0163108D02*
X0071797Y0163108D01*
X0070198Y0164707D02*
X0025277Y0164707D01*
X0025277Y0166305D02*
X0068600Y0166305D01*
X0067001Y0167904D02*
X0025277Y0167904D01*
X0025277Y0169502D02*
X0065403Y0169502D01*
X0063804Y0171101D02*
X0025277Y0171101D01*
X0025277Y0172699D02*
X0055430Y0172699D01*
X0053800Y0174298D02*
X0025277Y0174298D01*
X0025277Y0175896D02*
X0053279Y0175896D01*
X0053391Y0177495D02*
X0025277Y0177495D01*
X0025277Y0179093D02*
X0054246Y0179093D01*
X0060693Y0179093D02*
X0064246Y0179093D01*
X0063391Y0177495D02*
X0062757Y0177495D01*
X0062206Y0172699D02*
X0059509Y0172699D01*
X0069152Y0171101D02*
X0196678Y0171101D01*
X0195080Y0172699D02*
X0089509Y0172699D01*
X0089843Y0172838D02*
X0091022Y0174017D01*
X0091208Y0174466D01*
X0193313Y0174466D01*
X0230154Y0137625D01*
X0229873Y0136948D01*
X0229873Y0135281D01*
X0230511Y0133741D01*
X0231690Y0132562D01*
X0233230Y0131924D01*
X0234897Y0131924D01*
X0236438Y0132562D01*
X0237616Y0133741D01*
X0238254Y0135281D01*
X0238254Y0136948D01*
X0237616Y0138489D01*
X0236438Y0139667D01*
X0234897Y0140305D01*
X0233230Y0140305D01*
X0232941Y0140186D01*
X0194880Y0178247D01*
X0091236Y0178247D01*
X0091022Y0178764D01*
X0089843Y0179943D01*
X0088303Y0180581D01*
X0086636Y0180581D01*
X0085096Y0179943D01*
X0083917Y0178764D01*
X0083279Y0177224D01*
X0083279Y0175557D01*
X0083917Y0174017D01*
X0085096Y0172838D01*
X0086636Y0172200D01*
X0088303Y0172200D01*
X0089843Y0172838D01*
X0091138Y0174298D02*
X0193481Y0174298D01*
X0195631Y0177495D02*
X0277614Y0177495D01*
X0277614Y0179093D02*
X0090693Y0179093D01*
X0084246Y0179093D02*
X0080693Y0179093D01*
X0081022Y0178764D02*
X0079843Y0179943D01*
X0078303Y0180581D01*
X0076636Y0180581D01*
X0075096Y0179943D01*
X0073917Y0178764D01*
X0073279Y0177224D01*
X0073279Y0175557D01*
X0073917Y0174017D01*
X0075096Y0172838D01*
X0076636Y0172200D01*
X0078303Y0172200D01*
X0079843Y0172838D01*
X0081022Y0174017D01*
X0081660Y0175557D01*
X0081660Y0177224D01*
X0081022Y0178764D01*
X0081548Y0177495D02*
X0083391Y0177495D01*
X0083279Y0175896D02*
X0081660Y0175896D01*
X0081138Y0174298D02*
X0083800Y0174298D01*
X0085430Y0172699D02*
X0079509Y0172699D01*
X0075430Y0172699D02*
X0069509Y0172699D01*
X0071138Y0174298D02*
X0073800Y0174298D01*
X0073279Y0175896D02*
X0071660Y0175896D01*
X0071548Y0177495D02*
X0073391Y0177495D01*
X0074246Y0179093D02*
X0070693Y0179093D01*
X0070750Y0169502D02*
X0198277Y0169502D01*
X0199875Y0167904D02*
X0072349Y0167904D01*
X0073947Y0166305D02*
X0201474Y0166305D01*
X0203072Y0164707D02*
X0123843Y0164707D01*
X0123938Y0164667D02*
X0122397Y0165305D01*
X0120730Y0165305D01*
X0119190Y0164667D01*
X0118011Y0163489D01*
X0117373Y0161948D01*
X0117373Y0160281D01*
X0118011Y0158741D01*
X0119190Y0157562D01*
X0120730Y0156924D01*
X0122397Y0156924D01*
X0123938Y0157562D01*
X0125116Y0158741D01*
X0125754Y0160281D01*
X0125754Y0161948D01*
X0125116Y0163489D01*
X0123938Y0164667D01*
X0125274Y0163108D02*
X0204671Y0163108D01*
X0206269Y0161510D02*
X0125754Y0161510D01*
X0125601Y0159911D02*
X0207868Y0159911D01*
X0209466Y0158313D02*
X0124688Y0158313D01*
X0122855Y0155116D02*
X0212663Y0155116D01*
X0211065Y0156714D02*
X0083538Y0156714D01*
X0085137Y0155116D02*
X0120272Y0155116D01*
X0120730Y0155305D02*
X0119190Y0154667D01*
X0118011Y0153489D01*
X0117373Y0151948D01*
X0117373Y0150281D01*
X0118011Y0148741D01*
X0119190Y0147562D01*
X0120730Y0146924D01*
X0122397Y0146924D01*
X0123938Y0147562D01*
X0125116Y0148741D01*
X0125754Y0150281D01*
X0125754Y0151948D01*
X0125116Y0153489D01*
X0123938Y0154667D01*
X0122397Y0155305D01*
X0120730Y0155305D01*
X0118040Y0153517D02*
X0086735Y0153517D01*
X0088334Y0151919D02*
X0117373Y0151919D01*
X0117373Y0150320D02*
X0089932Y0150320D01*
X0091531Y0148722D02*
X0118031Y0148722D01*
X0120250Y0147123D02*
X0093129Y0147123D01*
X0094728Y0145525D02*
X0222254Y0145525D01*
X0220656Y0147123D02*
X0122877Y0147123D01*
X0122397Y0145305D02*
X0120730Y0145305D01*
X0119190Y0144667D01*
X0118011Y0143489D01*
X0117373Y0141948D01*
X0117373Y0140281D01*
X0118011Y0138741D01*
X0119190Y0137562D01*
X0120730Y0136924D01*
X0122397Y0136924D01*
X0123938Y0137562D01*
X0125116Y0138741D01*
X0125754Y0140281D01*
X0125754Y0141948D01*
X0125116Y0143489D01*
X0123938Y0144667D01*
X0122397Y0145305D01*
X0124679Y0143926D02*
X0223853Y0143926D01*
X0225451Y0142328D02*
X0125597Y0142328D01*
X0125754Y0140729D02*
X0227050Y0140729D01*
X0228648Y0139131D02*
X0125278Y0139131D01*
X0123865Y0137532D02*
X0230115Y0137532D01*
X0229873Y0135934D02*
X0104319Y0135934D01*
X0102720Y0137532D02*
X0119263Y0137532D01*
X0117850Y0139131D02*
X0101122Y0139131D01*
X0099523Y0140729D02*
X0117373Y0140729D01*
X0117530Y0142328D02*
X0097925Y0142328D01*
X0096326Y0143926D02*
X0118449Y0143926D01*
X0125097Y0148722D02*
X0219057Y0148722D01*
X0217459Y0150320D02*
X0125754Y0150320D01*
X0125754Y0151919D02*
X0215860Y0151919D01*
X0214262Y0153517D02*
X0125088Y0153517D01*
X0118440Y0158313D02*
X0081940Y0158313D01*
X0080341Y0159911D02*
X0117527Y0159911D01*
X0117373Y0161510D02*
X0078743Y0161510D01*
X0077144Y0163108D02*
X0117854Y0163108D01*
X0119285Y0164707D02*
X0075546Y0164707D01*
X0105917Y0134335D02*
X0118858Y0134335D01*
X0117700Y0132737D02*
X0107516Y0132737D01*
X0109114Y0131138D02*
X0117373Y0131138D01*
X0117681Y0129540D02*
X0110713Y0129540D01*
X0124270Y0134335D02*
X0230265Y0134335D01*
X0231516Y0132737D02*
X0125428Y0132737D01*
X0125754Y0131138D02*
X0277614Y0131138D01*
X0277614Y0129540D02*
X0236566Y0129540D01*
X0237843Y0127941D02*
X0277614Y0127941D01*
X0277614Y0126343D02*
X0238254Y0126343D01*
X0238032Y0124744D02*
X0277614Y0124744D01*
X0277614Y0123145D02*
X0237021Y0123145D01*
X0231107Y0123145D02*
X0125259Y0123145D01*
X0125754Y0121547D02*
X0277614Y0121547D01*
X0277614Y0119948D02*
X0125617Y0119948D01*
X0124725Y0118350D02*
X0277614Y0118350D01*
X0277614Y0113554D02*
X0125051Y0113554D01*
X0125751Y0111956D02*
X0277614Y0111956D01*
X0277614Y0110357D02*
X0125754Y0110357D01*
X0125124Y0108759D02*
X0277614Y0108759D01*
X0277614Y0132737D02*
X0236612Y0132737D01*
X0237862Y0134335D02*
X0277614Y0134335D01*
X0277614Y0135934D02*
X0238254Y0135934D01*
X0238013Y0137532D02*
X0277614Y0137532D01*
X0277614Y0139131D02*
X0236974Y0139131D01*
X0232397Y0140729D02*
X0277614Y0140729D01*
X0277614Y0142328D02*
X0230799Y0142328D01*
X0229200Y0143926D02*
X0277614Y0143926D01*
X0277614Y0145525D02*
X0227602Y0145525D01*
X0226003Y0147123D02*
X0277614Y0147123D01*
X0277614Y0148722D02*
X0224405Y0148722D01*
X0222806Y0150320D02*
X0277614Y0150320D01*
X0277614Y0151919D02*
X0221208Y0151919D01*
X0219609Y0153517D02*
X0277614Y0153517D01*
X0277614Y0155116D02*
X0218011Y0155116D01*
X0216412Y0156714D02*
X0277614Y0156714D01*
X0277614Y0158313D02*
X0214814Y0158313D01*
X0213215Y0159911D02*
X0277614Y0159911D01*
X0277614Y0161510D02*
X0211617Y0161510D01*
X0210018Y0163108D02*
X0277614Y0163108D01*
X0277614Y0164707D02*
X0208420Y0164707D01*
X0206821Y0166305D02*
X0277614Y0166305D01*
X0277614Y0167904D02*
X0205223Y0167904D01*
X0203624Y0169502D02*
X0277614Y0169502D01*
X0277614Y0171101D02*
X0202026Y0171101D01*
X0200427Y0172699D02*
X0277614Y0172699D01*
X0277614Y0174298D02*
X0198829Y0174298D01*
X0197230Y0175896D02*
X0277614Y0175896D01*
X0277614Y0180692D02*
X0025277Y0180692D01*
X0025277Y0182290D02*
X0277614Y0182290D01*
X0277614Y0183889D02*
X0025277Y0183889D01*
X0025277Y0185487D02*
X0277614Y0185487D01*
X0277614Y0187086D02*
X0025277Y0187086D01*
X0025277Y0188684D02*
X0277614Y0188684D01*
X0277614Y0190283D02*
X0025277Y0190283D01*
X0025277Y0191881D02*
X0277614Y0191881D01*
X0277614Y0193480D02*
X0025277Y0193480D01*
X0025277Y0195079D02*
X0277614Y0195079D01*
X0277614Y0196677D02*
X0025277Y0196677D01*
X0025277Y0198276D02*
X0277614Y0198276D01*
X0277614Y0199874D02*
X0249596Y0199874D01*
X0249998Y0200277D02*
X0250636Y0201817D01*
X0250636Y0203484D01*
X0249998Y0205024D01*
X0248820Y0206203D01*
X0247279Y0206841D01*
X0245612Y0206841D01*
X0244072Y0206203D01*
X0242893Y0205024D01*
X0242255Y0203484D01*
X0242255Y0201817D01*
X0242893Y0200277D01*
X0244072Y0199098D01*
X0245612Y0198460D01*
X0247279Y0198460D01*
X0248820Y0199098D01*
X0249998Y0200277D01*
X0250494Y0201473D02*
X0261197Y0201473D01*
X0261263Y0201407D02*
X0264089Y0200236D01*
X0267149Y0200236D01*
X0269975Y0201407D01*
X0272138Y0203570D01*
X0273309Y0206396D01*
X0273309Y0209455D01*
X0272138Y0212282D01*
X0269975Y0214445D01*
X0267149Y0215616D01*
X0264089Y0215616D01*
X0261263Y0214445D01*
X0259100Y0212282D01*
X0257929Y0209455D01*
X0257929Y0206396D01*
X0259100Y0203570D01*
X0261263Y0201407D01*
X0259599Y0203071D02*
X0250636Y0203071D01*
X0250145Y0204670D02*
X0258644Y0204670D01*
X0257982Y0206268D02*
X0248662Y0206268D01*
X0247279Y0208460D02*
X0248820Y0209098D01*
X0249998Y0210277D01*
X0250636Y0211817D01*
X0250636Y0213484D01*
X0249998Y0215024D01*
X0248820Y0216203D01*
X0247279Y0216841D01*
X0245612Y0216841D01*
X0244072Y0216203D01*
X0242893Y0215024D01*
X0242255Y0213484D01*
X0242255Y0211817D01*
X0242893Y0210277D01*
X0244072Y0209098D01*
X0245612Y0208460D01*
X0247279Y0208460D01*
X0249187Y0209465D02*
X0257933Y0209465D01*
X0257929Y0207867D02*
X0171380Y0207867D01*
X0170040Y0209206D02*
X0169484Y0209763D01*
X0169998Y0210277D01*
X0170636Y0211817D01*
X0170636Y0213484D01*
X0169998Y0215024D01*
X0168820Y0216203D01*
X0167279Y0216841D01*
X0165612Y0216841D01*
X0164072Y0216203D01*
X0162893Y0215024D01*
X0162255Y0213484D01*
X0162255Y0211817D01*
X0162893Y0210277D01*
X0162927Y0210243D01*
X0159965Y0210243D01*
X0159998Y0210277D01*
X0160636Y0211817D01*
X0160636Y0213484D01*
X0159998Y0215024D01*
X0158820Y0216203D01*
X0157279Y0216841D01*
X0155612Y0216841D01*
X0154072Y0216203D01*
X0152893Y0215024D01*
X0152255Y0213484D01*
X0152255Y0211817D01*
X0152893Y0210277D01*
X0152927Y0210243D01*
X0149965Y0210243D01*
X0149998Y0210277D01*
X0150636Y0211817D01*
X0150636Y0213484D01*
X0149998Y0215024D01*
X0148820Y0216203D01*
X0147279Y0216841D01*
X0145612Y0216841D01*
X0144072Y0216203D01*
X0142893Y0215024D01*
X0142747Y0214672D01*
X0142440Y0214672D01*
X0141561Y0214308D01*
X0140636Y0213383D01*
X0140636Y0213484D01*
X0139998Y0215024D01*
X0138820Y0216203D01*
X0137279Y0216841D01*
X0135612Y0216841D01*
X0134072Y0216203D01*
X0132893Y0215024D01*
X0132255Y0213484D01*
X0132255Y0211817D01*
X0132893Y0210277D01*
X0132927Y0210243D01*
X0129965Y0210243D01*
X0129998Y0210277D01*
X0130636Y0211817D01*
X0130636Y0213484D01*
X0129998Y0215024D01*
X0128820Y0216203D01*
X0127279Y0216841D01*
X0125612Y0216841D01*
X0124072Y0216203D01*
X0122893Y0215024D01*
X0122255Y0213484D01*
X0122255Y0211817D01*
X0122893Y0210277D01*
X0122927Y0210243D01*
X0122252Y0210243D01*
X0120636Y0211859D01*
X0120636Y0213484D01*
X0119998Y0215024D01*
X0118820Y0216203D01*
X0117279Y0216841D01*
X0115612Y0216841D01*
X0114072Y0216203D01*
X0112893Y0215024D01*
X0112255Y0213484D01*
X0112255Y0211817D01*
X0112893Y0210277D01*
X0114072Y0209098D01*
X0115612Y0208460D01*
X0117274Y0208460D01*
X0119908Y0205826D01*
X0120786Y0205462D01*
X0123331Y0205462D01*
X0122893Y0205024D01*
X0122255Y0203484D01*
X0122255Y0201817D01*
X0122893Y0200277D01*
X0124072Y0199098D01*
X0125612Y0198460D01*
X0127279Y0198460D01*
X0128820Y0199098D01*
X0129998Y0200277D01*
X0130636Y0201817D01*
X0130636Y0203484D01*
X0129998Y0205024D01*
X0129561Y0205462D01*
X0133331Y0205462D01*
X0132893Y0205024D01*
X0132255Y0203484D01*
X0132255Y0201817D01*
X0132893Y0200277D01*
X0134072Y0199098D01*
X0135612Y0198460D01*
X0137279Y0198460D01*
X0138820Y0199098D01*
X0139998Y0200277D01*
X0140636Y0201817D01*
X0140636Y0203484D01*
X0139998Y0205024D01*
X0139561Y0205462D01*
X0143331Y0205462D01*
X0142893Y0205024D01*
X0142255Y0203484D01*
X0142255Y0201817D01*
X0142893Y0200277D01*
X0144072Y0199098D01*
X0145612Y0198460D01*
X0147279Y0198460D01*
X0148820Y0199098D01*
X0149998Y0200277D01*
X0150636Y0201817D01*
X0150636Y0203484D01*
X0149998Y0205024D01*
X0149561Y0205462D01*
X0153331Y0205462D01*
X0152893Y0205024D01*
X0152255Y0203484D01*
X0152255Y0201817D01*
X0152893Y0200277D01*
X0154072Y0199098D01*
X0155612Y0198460D01*
X0157279Y0198460D01*
X0158820Y0199098D01*
X0159998Y0200277D01*
X0160636Y0201817D01*
X0160636Y0203484D01*
X0159998Y0205024D01*
X0159561Y0205462D01*
X0163331Y0205462D01*
X0162893Y0205024D01*
X0162255Y0203484D01*
X0162255Y0201817D01*
X0162893Y0200277D01*
X0164072Y0199098D01*
X0165612Y0198460D01*
X0167279Y0198460D01*
X0168820Y0199098D01*
X0169998Y0200277D01*
X0170636Y0201817D01*
X0170636Y0201849D01*
X0171581Y0200904D01*
X0172460Y0200540D01*
X0172784Y0200540D01*
X0172893Y0200277D01*
X0174072Y0199098D01*
X0175612Y0198460D01*
X0177279Y0198460D01*
X0178820Y0199098D01*
X0179998Y0200277D01*
X0180636Y0201817D01*
X0180636Y0203484D01*
X0179998Y0205024D01*
X0178820Y0206203D01*
X0177279Y0206841D01*
X0175612Y0206841D01*
X0174072Y0206203D01*
X0173558Y0205689D01*
X0170040Y0209206D01*
X0169782Y0209465D02*
X0173705Y0209465D01*
X0174072Y0209098D02*
X0175612Y0208460D01*
X0177279Y0208460D01*
X0178820Y0209098D01*
X0179998Y0210277D01*
X0180636Y0211817D01*
X0180636Y0213484D01*
X0179998Y0215024D01*
X0178820Y0216203D01*
X0177279Y0216841D01*
X0175612Y0216841D01*
X0174072Y0216203D01*
X0172893Y0215024D01*
X0172255Y0213484D01*
X0172255Y0211817D01*
X0172893Y0210277D01*
X0174072Y0209098D01*
X0172567Y0211064D02*
X0170324Y0211064D01*
X0170636Y0212662D02*
X0172255Y0212662D01*
X0172577Y0214261D02*
X0170315Y0214261D01*
X0169163Y0215859D02*
X0173728Y0215859D01*
X0179163Y0215859D02*
X0183728Y0215859D01*
X0184072Y0216203D02*
X0182893Y0215024D01*
X0182255Y0213484D01*
X0182255Y0211817D01*
X0182893Y0210277D01*
X0184072Y0209098D01*
X0185612Y0208460D01*
X0187279Y0208460D01*
X0188820Y0209098D01*
X0189998Y0210277D01*
X0190636Y0211817D01*
X0190636Y0213484D01*
X0189998Y0215024D01*
X0188820Y0216203D01*
X0187279Y0216841D01*
X0185612Y0216841D01*
X0184072Y0216203D01*
X0182577Y0214261D02*
X0180315Y0214261D01*
X0180636Y0212662D02*
X0182255Y0212662D01*
X0182567Y0211064D02*
X0180324Y0211064D01*
X0179187Y0209465D02*
X0183705Y0209465D01*
X0184229Y0206268D02*
X0178662Y0206268D01*
X0180145Y0204670D02*
X0182746Y0204670D01*
X0182893Y0205024D02*
X0182255Y0203484D01*
X0182255Y0201817D01*
X0182893Y0200277D01*
X0184072Y0199098D01*
X0185612Y0198460D01*
X0187279Y0198460D01*
X0188820Y0199098D01*
X0189998Y0200277D01*
X0190636Y0201817D01*
X0190636Y0203484D01*
X0189998Y0205024D01*
X0188820Y0206203D01*
X0187279Y0206841D01*
X0185612Y0206841D01*
X0184072Y0206203D01*
X0182893Y0205024D01*
X0182255Y0203071D02*
X0180636Y0203071D01*
X0180494Y0201473D02*
X0182398Y0201473D01*
X0183296Y0199874D02*
X0179596Y0199874D01*
X0173296Y0199874D02*
X0169596Y0199874D01*
X0170494Y0201473D02*
X0171013Y0201473D01*
X0172979Y0206268D02*
X0174229Y0206268D01*
X0162746Y0204670D02*
X0160145Y0204670D01*
X0160636Y0203071D02*
X0162255Y0203071D01*
X0162398Y0201473D02*
X0160494Y0201473D01*
X0159596Y0199874D02*
X0163296Y0199874D01*
X0153296Y0199874D02*
X0149596Y0199874D01*
X0150494Y0201473D02*
X0152398Y0201473D01*
X0152255Y0203071D02*
X0150636Y0203071D01*
X0150145Y0204670D02*
X0152746Y0204670D01*
X0152567Y0211064D02*
X0150324Y0211064D01*
X0150636Y0212662D02*
X0152255Y0212662D01*
X0152577Y0214261D02*
X0150315Y0214261D01*
X0149163Y0215859D02*
X0153728Y0215859D01*
X0159163Y0215859D02*
X0163728Y0215859D01*
X0162577Y0214261D02*
X0160315Y0214261D01*
X0160636Y0212662D02*
X0162255Y0212662D01*
X0162567Y0211064D02*
X0160324Y0211064D01*
X0143728Y0215859D02*
X0139163Y0215859D01*
X0140315Y0214261D02*
X0141514Y0214261D01*
X0133728Y0215859D02*
X0129163Y0215859D01*
X0130315Y0214261D02*
X0132577Y0214261D01*
X0132255Y0212662D02*
X0130636Y0212662D01*
X0130324Y0211064D02*
X0132567Y0211064D01*
X0132746Y0204670D02*
X0130145Y0204670D01*
X0130636Y0203071D02*
X0132255Y0203071D01*
X0132398Y0201473D02*
X0130494Y0201473D01*
X0129596Y0199874D02*
X0133296Y0199874D01*
X0139596Y0199874D02*
X0143296Y0199874D01*
X0142398Y0201473D02*
X0140494Y0201473D01*
X0140636Y0203071D02*
X0142255Y0203071D01*
X0142746Y0204670D02*
X0140145Y0204670D01*
X0122746Y0204670D02*
X0120145Y0204670D01*
X0119998Y0205024D02*
X0118820Y0206203D01*
X0117279Y0206841D01*
X0115612Y0206841D01*
X0114072Y0206203D01*
X0112893Y0205024D01*
X0112255Y0203484D01*
X0112255Y0201817D01*
X0112893Y0200277D01*
X0114072Y0199098D01*
X0115612Y0198460D01*
X0117279Y0198460D01*
X0118820Y0199098D01*
X0119998Y0200277D01*
X0120636Y0201817D01*
X0120636Y0203484D01*
X0119998Y0205024D01*
X0119465Y0206268D02*
X0118662Y0206268D01*
X0117867Y0207867D02*
X0044962Y0207867D01*
X0044962Y0206396D02*
X0043792Y0203570D01*
X0041628Y0201407D01*
X0038802Y0200236D01*
X0035743Y0200236D01*
X0032917Y0201407D01*
X0030753Y0203570D01*
X0029583Y0206396D01*
X0029583Y0209455D01*
X0030753Y0212282D01*
X0032917Y0214445D01*
X0035743Y0215616D01*
X0038802Y0215616D01*
X0041628Y0214445D01*
X0043792Y0212282D01*
X0044962Y0209455D01*
X0044962Y0206396D01*
X0044909Y0206268D02*
X0054229Y0206268D01*
X0054072Y0206203D02*
X0052893Y0205024D01*
X0052255Y0203484D01*
X0052255Y0201817D01*
X0052893Y0200277D01*
X0054072Y0199098D01*
X0055612Y0198460D01*
X0057279Y0198460D01*
X0058820Y0199098D01*
X0059998Y0200277D01*
X0060636Y0201817D01*
X0060636Y0203484D01*
X0059998Y0205024D01*
X0058820Y0206203D01*
X0057279Y0206841D01*
X0055612Y0206841D01*
X0054072Y0206203D01*
X0052746Y0204670D02*
X0044247Y0204670D01*
X0043293Y0203071D02*
X0052255Y0203071D01*
X0052398Y0201473D02*
X0041694Y0201473D01*
X0044958Y0209465D02*
X0053426Y0209465D01*
X0053588Y0209304D02*
X0054146Y0208898D01*
X0054762Y0208584D01*
X0055418Y0208371D01*
X0056100Y0208263D01*
X0056446Y0208263D01*
X0056791Y0208263D01*
X0057473Y0208371D01*
X0058130Y0208584D01*
X0058745Y0208898D01*
X0059304Y0209304D01*
X0059792Y0209792D01*
X0060198Y0210351D01*
X0060512Y0210966D01*
X0060725Y0211623D01*
X0060833Y0212305D01*
X0060833Y0212650D01*
X0056446Y0212650D01*
X0056446Y0208263D01*
X0056446Y0212650D01*
X0056446Y0212650D01*
X0056446Y0212650D01*
X0060833Y0212650D01*
X0060833Y0212996D01*
X0060725Y0213678D01*
X0060512Y0214334D01*
X0060198Y0214950D01*
X0059792Y0215509D01*
X0059304Y0215997D01*
X0058745Y0216403D01*
X0058130Y0216716D01*
X0057473Y0216930D01*
X0056791Y0217038D01*
X0056446Y0217038D01*
X0056446Y0212650D01*
X0052058Y0212650D01*
X0052058Y0212305D01*
X0052166Y0211623D01*
X0052380Y0210966D01*
X0052693Y0210351D01*
X0053099Y0209792D01*
X0053588Y0209304D01*
X0052348Y0211064D02*
X0044296Y0211064D01*
X0043411Y0212662D02*
X0052058Y0212662D01*
X0052058Y0212650D02*
X0056446Y0212650D01*
X0056446Y0212650D01*
X0056446Y0212650D01*
X0056446Y0217038D01*
X0056100Y0217038D01*
X0055418Y0216930D01*
X0054762Y0216716D01*
X0054146Y0216403D01*
X0053588Y0215997D01*
X0053099Y0215509D01*
X0052693Y0214950D01*
X0052380Y0214334D01*
X0052166Y0213678D01*
X0052058Y0212996D01*
X0052058Y0212650D01*
X0052356Y0214261D02*
X0041813Y0214261D01*
X0032732Y0214261D02*
X0027090Y0214261D01*
X0026313Y0212662D02*
X0031134Y0212662D01*
X0030249Y0211064D02*
X0025730Y0211064D01*
X0025422Y0209465D02*
X0029587Y0209465D01*
X0029583Y0207867D02*
X0025277Y0207867D01*
X0025277Y0206268D02*
X0029636Y0206268D01*
X0030298Y0204670D02*
X0025277Y0204670D01*
X0025277Y0203071D02*
X0031252Y0203071D01*
X0032851Y0201473D02*
X0025277Y0201473D01*
X0025277Y0199874D02*
X0053296Y0199874D01*
X0059596Y0199874D02*
X0063296Y0199874D01*
X0062893Y0200277D02*
X0064072Y0199098D01*
X0065612Y0198460D01*
X0067279Y0198460D01*
X0068820Y0199098D01*
X0069998Y0200277D01*
X0070636Y0201817D01*
X0070636Y0203484D01*
X0069998Y0205024D01*
X0068820Y0206203D01*
X0067279Y0206841D01*
X0065612Y0206841D01*
X0064072Y0206203D01*
X0062893Y0205024D01*
X0062255Y0203484D01*
X0062255Y0201817D01*
X0062893Y0200277D01*
X0062398Y0201473D02*
X0060494Y0201473D01*
X0060636Y0203071D02*
X0062255Y0203071D01*
X0062746Y0204670D02*
X0060145Y0204670D01*
X0058662Y0206268D02*
X0064229Y0206268D01*
X0064762Y0208584D02*
X0064146Y0208898D01*
X0063588Y0209304D01*
X0063099Y0209792D01*
X0062693Y0210351D01*
X0062380Y0210966D01*
X0062166Y0211623D01*
X0062058Y0212305D01*
X0062058Y0212650D01*
X0066446Y0212650D01*
X0066446Y0208263D01*
X0066791Y0208263D01*
X0067473Y0208371D01*
X0068130Y0208584D01*
X0068745Y0208898D01*
X0069304Y0209304D01*
X0069792Y0209792D01*
X0070198Y0210351D01*
X0070512Y0210966D01*
X0070725Y0211623D01*
X0070833Y0212305D01*
X0070833Y0212650D01*
X0066446Y0212650D01*
X0066446Y0212650D01*
X0066446Y0212650D01*
X0066446Y0208263D01*
X0066100Y0208263D01*
X0065418Y0208371D01*
X0064762Y0208584D01*
X0063426Y0209465D02*
X0059465Y0209465D01*
X0060543Y0211064D02*
X0062348Y0211064D01*
X0062058Y0212650D02*
X0066446Y0212650D01*
X0070833Y0212650D01*
X0070833Y0212996D01*
X0070725Y0213678D01*
X0070512Y0214334D01*
X0070198Y0214950D01*
X0069792Y0215509D01*
X0069304Y0215997D01*
X0068745Y0216403D01*
X0068130Y0216716D01*
X0067473Y0216930D01*
X0066791Y0217038D01*
X0066446Y0217038D01*
X0066446Y0212650D01*
X0066446Y0212650D01*
X0066446Y0212650D01*
X0066446Y0217038D01*
X0066100Y0217038D01*
X0065418Y0216930D01*
X0064762Y0216716D01*
X0064146Y0216403D01*
X0063588Y0215997D01*
X0063099Y0215509D01*
X0062693Y0214950D01*
X0062380Y0214334D01*
X0062166Y0213678D01*
X0062058Y0212996D01*
X0062058Y0212650D01*
X0062058Y0212662D02*
X0060833Y0212662D01*
X0060536Y0214261D02*
X0062356Y0214261D01*
X0063450Y0215859D02*
X0059442Y0215859D01*
X0056446Y0215859D02*
X0056446Y0215859D01*
X0056446Y0214261D02*
X0056446Y0214261D01*
X0056446Y0212662D02*
X0056446Y0212662D01*
X0056446Y0211064D02*
X0056446Y0211064D01*
X0056446Y0209465D02*
X0056446Y0209465D01*
X0053450Y0215859D02*
X0028364Y0215859D01*
X0030076Y0217458D02*
X0272895Y0217458D01*
X0274505Y0215859D02*
X0249163Y0215859D01*
X0250315Y0214261D02*
X0261079Y0214261D01*
X0259480Y0212662D02*
X0250636Y0212662D01*
X0250324Y0211064D02*
X0258595Y0211064D01*
X0270159Y0214261D02*
X0275694Y0214261D01*
X0276617Y0212662D02*
X0271758Y0212662D01*
X0272643Y0211064D02*
X0277090Y0211064D01*
X0277513Y0209465D02*
X0273305Y0209465D01*
X0273309Y0207867D02*
X0277614Y0207867D01*
X0277614Y0206268D02*
X0273256Y0206268D01*
X0272594Y0204670D02*
X0277614Y0204670D01*
X0277614Y0203071D02*
X0271639Y0203071D01*
X0270041Y0201473D02*
X0277614Y0201473D01*
X0270030Y0219056D02*
X0032963Y0219056D01*
X0066446Y0215859D02*
X0066446Y0215859D01*
X0066446Y0214261D02*
X0066446Y0214261D01*
X0066446Y0212662D02*
X0066446Y0212662D01*
X0066446Y0211064D02*
X0066446Y0211064D01*
X0066446Y0209465D02*
X0066446Y0209465D01*
X0069465Y0209465D02*
X0073705Y0209465D01*
X0074072Y0209098D02*
X0075612Y0208460D01*
X0077279Y0208460D01*
X0078820Y0209098D01*
X0079998Y0210277D01*
X0080636Y0211817D01*
X0080636Y0213484D01*
X0079998Y0215024D01*
X0078820Y0216203D01*
X0077279Y0216841D01*
X0075612Y0216841D01*
X0074072Y0216203D01*
X0072893Y0215024D01*
X0072255Y0213484D01*
X0072255Y0211817D01*
X0072893Y0210277D01*
X0074072Y0209098D01*
X0072567Y0211064D02*
X0070543Y0211064D01*
X0070833Y0212662D02*
X0072255Y0212662D01*
X0072577Y0214261D02*
X0070536Y0214261D01*
X0069442Y0215859D02*
X0073728Y0215859D01*
X0079163Y0215859D02*
X0083728Y0215859D01*
X0084072Y0216203D02*
X0082893Y0215024D01*
X0082255Y0213484D01*
X0082255Y0211817D01*
X0082893Y0210277D01*
X0084072Y0209098D01*
X0085612Y0208460D01*
X0087279Y0208460D01*
X0088820Y0209098D01*
X0089998Y0210277D01*
X0090636Y0211817D01*
X0090636Y0213484D01*
X0089998Y0215024D01*
X0088820Y0216203D01*
X0087279Y0216841D01*
X0085612Y0216841D01*
X0084072Y0216203D01*
X0082577Y0214261D02*
X0080315Y0214261D01*
X0080636Y0212662D02*
X0082255Y0212662D01*
X0082567Y0211064D02*
X0080324Y0211064D01*
X0079187Y0209465D02*
X0083705Y0209465D01*
X0084229Y0206268D02*
X0078662Y0206268D01*
X0078820Y0206203D02*
X0077279Y0206841D01*
X0075612Y0206841D01*
X0074072Y0206203D01*
X0072893Y0205024D01*
X0072255Y0203484D01*
X0072255Y0201817D01*
X0072893Y0200277D01*
X0074072Y0199098D01*
X0075612Y0198460D01*
X0077279Y0198460D01*
X0078820Y0199098D01*
X0079998Y0200277D01*
X0080636Y0201817D01*
X0080636Y0203484D01*
X0079998Y0205024D01*
X0078820Y0206203D01*
X0080145Y0204670D02*
X0082746Y0204670D01*
X0082893Y0205024D02*
X0082255Y0203484D01*
X0082255Y0201817D01*
X0082893Y0200277D01*
X0084072Y0199098D01*
X0085612Y0198460D01*
X0087279Y0198460D01*
X0088820Y0199098D01*
X0089998Y0200277D01*
X0090636Y0201817D01*
X0090636Y0203484D01*
X0089998Y0205024D01*
X0088820Y0206203D01*
X0087279Y0206841D01*
X0085612Y0206841D01*
X0084072Y0206203D01*
X0082893Y0205024D01*
X0082255Y0203071D02*
X0080636Y0203071D01*
X0080494Y0201473D02*
X0082398Y0201473D01*
X0083296Y0199874D02*
X0079596Y0199874D01*
X0073296Y0199874D02*
X0069596Y0199874D01*
X0070494Y0201473D02*
X0072398Y0201473D01*
X0072255Y0203071D02*
X0070636Y0203071D01*
X0070145Y0204670D02*
X0072746Y0204670D01*
X0074229Y0206268D02*
X0068662Y0206268D01*
X0088662Y0206268D02*
X0094229Y0206268D01*
X0094072Y0206203D02*
X0092893Y0205024D01*
X0092255Y0203484D01*
X0092255Y0201817D01*
X0092893Y0200277D01*
X0094072Y0199098D01*
X0095612Y0198460D01*
X0097279Y0198460D01*
X0098820Y0199098D01*
X0099998Y0200277D01*
X0100636Y0201817D01*
X0100636Y0203484D01*
X0099998Y0205024D01*
X0098820Y0206203D01*
X0097279Y0206841D01*
X0095612Y0206841D01*
X0094072Y0206203D01*
X0092746Y0204670D02*
X0090145Y0204670D01*
X0090636Y0203071D02*
X0092255Y0203071D01*
X0092398Y0201473D02*
X0090494Y0201473D01*
X0089596Y0199874D02*
X0093296Y0199874D01*
X0099596Y0199874D02*
X0103296Y0199874D01*
X0102893Y0200277D02*
X0104072Y0199098D01*
X0105612Y0198460D01*
X0107279Y0198460D01*
X0108820Y0199098D01*
X0109998Y0200277D01*
X0110636Y0201817D01*
X0110636Y0203484D01*
X0109998Y0205024D01*
X0108820Y0206203D01*
X0107279Y0206841D01*
X0105612Y0206841D01*
X0104072Y0206203D01*
X0102893Y0205024D01*
X0102255Y0203484D01*
X0102255Y0201817D01*
X0102893Y0200277D01*
X0102398Y0201473D02*
X0100494Y0201473D01*
X0100636Y0203071D02*
X0102255Y0203071D01*
X0102746Y0204670D02*
X0100145Y0204670D01*
X0098662Y0206268D02*
X0104229Y0206268D01*
X0105612Y0208460D02*
X0104072Y0209098D01*
X0102893Y0210277D01*
X0102255Y0211817D01*
X0102255Y0213484D01*
X0102893Y0215024D01*
X0104072Y0216203D01*
X0105612Y0216841D01*
X0107279Y0216841D01*
X0108820Y0216203D01*
X0109998Y0215024D01*
X0110636Y0213484D01*
X0110636Y0211817D01*
X0109998Y0210277D01*
X0108820Y0209098D01*
X0107279Y0208460D01*
X0105612Y0208460D01*
X0103705Y0209465D02*
X0099187Y0209465D01*
X0098820Y0209098D02*
X0099998Y0210277D01*
X0100636Y0211817D01*
X0100636Y0213484D01*
X0099998Y0215024D01*
X0098820Y0216203D01*
X0097279Y0216841D01*
X0095612Y0216841D01*
X0094072Y0216203D01*
X0092893Y0215024D01*
X0092255Y0213484D01*
X0092255Y0211817D01*
X0092893Y0210277D01*
X0094072Y0209098D01*
X0095612Y0208460D01*
X0097279Y0208460D01*
X0098820Y0209098D01*
X0100324Y0211064D02*
X0102567Y0211064D01*
X0102255Y0212662D02*
X0100636Y0212662D01*
X0100315Y0214261D02*
X0102577Y0214261D01*
X0103728Y0215859D02*
X0099163Y0215859D01*
X0093728Y0215859D02*
X0089163Y0215859D01*
X0090315Y0214261D02*
X0092577Y0214261D01*
X0092255Y0212662D02*
X0090636Y0212662D01*
X0090324Y0211064D02*
X0092567Y0211064D01*
X0093705Y0209465D02*
X0089187Y0209465D01*
X0108662Y0206268D02*
X0114229Y0206268D01*
X0112746Y0204670D02*
X0110145Y0204670D01*
X0110636Y0203071D02*
X0112255Y0203071D01*
X0112398Y0201473D02*
X0110494Y0201473D01*
X0109596Y0199874D02*
X0113296Y0199874D01*
X0119596Y0199874D02*
X0123296Y0199874D01*
X0122398Y0201473D02*
X0120494Y0201473D01*
X0120636Y0203071D02*
X0122255Y0203071D01*
X0113705Y0209465D02*
X0109187Y0209465D01*
X0110324Y0211064D02*
X0112567Y0211064D01*
X0112255Y0212662D02*
X0110636Y0212662D01*
X0110315Y0214261D02*
X0112577Y0214261D01*
X0113728Y0215859D02*
X0109163Y0215859D01*
X0119163Y0215859D02*
X0123728Y0215859D01*
X0122577Y0214261D02*
X0120315Y0214261D01*
X0120636Y0212662D02*
X0122255Y0212662D01*
X0122567Y0211064D02*
X0121431Y0211064D01*
X0188662Y0206268D02*
X0194229Y0206268D01*
X0194072Y0206203D02*
X0192893Y0205024D01*
X0192255Y0203484D01*
X0192255Y0201817D01*
X0192893Y0200277D01*
X0194072Y0199098D01*
X0195612Y0198460D01*
X0197279Y0198460D01*
X0198820Y0199098D01*
X0199998Y0200277D01*
X0200636Y0201817D01*
X0200636Y0203484D01*
X0199998Y0205024D01*
X0198820Y0206203D01*
X0197279Y0206841D01*
X0195612Y0206841D01*
X0194072Y0206203D01*
X0192746Y0204670D02*
X0190145Y0204670D01*
X0190636Y0203071D02*
X0192255Y0203071D01*
X0192398Y0201473D02*
X0190494Y0201473D01*
X0189596Y0199874D02*
X0193296Y0199874D01*
X0199596Y0199874D02*
X0203296Y0199874D01*
X0202893Y0200277D02*
X0204072Y0199098D01*
X0205612Y0198460D01*
X0207279Y0198460D01*
X0208820Y0199098D01*
X0209998Y0200277D01*
X0210636Y0201817D01*
X0210636Y0203484D01*
X0209998Y0205024D01*
X0208820Y0206203D01*
X0207279Y0206841D01*
X0205612Y0206841D01*
X0204072Y0206203D01*
X0202893Y0205024D01*
X0202255Y0203484D01*
X0202255Y0201817D01*
X0202893Y0200277D01*
X0202398Y0201473D02*
X0200494Y0201473D01*
X0200636Y0203071D02*
X0202255Y0203071D01*
X0202746Y0204670D02*
X0200145Y0204670D01*
X0198662Y0206268D02*
X0204229Y0206268D01*
X0205612Y0208460D02*
X0204072Y0209098D01*
X0202893Y0210277D01*
X0202255Y0211817D01*
X0202255Y0213484D01*
X0202893Y0215024D01*
X0204072Y0216203D01*
X0205612Y0216841D01*
X0207279Y0216841D01*
X0208820Y0216203D01*
X0209998Y0215024D01*
X0210636Y0213484D01*
X0210636Y0211817D01*
X0209998Y0210277D01*
X0208820Y0209098D01*
X0207279Y0208460D01*
X0205612Y0208460D01*
X0203705Y0209465D02*
X0199187Y0209465D01*
X0198820Y0209098D02*
X0199998Y0210277D01*
X0200636Y0211817D01*
X0200636Y0213484D01*
X0199998Y0215024D01*
X0198820Y0216203D01*
X0197279Y0216841D01*
X0195612Y0216841D01*
X0194072Y0216203D01*
X0192893Y0215024D01*
X0192255Y0213484D01*
X0192255Y0211817D01*
X0192893Y0210277D01*
X0194072Y0209098D01*
X0195612Y0208460D01*
X0197279Y0208460D01*
X0198820Y0209098D01*
X0200324Y0211064D02*
X0202567Y0211064D01*
X0202255Y0212662D02*
X0200636Y0212662D01*
X0200315Y0214261D02*
X0202577Y0214261D01*
X0203728Y0215859D02*
X0199163Y0215859D01*
X0193728Y0215859D02*
X0189163Y0215859D01*
X0190315Y0214261D02*
X0192577Y0214261D01*
X0192255Y0212662D02*
X0190636Y0212662D01*
X0190324Y0211064D02*
X0192567Y0211064D01*
X0193705Y0209465D02*
X0189187Y0209465D01*
X0208662Y0206268D02*
X0214229Y0206268D01*
X0214072Y0206203D02*
X0212893Y0205024D01*
X0212255Y0203484D01*
X0212255Y0201817D01*
X0212893Y0200277D01*
X0214072Y0199098D01*
X0215612Y0198460D01*
X0217279Y0198460D01*
X0218820Y0199098D01*
X0219998Y0200277D01*
X0220636Y0201817D01*
X0220636Y0203484D01*
X0219998Y0205024D01*
X0218820Y0206203D01*
X0217279Y0206841D01*
X0215612Y0206841D01*
X0214072Y0206203D01*
X0212746Y0204670D02*
X0210145Y0204670D01*
X0210636Y0203071D02*
X0212255Y0203071D01*
X0212398Y0201473D02*
X0210494Y0201473D01*
X0209596Y0199874D02*
X0213296Y0199874D01*
X0219596Y0199874D02*
X0223296Y0199874D01*
X0222893Y0200277D02*
X0224072Y0199098D01*
X0225612Y0198460D01*
X0227279Y0198460D01*
X0228820Y0199098D01*
X0229998Y0200277D01*
X0230636Y0201817D01*
X0230636Y0203484D01*
X0229998Y0205024D01*
X0228820Y0206203D01*
X0227279Y0206841D01*
X0225612Y0206841D01*
X0224072Y0206203D01*
X0222893Y0205024D01*
X0222255Y0203484D01*
X0222255Y0201817D01*
X0222893Y0200277D01*
X0222398Y0201473D02*
X0220494Y0201473D01*
X0220636Y0203071D02*
X0222255Y0203071D01*
X0222746Y0204670D02*
X0220145Y0204670D01*
X0218662Y0206268D02*
X0224229Y0206268D01*
X0225612Y0208460D02*
X0227279Y0208460D01*
X0228820Y0209098D01*
X0229998Y0210277D01*
X0230636Y0211817D01*
X0230636Y0213484D01*
X0229998Y0215024D01*
X0228820Y0216203D01*
X0227279Y0216841D01*
X0225612Y0216841D01*
X0224072Y0216203D01*
X0222893Y0215024D01*
X0222255Y0213484D01*
X0222255Y0211817D01*
X0222893Y0210277D01*
X0224072Y0209098D01*
X0225612Y0208460D01*
X0223705Y0209465D02*
X0219187Y0209465D01*
X0218820Y0209098D02*
X0219998Y0210277D01*
X0220636Y0211817D01*
X0220636Y0213484D01*
X0219998Y0215024D01*
X0218820Y0216203D01*
X0217279Y0216841D01*
X0215612Y0216841D01*
X0214072Y0216203D01*
X0212893Y0215024D01*
X0212255Y0213484D01*
X0212255Y0211817D01*
X0212893Y0210277D01*
X0214072Y0209098D01*
X0215612Y0208460D01*
X0217279Y0208460D01*
X0218820Y0209098D01*
X0220324Y0211064D02*
X0222567Y0211064D01*
X0222255Y0212662D02*
X0220636Y0212662D01*
X0220315Y0214261D02*
X0222577Y0214261D01*
X0223728Y0215859D02*
X0219163Y0215859D01*
X0213728Y0215859D02*
X0209163Y0215859D01*
X0210315Y0214261D02*
X0212577Y0214261D01*
X0212255Y0212662D02*
X0210636Y0212662D01*
X0210324Y0211064D02*
X0212567Y0211064D01*
X0213705Y0209465D02*
X0209187Y0209465D01*
X0228662Y0206268D02*
X0234229Y0206268D01*
X0234072Y0206203D02*
X0232893Y0205024D01*
X0232255Y0203484D01*
X0232255Y0201817D01*
X0232893Y0200277D01*
X0234072Y0199098D01*
X0235612Y0198460D01*
X0237279Y0198460D01*
X0238820Y0199098D01*
X0239998Y0200277D01*
X0240636Y0201817D01*
X0240636Y0203484D01*
X0239998Y0205024D01*
X0238820Y0206203D01*
X0237279Y0206841D01*
X0235612Y0206841D01*
X0234072Y0206203D01*
X0232746Y0204670D02*
X0230145Y0204670D01*
X0230636Y0203071D02*
X0232255Y0203071D01*
X0232398Y0201473D02*
X0230494Y0201473D01*
X0229596Y0199874D02*
X0233296Y0199874D01*
X0239596Y0199874D02*
X0243296Y0199874D01*
X0242398Y0201473D02*
X0240494Y0201473D01*
X0240636Y0203071D02*
X0242255Y0203071D01*
X0242746Y0204670D02*
X0240145Y0204670D01*
X0238662Y0206268D02*
X0244229Y0206268D01*
X0243705Y0209465D02*
X0239187Y0209465D01*
X0238820Y0209098D02*
X0239998Y0210277D01*
X0240636Y0211817D01*
X0240636Y0213484D01*
X0239998Y0215024D01*
X0238820Y0216203D01*
X0237279Y0216841D01*
X0235612Y0216841D01*
X0234072Y0216203D01*
X0232893Y0215024D01*
X0232255Y0213484D01*
X0232255Y0211817D01*
X0232893Y0210277D01*
X0234072Y0209098D01*
X0235612Y0208460D01*
X0237279Y0208460D01*
X0238820Y0209098D01*
X0240324Y0211064D02*
X0242567Y0211064D01*
X0242255Y0212662D02*
X0240636Y0212662D01*
X0240315Y0214261D02*
X0242577Y0214261D01*
X0243728Y0215859D02*
X0239163Y0215859D01*
X0233728Y0215859D02*
X0229163Y0215859D01*
X0230315Y0214261D02*
X0232577Y0214261D01*
X0232255Y0212662D02*
X0230636Y0212662D01*
X0230324Y0211064D02*
X0232567Y0211064D01*
X0233705Y0209465D02*
X0229187Y0209465D01*
X0231562Y0129540D02*
X0125447Y0129540D01*
X0041628Y0035311D02*
X0038802Y0036482D01*
X0035743Y0036482D01*
X0032917Y0035311D01*
X0030753Y0033148D01*
X0029583Y0030322D01*
X0029583Y0027262D01*
X0030753Y0024436D01*
X0032917Y0022273D01*
X0035743Y0021102D01*
X0038802Y0021102D01*
X0041628Y0022273D01*
X0043792Y0024436D01*
X0044962Y0027262D01*
X0044962Y0030322D01*
X0043792Y0033148D01*
X0041628Y0035311D01*
X0041712Y0035227D02*
X0261179Y0035227D01*
X0259581Y0033629D02*
X0043311Y0033629D01*
X0044255Y0032030D02*
X0258637Y0032030D01*
X0257975Y0030432D02*
X0044917Y0030432D01*
X0044962Y0028833D02*
X0257929Y0028833D01*
X0257941Y0027235D02*
X0044951Y0027235D01*
X0044289Y0025636D02*
X0258603Y0025636D01*
X0259498Y0024038D02*
X0043393Y0024038D01*
X0041795Y0022439D02*
X0261097Y0022439D01*
X0269963Y0017644D02*
X0032059Y0017644D01*
X0029415Y0019242D02*
X0272864Y0019242D01*
X0032750Y0022439D02*
X0026782Y0022439D01*
X0025997Y0024038D02*
X0031152Y0024038D01*
X0030256Y0025636D02*
X0025568Y0025636D01*
X0025315Y0027235D02*
X0029594Y0027235D01*
X0029583Y0028833D02*
X0025277Y0028833D01*
X0025277Y0030432D02*
X0029628Y0030432D01*
X0030291Y0032030D02*
X0025277Y0032030D01*
X0025277Y0033629D02*
X0031234Y0033629D01*
X0032833Y0035227D02*
X0025277Y0035227D01*
D12*
X0172935Y0202931D02*
X0168014Y0207852D01*
X0139471Y0207852D01*
X0138978Y0208344D01*
X0142915Y0212281D01*
X0146360Y0212281D01*
X0146446Y0212650D01*
X0138978Y0208344D02*
X0138486Y0207852D01*
X0121262Y0207852D01*
X0116833Y0212281D01*
X0116446Y0212650D01*
X0172935Y0202931D02*
X0176380Y0202931D01*
X0176446Y0202650D01*
D13*
X0194097Y0176356D02*
X0233959Y0136494D01*
X0234064Y0136115D01*
X0233959Y0126159D02*
X0234064Y0126115D01*
X0233959Y0126159D02*
X0111419Y0126159D01*
X0061223Y0176356D01*
X0057778Y0176356D01*
X0057469Y0176390D01*
X0087469Y0176390D02*
X0087797Y0176356D01*
X0194097Y0176356D01*
M02*
